SplineFontDB: 3.0
FontName: Nika-Regular
FullName: Nika Regular
FamilyName: Nika
Weight: Regular
Copyright: Copyright (c) 2016 Copyright Holder (info@font-store.ir), with Reserved Font Name "Farbod"
UComments: "2015-5-13: Created with FontForge (http://fontforge.org)"
Version: Version:0.0.5;RFB:1.2.5;Building:2016-03-19 14:42:34.825253
FONDName: RITA
ItalicAngle: 0
UnderlinePosition: 500
UnderlineWidth: 59
Ascent: 800
Descent: 500
InvalidEm: 0
sfntRevision: 0x00010000
LayerCount: 2
Layer: 0 0 "Back" 1
Layer: 1 0 "Fore" 0
PreferredKerning: 4
XUID: [1021 828 -1901974348 32649]
StyleMap: 0x0040
FSType: 8
OS2Version: 3
OS2_WeightWidthSlopeOnly: 0
OS2_UseTypoMetrics: 0
CreationTime: 1431477301
ModificationTime: 1458446226
PfmFamily: 17
TTFWeight: 400
TTFWidth: 5
LineGap: 0
VLineGap: 0
Panose: 2 0 5 3 0 0 0 0 0 0
OS2TypoAscent: 800
OS2TypoAOffset: 0
OS2TypoDescent: -500
OS2TypoDOffset: 0
OS2TypoLinegap: 0
OS2WinAscent: 1100
OS2WinAOffset: 0
OS2WinDescent: 700
OS2WinDOffset: 0
HheadAscent: 1100
HheadAOffset: 0
HheadDescent: -700
HheadDOffset: 0
OS2SubXSize: 780
OS2SubYSize: 839
OS2SubXOff: -107
OS2SubYOff: 168
OS2SupXSize: 780
OS2SupYSize: 839
OS2SupXOff: 369
OS2SupYOff: 575
OS2StrikeYSize: 59
OS2StrikeYPos: 310
OS2Vendor: 'RITA'
OS2CodePages: 00000040.00000000
OS2UnicodeRanges: 80002003.80002000.00000008.00000000
MacStyle: 0
Lookup: 4 1 1 "'ccmp' Glyph Composition/Decomposition in Arabic lookup 5" { "'ccmp' Glyph Composition/Decomposition in Arabic lookup 5-1"  } ['ccmp' ('DFLT' <'dflt' > 'arab' <'dflt' > ) ]
Lookup: 1 9 0 "'isol' Isolated Forms in Latin lookup 1" { "'isol' Isolated Forms in Latin lookup 1-1"  } ['isol' ('DFLT' <'dflt' > 'arab' <'dflt' > ) ]
Lookup: 1 9 0 "'fina' Terminal Forms in Arabic lookup 3" { "'fina' Terminal Forms in Arabic lookup 3-1"  } ['fina' ('DFLT' <'dflt' > 'arab' <'dflt' > ) ]
Lookup: 1 9 0 "'medi' Medial Forms in Arabic lookup 2" { "'medi' Medial Forms in Arabic lookup 2-1"  } ['medi' ('DFLT' <'dflt' > 'arab' <'dflt' > ) ]

StartChar: _.alef.isol
Encoding: 65536 -1 0
GlifName: _.alef.isol
Width: 217
VWidth: 1304
GlyphClass: 2
Flags: HMW
LayerCount: 2
Fore
SplineSet
64 718 m 2
 64 735.333333333 68.3333333333 748.666666667 77 758 c 128
 85.6666666667 767.333333333 107 781.333333333 141 800 c 1
 149 800 153 796.333333333 153 789 c 2
 153 -0 l 1
 131 -16.6666666667 114 -25 102 -25 c 0
 93.3333333333 -25 89 -20 89 -10 c 2
 64 700 l 1
 64 718 l 2
EndSplineSet
Validated: 1
Colour: ffda6b
EndChar

StartChar: _.alef.fina
Encoding: 65537 -1 1
GlifName: _.alef.fina
Width: 277
VWidth: 1304
GlyphClass: 2
Flags: HMW
LayerCount: 2
Fore
SplineSet
64 718 m 2
 64 735.333333333 68.3333333333 748.666666667 77 758 c 128
 85.6666666667 767.333333333 107 781.333333333 141 800 c 1
 149 800 153 796.333333333 153 789 c 2
 153 181 l 2
 153 173.666666667 153.166666667 168 153.5 164 c 128
 153.833333333 160 154.833333333 155 156.5 149 c 128
 158.166666667 143 161.333333333 137.833333333 166 133.5 c 128
 170.666666667 129.166666667 176.666666667 125.333333333 184 122 c 0
 210.666666667 110 241.666666667 103 277 101 c 1
 277 -0 l 1
 243 0 213.833333333 3.5 189.5 10.5 c 128
 165.166666667 17.5 146.333333333 26.3333333333 133 37 c 128
 119.666666667 47.6666666667 109.166666667 61.1666666667 101.5 77.5 c 128
 93.8333333333 93.8333333333 88.8333333333 109 86.5 123 c 128
 84.1666666667 137 83 153.666666667 83 173 c 2
 64 700 l 1
 64 718 l 2
EndSplineSet
Validated: 1
Colour: ffda6b
EndChar

StartChar: _.beh.isol
Encoding: 65540 -1 4
GlifName: _.beh.isol
Width: 925
VWidth: 1304
GlyphClass: 2
UnlinkRmOvrlpSave: 1
Flags: HMW
LayerCount: 2
Fore
SplineSet
64 221 m 0
 64 276.333333333 78 342.666666667 106 420 c 1
 164 405 l 1
 142.666666667 341 132 290.333333333 132 253 c 0
 132 202.333333333 153.5 164.333333333 196.5 139 c 128
 239.5 113.666666667 314 101 420 101 c 2
 425 101 l 2
 535 101 655 120.333333333 785 159 c 1
 785 166 l 2
 785 224 767.666666667 297.333333333 733 386 c 1
 809 450 l 1
 843.666666667 357.333333333 861 280.666666667 861 220 c 0
 861 137.333333333 827.333333333 82 760 54 c 1
 760 55 l 1
 714.666666667 39.6666666667 659.666666667 26.8333333333 595 16.5 c 128
 530.333333333 6.16666666667 473.333333333 0.666666666667 424 0 c 0
 381.333333333 0 343.833333333 1.5 311.5 4.5 c 128
 279.166666667 7.5 246.833333333 13.8333333333 214.5 23.5 c 128
 182.166666667 33.1666666667 155.5 45.8333333333 134.5 61.5 c 128
 113.5 77.1666666667 96.5 98.5 83.5 125.5 c 128
 70.5 152.5 64 184.333333333 64 221 c 0
EndSplineSet
Colour: ffda6b
EndChar

StartChar: _.beh.fina
Encoding: 65541 -1 5
GlifName: _.beh.fina
Width: 996
VWidth: 1304
GlyphClass: 2
UnlinkRmOvrlpSave: 1
Flags: HMW
LayerCount: 2
Fore
SplineSet
64 221 m 0
 64 276.333333333 78 342.666666667 106 420 c 1
 164 405 l 1
 142.666666667 341 132 290.333333333 132 253 c 0
 132 202.333333333 153.5 164.333333333 196.5 139 c 128
 239.5 113.666666667 314 101 420 101 c 2
 425 101 l 2
 533 101 645 118 761 152 c 1
 749 190 743 239.333333333 743 300 c 1
 804 346 l 1
 809.374223339 273.149416969 817.018503129 223.569143902 826.93283937 197.259180801 c 0
 854.503092424 133.622007776 910.858812634 101.202280842 996 100 c 1
 996 -0 l 1
 901.333333333 0 833.666666667 29 793 87 c 1
 791.666666667 85 784 77 770 63 c 0
 768.666666667 62.3333333333 767 61 765 59 c 128
 763 57 761.333333333 55.6666666667 760 55 c 0
 714.666666667 39.6666666667 659.666666667 26.8333333333 595 16.5 c 128
 530.333333333 6.16666666667 473.333333333 0.666666666667 424 0 c 0
 381.333333333 0 343.833333333 1.5 311.5 4.5 c 128
 279.166666667 7.5 246.833333333 13.8333333333 214.5 23.5 c 128
 182.166666667 33.1666666667 155.5 45.8333333333 134.5 61.5 c 128
 113.5 77.1666666667 96.5 98.5 83.5 125.5 c 128
 70.5 152.5 64 184.333333333 64 221 c 0
EndSplineSet
Colour: ffda6b
EndChar

StartChar: _.beh.medi
Encoding: 65542 -1 6
GlifName: _.beh.medi
Width: 440
VWidth: 1304
GlyphClass: 2
UnlinkRmOvrlpSave: 1
Flags: HMW
LayerCount: 2
Fore
SplineSet
-50 50 m 0
 -49.3333333333 63.3333333333 -44 75 -34 85 c 128
 -24 95 -12.6666666667 100 0 100 c 2
 50 100 l 2
 93.3333333333 100 131.333333333 105.333333333 164 116 c 0
 182 122 193.333333333 129.833333333 198 139.5 c 128
 202.666666667 149.166666667 205 166 205 190 c 2
 205 224 l 1
 205 320 l 1
 285 331 l 1
 285 204 l 1
 281 143 l 1
 299.666666667 127 320.833333333 115.833333333 344.5 109.5 c 128
 368.166666667 103.166666667 400 100 440 100 c 1
 440 -0 l 1
 346.666666667 0 281.333333333 22 244 66 c 1
 208 22 143.333333333 0 50 0 c 2
 0 -0 l 2
 -12.6666666667 0 -24.1666666667 5.16666666667 -34.5 15.5 c 128
 -44.8333333333 25.8333333333 -50 37.3333333333 -50 50 c 0
EndSplineSet
Colour: ffda6b
EndChar

StartChar: _.beh.init
Encoding: 65543 -1 7
GlifName: _.beh.init
Width: 327
VWidth: 1197
GlyphClass: 1
UnlinkRmOvrlpSave: 1
Flags: HMW
LayerCount: 2
Fore
SplineSet
-50 49 m 0
 -50 62.3333333333 -45 74.1666666667 -35 84.5 c 128
 -25 94.8333333333 -13.6666666667 100 -1 100 c 2
 29 100 l 2
 100.333333333 100 151.666666667 113 183 139 c 1
 183 146 l 2
 183 203.333333333 167 273.333333333 135 356 c 1
 211 421 l 1
 245.666666667 327 263 249 263 187 c 0
 263 98.3333333333 226 41.3333333333 152 16 c 1
 152 17 l 1
 118.666666667 5.66666666667 76.3333333333 0 25 0 c 2
 -1 -0 l 2
 -13 0 -24.1666666667 5 -34.5 15 c 128
 -44.8333333333 25 -50 36.3333333333 -50 49 c 0
EndSplineSet
Colour: ffda6b
EndChar

StartChar: _.heh.isol
Encoding: 65544 -1 8
GlifName: _.heh.isol
Width: 748
VWidth: 1304
GlyphClass: 1
UnlinkRmOvrlpSave: 1
Flags: HMW
LayerCount: 2
Fore
SplineSet
64 272 m 1
 82 335.333333333 104.5 379 131.5 403 c 128
 158.5 427 189.333333333 439 224 439 c 0
 256 439 291.833333333 431.833333333 331.5 417.5 c 128
 371.166666667 403.166666667 407.333333333 387.166666667 440 369.5 c 128
 472.666666667 351.833333333 511.333333333 335.833333333 556 321.5 c 128
 600.666666667 307.166666667 643.333333333 300 684 300 c 1
 646 200 l 1
 633 200 l 2
 561 198 488.666666667 181 416 149 c 128
 343.333333333 117 281.666666667 74.8333333333 231 22.5 c 128
 180.333333333 -29.8333333333 151.666666667 -84.3333333333 145 -141 c 1
 145 -139 l 1
 151.666666667 -189 178.5 -229 225.5 -259 c 128
 272.5 -289 337 -304 419 -304 c 0
 476.333333333 -304 538.666666667 -296.333333333 606 -281 c 1
 585 -379 l 1
 510.333333333 -392.333333333 447 -399 395 -399 c 0
 334.333333333 -399 282.666666667 -391.833333333 240 -377.5 c 128
 197.333333333 -363.166666667 165.333333333 -343.666666667 144 -319 c 128
 122.666666667 -294.333333333 107.5 -269.166666667 98.5 -243.5 c 128
 89.5 -217.833333333 85 -190.333333333 85 -161 c 0
 85 -139.666666667 87.3333333333 -117.333333333 92 -94 c 0
 103.333333333 -20.6666666667 139.166666667 49.1666666667 199.5 115.5 c 128
 259.833333333 181.833333333 338.333333333 231.333333333 435 264 c 1
 344.082005996 304.047211645 281.713301632 327.641083236 247.893886909 334.781614774 c 0
 231.41680037 338.260538258 216.452171401 340 203 340 c 0
 164.333333333 340 133.333333333 311 110 253 c 1
 64 272 l 1
EndSplineSet
Colour: ffda6b
EndChar

StartChar: _.heh.fina
Encoding: 65545 -1 9
GlifName: _.heh.fina
Width: 737
VWidth: 1304
GlyphClass: 1
UnlinkRmOvrlpSave: 1
Flags: HMW
LayerCount: 2
Fore
SplineSet
64 272 m 1
 82 335.333333333 104.5 379 131.5 403 c 128
 158.5 427 189.333333333 439 224 439 c 0
 245.333333333 439 268.5 435.666666667 293.5 429 c 128
 318.5 422.333333333 339.666666667 415.5 357 408.5 c 128
 374.333333333 401.5 398.666666667 390.666666667 430 376 c 128
 461.333333333 361.333333333 484.333333333 351 499 345 c 1
 499 346 l 1
 499 345 l 1
 567.666666667 315 629.333333333 300 684 300 c 1
 646 200 l 1
 632 200 l 2
 605.333333333 199.333333333 575.333333333 195.666666667 542 189 c 1
 558.666666667 157 581.666666667 134 611 120 c 128
 640.333333333 106 678.333333333 99 725 99 c 0
 726.333333333 99 728.333333333 99.1666666667 731 99.5 c 128
 733.666666667 99.8333333333 735.666666667 100 737 100 c 2
 737 -0 l 1
 658.333333333 0 598.166666667 13.3333333333 556.5 40 c 128
 514.833333333 66.6666666667 485 109.333333333 467 168 c 1
 382.333333333 139.333333333 309.333333333 96.6666666667 248 40 c 128
 186.666666667 -16.6666666667 152.333333333 -77 145 -141 c 1
 145 -139 l 1
 151.666666667 -189 178.5 -229 225.5 -259 c 128
 272.5 -289 337 -304 419 -304 c 0
 476.333333333 -304 538.666666667 -296.333333333 606 -281 c 1
 585 -379 l 1
 510.333333333 -392.333333333 447 -399 395 -399 c 0
 334.333333333 -399 282.666666667 -391.833333333 240 -377.5 c 128
 197.333333333 -363.166666667 165.333333333 -343.666666667 144 -319 c 128
 122.666666667 -294.333333333 107.5 -269.166666667 98.5 -243.5 c 128
 89.5 -217.833333333 85 -190.333333333 85 -161 c 0
 85 -139.666666667 87.3333333333 -117.333333333 92 -94 c 0
 103.333333333 -20.6666666667 139.166666667 49.1666666667 199.5 115.5 c 128
 259.833333333 181.833333333 338.333333333 231.333333333 435 264 c 1
 344.082005996 304.047211645 281.713301632 327.641083236 247.893886909 334.781614774 c 0
 231.41680037 338.260538258 216.452171401 340 203 340 c 0
 164.333333333 340 133.333333333 311 110 253 c 1
 64 272 l 1
EndSplineSet
Colour: ffda6b
EndChar

StartChar: _.heh.medi
Encoding: 65546 -1 10
GlifName: _.heh.medi
Width: 714
VWidth: 1304
GlyphClass: 1
UnlinkRmOvrlpSave: 1
Flags: HMW
LayerCount: 2
Fore
SplineSet
-50 50 m 128
 -50 62.6666666667 -45 74.1666666667 -35 84.5 c 128
 -25 94.8333333333 -13.6666666667 100 -1 100 c 2
 8 100 l 2
 64.6666666667 100 115.833333333 108 161.5 124 c 128
 207.166666667 140 256.5 163.666666667 309.5 195 c 128
 362.5 226.333333333 401 247.333333333 425 258 c 1
 418.333333333 260.666666667 406 266 388 274 c 128
 370 282 357.166666667 287.666666667 349.5 291 c 128
 341.833333333 294.333333333 330.166666667 299.333333333 314.5 306 c 128
 298.833333333 312.666666667 286.333333333 317.5 277 320.5 c 128
 267.666666667 323.5 256.666666667 326.833333333 244 330.5 c 128
 231.333333333 334.166666667 219.833333333 336.666666667 209.5 338 c 128
 199.166666667 339.333333333 189.333333333 340 180 340 c 0
 141.333333333 340 110.333333333 311 87 253 c 1
 41 272 l 1
 59 335.333333333 81.5 379 108.5 403 c 128
 135.5 427 166.333333333 439 201 439 c 0
 222.333333333 439 245.5 435.666666667 270.5 429 c 128
 295.5 422.333333333 316.666666667 415.5 334 408.5 c 128
 351.333333333 401.5 375.666666667 390.666666667 407 376 c 128
 438.333333333 361.333333333 461.333333333 351 476 345 c 1
 476 346 l 1
 476 345 l 1
 544.666666667 315 606.666666667 300 662 300 c 1
 622 199 l 1
 582 199 l 2
 560.666666667 199 539.333333333 197 518 193 c 1
 534.666666667 159.666666667 557.333333333 135.666666667 586 121 c 128
 614.666666667 106.333333333 653 99 701 99 c 0
 702.333333333 99 704.5 99.1666666667 707.5 99.5 c 128
 710.5 99.8333333333 712.666666667 100 714 100 c 2
 714 -0 l 1
 635.333333333 0 575.166666667 13.3333333333 533.5 40 c 128
 491.833333333 66.6666666667 462 109.333333333 444 168 c 1
 419.333333333 157.333333333 387.666666667 140.833333333 349 118.5 c 128
 310.333333333 96.1666666667 276.833333333 77.1666666667 248.5 61.5 c 128
 220.166666667 45.8333333333 184.5 31.6666666667 141.5 19 c 128
 98.5 6.33333333333 55.3333333333 0 12 0 c 2
 -1 -0 l 2
 -13.6666666667 0.666666666667 -25 6 -35 16 c 128
 -45 26 -50 37.3333333333 -50 50 c 128
EndSplineSet
Colour: ffda6b
EndChar

StartChar: _.heh.init
Encoding: 65547 -1 11
GlifName: _.heh.init
Width: 726
VWidth: 1304
GlyphClass: 1
UnlinkRmOvrlpSave: 1
Flags: HMW
LayerCount: 2
Fore
SplineSet
-50 50 m 128
 -50 62.6666666667 -45 74.1666666667 -35 84.5 c 128
 -25 94.8333333333 -13.6666666667 100 -1 100 c 2
 8 100 l 2
 65.3333333333 100 116.833333333 108 162.5 124 c 128
 208.166666667 140 257.333333333 163.666666667 310 195 c 128
 362.666666667 226.333333333 401.333333333 247.333333333 426 258 c 1
 420.666666667 260 403.666666667 267.333333333 375 280 c 128
 346.333333333 292.666666667 327.333333333 300.833333333 318 304.5 c 128
 308.666666667 308.166666667 293.666666667 313.666666667 273 321 c 128
 252.333333333 328.333333333 235 333.333333333 221 336 c 128
 207 338.666666667 193.333333333 340 180 340 c 0
 141.333333333 340 110.333333333 311 87 253 c 1
 41 272 l 1
 59 335.333333333 81.5 379 108.5 403 c 128
 135.5 427 166.333333333 439 201 439 c 0
 233 439 269 431.833333333 309 417.5 c 128
 349 403.166666667 385.333333333 387.166666667 418 369.5 c 128
 450.666666667 351.833333333 489.333333333 335.833333333 534 321.5 c 128
 578.666666667 307.166666667 621.333333333 300 662 300 c 1
 622 199 l 1
 582 199 l 2
 545.333333333 199 508.166666667 192.166666667 470.5 178.5 c 128
 432.833333333 164.833333333 397.5 148.333333333 364.5 129 c 128
 331.5 109.666666667 297.833333333 90.1666666667 263.5 70.5 c 128
 229.166666667 50.8333333333 190.166666667 34.1666666667 146.5 20.5 c 128
 102.833333333 6.83333333333 58 0 12 0 c 2
 -1 -0 l 2
 -13.6666666667 0.666666666667 -25 6 -35 16 c 128
 -45 26 -50 37.3333333333 -50 50 c 128
EndSplineSet
Colour: ffda6b
EndChar

StartChar: _.sin.isol
Encoding: 65548 -1 12
GlifName: _.sin.isol
Width: 1259
VWidth: 1304
GlyphClass: 1
UnlinkRmOvrlpSave: 1
Flags: HMW
LayerCount: 2
Fore
SplineSet
64 -52 m 0
 64 30 87.6666666667 127.333333333 135 240 c 1
 186 219 l 1
 151.333333333 121.666666667 134 40.6666666667 134 -24 c 0
 134 -141.333333333 194.666666667 -200 316 -200 c 0
 374.666666667 -200 435 -187.333333333 497 -162 c 128
 559 -136.666666667 599.666666667 -112.666666667 619 -90 c 1
 569 234 l 1
 645 299 l 1
 647 287 654.666666667 239.333333333 668 156 c 1
 701.333333333 118.666666667 735 100 769 100 c 0
 799.666666667 100 828 114.833333333 854 144.5 c 128
 880 174.166666667 902 211.666666667 920 257 c 1
 971 232 l 1
 949.666666667 177.333333333 937.333333333 146 934 138 c 1
 963.333333333 101.333333333 1012.66666667 82.3333333333 1082 81 c 1
 1097.33333333 93.6666666667 1105 131.333333333 1105 194 c 0
 1105 239.333333333 1099 280 1087 316 c 1
 1176 363 l 1
 1188.66666667 302.333333333 1195 249.333333333 1195 204 c 0
 1195 126.666666667 1179.83333333 70 1149.5 34 c 128
 1119.16666667 -2 1083 -20 1041 -20 c 0
 1013 -20 985 -13.1666666667 957 0.5 c 128
 929 14.1666666667 906.333333333 32.6666666667 889 56 c 1
 859.666666667 18.6666666667 821 0 773 0 c 0
 741.666666667 0 712 7.33333333333 684 22 c 1
 685.333333333 -8.66666666667 686 -31.6666666667 686 -47 c 0
 684.666666667 -91.6666666667 664.833333333 -134 626.5 -174 c 128
 588.166666667 -214 540.833333333 -245.166666667 484.5 -267.5 c 128
 428.166666667 -289.833333333 371.666666667 -301 315 -301 c 0
 242.333333333 -301 182.333333333 -280.666666667 135 -240 c 128
 87.6666666667 -199.333333333 64 -136.666666667 64 -52 c 0
EndSplineSet
Colour: ffda6b
EndChar

StartChar: _.sin.fina
Encoding: 65549 -1 13
GlifName: _.sin.fina
Width: 1400
VWidth: 1304
GlyphClass: 1
UnlinkRmOvrlpSave: 1
Flags: HMW
LayerCount: 2
Fore
SplineSet
64 -52 m 0
 64 30 87.6666666667 127.333333333 135 240 c 1
 186 219 l 1
 151.333333333 121.666666667 134 40.6666666667 134 -24 c 0
 134 -141.333333333 194.666666667 -200 316 -200 c 0
 374.666666667 -200 435 -187.333333333 497 -162 c 128
 559 -136.666666667 599.666666667 -112.666666667 619 -90 c 1
 569 234 l 1
 645 299 l 1
 647 287 654.666666667 239.333333333 668 156 c 1
 701.333333333 118.666666667 735 100 769 100 c 0
 799.666666667 100 828 114.833333333 854 144.5 c 128
 880 174.166666667 902 211.666666667 920 257 c 1
 971 232 l 2
 970.333333333 230.666666667 965.333333333 217.833333333 956 193.5 c 128
 946.666666667 169.166666667 939.333333333 151 934 139 c 1
 975.333333333 113.666666667 1014 101 1050 101 c 0
 1083.33333333 101.666666667 1111.66666667 126.666666667 1135 176 c 1
 1121 220 1111 261.333333333 1105 300 c 1
 1162 346 l 1
 1181.72415341 269.842852097 1198.55136442 219.08859689 1212.48163302 193.737234378 c 0
 1242.76154762 138.631542323 1293.70849333 107.87553961 1365.32247014 101.469226238 c 0
 1376.27178713 100.489742079 1387.83096375 100 1400 100 c 1
 1400 -0 l 1
 1298 0 1224 31.6666666667 1178 95 c 1
 1140 32.3333333333 1092.66666667 1 1036 1 c 2
 1033 1 l 2
 989 1 939.666666667 18 885 52 c 1
 855 17.3333333333 817.666666667 0 773 0 c 0
 741.666666667 0 712 7.33333333333 684 22 c 1
 685.333333333 -8.66666666667 686 -31.6666666667 686 -47 c 0
 684.666666667 -91.6666666667 664.833333333 -134 626.5 -174 c 128
 588.166666667 -214 540.833333333 -245.166666667 484.5 -267.5 c 128
 428.166666667 -289.833333333 371.666666667 -301 315 -301 c 0
 242.333333333 -301 182.333333333 -280.666666667 135 -240 c 128
 87.6666666667 -199.333333333 64 -136.666666667 64 -52 c 0
EndSplineSet
Colour: ffda6b
EndChar

StartChar: _.sin.medi
Encoding: 65550 -1 14
GlifName: _.sin.medi
Width: 976
VWidth: 1304
GlyphClass: 1
UnlinkRmOvrlpSave: 1
Flags: HMW
LayerCount: 2
Fore
SplineSet
-50 49 m 128
 -50 61.6666666667 -45.5 73 -36.5 83 c 128
 -27.5 93 -16.3333333333 98.6666666667 -3 100 c 0
 43 100 81.3333333333 107.333333333 112 122 c 128
 142.666666667 136.666666667 169.333333333 158.5 192 187.5 c 128
 214.666666667 216.5 240.333333333 259 269 315 c 1
 324 292 l 1
 294.666666667 223.333333333 271.666666667 174 255 144 c 1
 285 114.666666667 315 100 345 100 c 0
 376.333333333 100 404.833333333 114.833333333 430.5 144.5 c 128
 456.166666667 174.166666667 477.666666667 211.666666667 495 257 c 1
 547 232 l 2
 546.333333333 230.666666667 541.333333333 217.833333333 532 193.5 c 128
 522.666666667 169.166666667 515.333333333 151 510 139 c 1
 551.333333333 113.666666667 590 101 626 101 c 0
 659.333333333 101.666666667 687.666666667 126.666666667 711 176 c 1
 697 220 687 261.333333333 681 300 c 1
 738 346 l 1
 757.724153414 269.842852097 774.551364422 219.08859689 788.481633024 193.737234378 c 0
 818.761547623 138.631542323 869.708493328 107.87553961 941.32247014 101.469226238 c 0
 952.271787129 100.489742079 963.830963749 100 976 100 c 1
 976 -0 l 1
 874 0 800 31.6666666667 754 95 c 1
 716 32.3333333333 668.666666667 1 612 1 c 2
 609 1 l 2
 565 1 515.666666667 18 461 52 c 1
 431 17.3333333333 393.666666667 0 349 0 c 0
 321.666666667 0 294.333333333 6.33333333333 267 19 c 128
 239.666666667 31.6666666667 216.333333333 48 197 68 c 1
 151.666666667 22.6666666667 85.6666666667 0 -1 0 c 0
 -13 0 -24.1666666667 5 -34.5 15 c 128
 -44.8333333333 25 -50 36.3333333333 -50 49 c 128
EndSplineSet
Colour: ffda6b
EndChar

StartChar: _.sin.init
Encoding: 65551 -1 15
GlifName: _.sin.init
Width: 837
VWidth: 1304
GlyphClass: 1
UnlinkRmOvrlpSave: 1
Flags: HMW
LayerCount: 2
Fore
SplineSet
-50 50 m 0
 -50 62.6666666667 -45 74 -35 84 c 128
 -25 94 -13.6666666667 99.3333333333 -1 100 c 0
 45 100 83.3333333333 107.333333333 114 122 c 128
 144.666666667 136.666666667 171.333333333 158.5 194 187.5 c 128
 216.666666667 216.5 242.333333333 259 271 315 c 1
 327 292 l 1
 297.666666667 223.333333333 274.666666667 174 258 144 c 1
 288 114.666666667 317.666666667 100 347 100 c 0
 378.333333333 100 407 114.833333333 433 144.5 c 128
 459 174.166666667 480.666666667 211.666666667 498 257 c 1
 550 232 l 1
 528.666666667 177.333333333 516.333333333 146 513 138 c 1
 542.333333333 101.333333333 591.333333333 82.3333333333 660 81 c 1
 675.333333333 93.6666666667 683 131.333333333 683 194 c 0
 683 239.333333333 677 280 665 316 c 1
 754 363 l 1
 766.666666667 302.333333333 773 249.333333333 773 204 c 0
 773 126.666666667 758 70 728 34 c 128
 698 -2 662 -20 620 -20 c 0
 592 -20 563.833333333 -13.1666666667 535.5 0.5 c 128
 507.166666667 14.1666666667 484.333333333 32.6666666667 467 56 c 1
 437.666666667 18.6666666667 399 0 351 0 c 0
 294.333333333 0 244 22.6666666667 200 68 c 1
 154.666666667 22.6666666667 88 0 0 0 c 0
 -13.3333333333 0 -25 5 -35 15 c 128
 -45 25 -50 36.6666666667 -50 50 c 0
EndSplineSet
Colour: ffda6b
EndChar

StartChar: _.sad.isol
Encoding: 65552 -1 16
GlifName: _.sad.isol
Width: 1331
VWidth: 1304
GlyphClass: 1
UnlinkRmOvrlpSave: 1
Flags: HMW
LayerCount: 2
Fore
SplineSet
64 -51 m 0
 64 30.3333333333 87.6666666667 127.333333333 135 240 c 1
 185 219 l 1
 150.333333333 121.666666667 133 41 133 -23 c 0
 133 -141 194.333333333 -200 317 -200 c 0
 375.666666667 -200 435.833333333 -187.333333333 497.5 -162 c 128
 559.166666667 -136.666666667 599.666666667 -112.666666667 619 -90 c 1
 568 234 l 1
 645 299 l 1
 647 287 654.666666667 239.333333333 668 156 c 1
 676.666666667 140 689.666666667 127.333333333 707 118 c 1
 767.666666667 186.666666667 818 240.166666667 858 278.5 c 128
 898 316.833333333 936.666666667 347 974 369 c 128
 1011.33333333 391 1046.33333333 402 1079 402 c 0
 1120.33333333 402 1156 390.333333333 1186 367 c 128
 1216 343.666666667 1237 317.5 1249 288.5 c 128
 1261 259.5 1267 231.333333333 1267 204 c 2
 1267 203 l 2
 1267 171.666666667 1264.33333333 145.166666667 1259 123.5 c 128
 1253.66666667 101.833333333 1243.5 81 1228.5 61 c 128
 1213.5 41 1190 25.8333333333 1158 15.5 c 128
 1126 5.16666666667 1085.33333333 0 1036 0 c 2
 816 -0 l 2
 760 1.33333333333 716 9.33333333333 684 24 c 1
 685.333333333 1.33333333333 686 -15.3333333333 686 -26 c 0
 686 -28.6666666667 685.833333333 -32.3333333333 685.5 -37 c 128
 685.166666667 -41.6666666667 685 -45 685 -47 c 0
 683.666666667 -91.6666666667 664 -134 626 -174 c 128
 588 -214 540.833333333 -245.166666667 484.5 -267.5 c 128
 428.166666667 -289.833333333 371.666666667 -301 315 -301 c 0
 242.333333333 -301 182.333333333 -280.5 135 -239.5 c 128
 87.6666666667 -198.5 64 -135.666666667 64 -51 c 0
769 103 m 1
 787 101 805 100 823 100 c 2
 1036 100 l 2
 1110 100 1162 113.333333333 1192 140 c 2
 1206 151 l 1
 1197.33333333 188.333333333 1179.83333333 222.5 1153.5 253.5 c 128
 1127.16666667 284.5 1093.66666667 300 1053 300 c 0
 975.666666667 300 881 234.333333333 769 103 c 1
EndSplineSet
Colour: ffda6b
EndChar

StartChar: _.sad.fina
Encoding: 65553 -1 17
GlifName: _.sad.fina
Width: 1420
VWidth: 1304
GlyphClass: 1
UnlinkRmOvrlpSave: 1
Flags: HMW
LayerCount: 2
Fore
SplineSet
64 -52 m 0
 64 27.3333333333 88 124.666666667 136 240 c 1
 185 219 l 1
 150.333333333 119.666666667 133 39.3333333333 133 -22 c 0
 133 -140.666666667 194.333333333 -200 317 -200 c 0
 375.666666667 -200 435.666666667 -187.5 497 -162.5 c 128
 558.333333333 -137.5 599 -113.333333333 619 -90 c 1
 569 234 l 1
 645 299 l 1
 647.666666667 278.333333333 652 250.666666667 658 216 c 128
 664 181.333333333 667.666666667 159.333333333 669 150 c 1
 678.333333333 135.333333333 690 124.666666667 704 118 c 1
 764.666666667 186.666666667 815 240.166666667 855 278.5 c 128
 895 316.833333333 933.666666667 347 971 369 c 128
 1008.33333333 391 1043.33333333 402 1076 402 c 0
 1108 402 1136.66666667 395.333333333 1162 382 c 128
 1187.33333333 368.666666667 1207.16666667 351.5 1221.5 330.5 c 128
 1235.83333333 309.5 1246.66666667 288.166666667 1254 266.5 c 128
 1261.33333333 244.833333333 1265 224 1265 204 c 2
 1261 143 l 1
 1296.33333333 114.333333333 1349.33333333 100 1420 100 c 1
 1420 -0 l 1
 1329.33333333 0 1265.33333333 21 1228 63 c 1
 1192.66666667 21 1127.66666667 0 1033 0 c 2
 813 -0 l 2
 759 1.33333333333 715.666666667 9 683 23 c 1
 683 22.3333333333 683.5 16.6666666667 684.5 6 c 128
 685.5 -4.66666666667 686 -12.6666666667 686 -18 c 0
 686 -30.6666666667 685.666666667 -40.3333333333 685 -47 c 0
 683.666666667 -91.6666666667 664 -134 626 -174 c 128
 588 -214 540.666666667 -245.166666667 484 -267.5 c 128
 427.333333333 -289.833333333 370.666666667 -301 314 -301 c 0
 241.333333333 -301 181.5 -280.5 134.5 -239.5 c 128
 87.5 -198.5 64 -136 64 -52 c 0
766 103 m 1
 784 101 802 100 820 100 c 2
 1033 100 l 2
 1107 100 1159 113.333333333 1189 140 c 2
 1203 151 l 1
 1194.33333333 188.333333333 1176.83333333 222.5 1150.5 253.5 c 128
 1124.16666667 284.5 1090.66666667 300 1050 300 c 0
 972.666666667 300 878 234.333333333 766 103 c 1
EndSplineSet
Colour: ffda6b
EndChar

StartChar: _.sad.medi
Encoding: 65554 -1 18
GlifName: _.sad.medi
Width: 990
VWidth: 1304
GlyphClass: 1
UnlinkRmOvrlpSave: 1
Flags: HMW
LayerCount: 2
Fore
SplineSet
-50 50 m 0
 -49.3333333333 62.6666666667 -44.1666666667 74.1666666667 -34.5 84.5 c 128
 -24.8333333333 94.8333333333 -13.6666666667 100 -1 100 c 0
 71.6666666667 100 124.333333333 112 157 136 c 1
 142.333333333 185.333333333 135 240 135 300 c 1
 205 322 l 1
 207.666666667 260.666666667 213.666666667 214.666666667 223 184 c 128
 232.333333333 153.333333333 249.666666667 131.333333333 275 118 c 1
 335.666666667 186.666666667 386 240.166666667 426 278.5 c 128
 466 316.833333333 504.666666667 347 542 369 c 128
 579.333333333 391 614.333333333 402 647 402 c 0
 688.333333333 402 724 390.333333333 754 367 c 128
 784 343.666666667 805 317.5 817 288.5 c 128
 829 259.5 835 231.333333333 835 204 c 2
 831 143 l 1
 866.333333333 114.333333333 919.333333333 100 990 100 c 1
 990 -0 l 1
 899.333333333 0 835.333333333 21 798 63 c 1
 762.666666667 21 698 0 604 0 c 2
 383 -0 l 2
 293.666666667 1.33333333333 231.333333333 23.3333333333 196 66 c 1
 158 22 92.6666666667 0 0 0 c 0
 -12.6666666667 0.666666666667 -24.1666666667 6 -34.5 16 c 128
 -44.8333333333 26 -50 37.3333333333 -50 50 c 0
337 103 m 1
 355 101 373 100 391 100 c 2
 604 100 l 2
 678 100 730 113.333333333 760 140 c 2
 774 151 l 1
 765.333333333 188.333333333 747.833333333 222.5 721.5 253.5 c 128
 695.166666667 284.5 661.666666667 300 621 300 c 0
 543.666666667 300 449 234.333333333 337 103 c 1
EndSplineSet
Colour: ffda6b
EndChar

StartChar: _.sad.init
Encoding: 65555 -1 19
GlifName: _.sad.init
Width: 899
VWidth: 1304
GlyphClass: 1
UnlinkRmOvrlpSave: 1
Flags: HMW
LayerCount: 2
Fore
SplineSet
-50 50 m 0
 -49.3333333333 62.6666666667 -44.1666666667 74.1666666667 -34.5 84.5 c 128
 -24.8333333333 94.8333333333 -13.6666666667 100 -1 100 c 0
 71.6666666667 100 124.333333333 112 157 136 c 1
 142.333333333 185.333333333 135 240 135 300 c 1
 205 322 l 1
 207.666666667 260.666666667 213.666666667 214.666666667 223 184 c 128
 232.333333333 153.333333333 249.666666667 131.333333333 275 118 c 1
 335.666666667 186.666666667 386 240.166666667 426 278.5 c 128
 466 316.833333333 504.666666667 347 542 369 c 128
 579.333333333 391 614.333333333 402 647 402 c 0
 688.333333333 402 724 390.333333333 754 367 c 128
 784 343.666666667 805 317.5 817 288.5 c 128
 829 259.5 835 231.333333333 835 204 c 2
 835 203 l 2
 835 171.666666667 832.333333333 145.166666667 827 123.5 c 128
 821.666666667 101.833333333 811.5 81 796.5 61 c 128
 781.5 41 758 25.8333333333 726 15.5 c 128
 694 5.16666666667 653.333333333 0 604 0 c 2
 383 -0 l 2
 293.666666667 1.33333333333 231.333333333 23.3333333333 196 66 c 1
 158 22 92.6666666667 0 0 0 c 0
 -12.6666666667 0.666666666667 -24.1666666667 6 -34.5 16 c 128
 -44.8333333333 26 -50 37.3333333333 -50 50 c 0
337 103 m 1
 355 101 373 100 391 100 c 2
 604 100 l 2
 678 100 730 113.333333333 760 140 c 2
 774 151 l 1
 765.333333333 188.333333333 747.833333333 222.5 721.5 253.5 c 128
 695.166666667 284.5 661.666666667 300 621 300 c 0
 543.666666667 300 449 234.333333333 337 103 c 1
EndSplineSet
Colour: ffda6b
EndChar

StartChar: _.ta.isol
Encoding: 65556 -1 20
GlifName: _.ta.isol
Width: 881
VWidth: 1304
GlyphClass: 1
UnlinkRmOvrlpSave: 1
Flags: HMW
LayerCount: 2
Fore
SplineSet
64 87 m 0
 64 95.6666666667 70 100 82 100 c 2
 241 100 l 1
 254.333333333 114.666666667 264.666666667 126.333333333 272 135 c 1
 248 700 l 1
 248 718 l 2
 248 735.333333333 252.333333333 748.666666667 261 758 c 128
 269.666666667 767.333333333 291 781.333333333 325 800 c 1
 333 800 337 796.333333333 337 789 c 2
 337 205 l 1
 401.666666667 273.666666667 456.5 323.666666667 501.5 355 c 128
 546.5 386.333333333 589 402 629 402 c 0
 670.333333333 402 706 390.333333333 736 367 c 128
 766 343.666666667 787 317.5 799 288.5 c 128
 811 259.5 817 231.333333333 817 204 c 2
 817 203 l 2
 817 171.666666667 814.333333333 145.166666667 809 123.5 c 128
 803.666666667 101.833333333 793.5 81 778.5 61 c 128
 763.5 41 740 25.8333333333 708 15.5 c 128
 676 5.16666666667 635.333333333 0 586 0 c 2
 148 -0 l 2
 138 0 121.5 11.3333333333 98.5 34 c 128
 75.5 56.6666666667 64 74.3333333333 64 87 c 0
315 100 m 1
 586 100 l 2
 660 100 712 113.333333333 742 140 c 2
 756 151 l 1
 747.333333333 188.333333333 729.833333333 222.5 703.5 253.5 c 128
 677.166666667 284.5 643.666666667 300 603 300 c 0
 524.333333333 300 428.333333333 233.333333333 315 100 c 1
EndSplineSet
Colour: ffda6b
EndChar

StartChar: _.ta.fina
Encoding: 65557 -1 21
GlifName: _.ta.fina
Width: 972
VWidth: 1304
GlyphClass: 1
UnlinkRmOvrlpSave: 1
Flags: HMW
LayerCount: 2
Fore
SplineSet
64 87 m 0
 64 95.6666666667 70 100 82 100 c 2
 241 100 l 1
 254.333333333 114.666666667 264.666666667 126.333333333 272 135 c 1
 248 700 l 1
 248 718 l 2
 248 735.333333333 252.333333333 748.666666667 261 758 c 128
 269.666666667 767.333333333 291 781.333333333 325 800 c 1
 333 800 337 796.333333333 337 789 c 2
 337 205 l 1
 401.666666667 273.666666667 456.5 323.666666667 501.5 355 c 128
 546.5 386.333333333 589 402 629 402 c 0
 670.333333333 402 706 390.333333333 736 367 c 128
 766 343.666666667 787 317.5 799 288.5 c 128
 811 259.5 817 231.333333333 817 204 c 2
 814 143 l 1
 833.333333333 127 854.666666667 115.833333333 878 109.5 c 128
 901.333333333 103.166666667 932.666666667 100 972 100 c 1
 972 -0 l 1
 881.333333333 0 817.333333333 21 780 63 c 1
 744.666666667 21 680 0 586 0 c 2
 148 -0 l 2
 138 0 121.5 11.3333333333 98.5 34 c 128
 75.5 56.6666666667 64 74.3333333333 64 87 c 0
315 100 m 1
 586 100 l 2
 660 100 712 113.333333333 742 140 c 2
 756 151 l 1
 747.333333333 188.333333333 729.833333333 222.5 703.5 253.5 c 128
 677.166666667 284.5 643.666666667 300 603 300 c 0
 524.333333333 300 428.333333333 233.333333333 315 100 c 1
EndSplineSet
Colour: ffda6b
EndChar

StartChar: _.ta.medi
Encoding: 65558 -1 22
GlifName: _.ta.medi
Width: 795
VWidth: 1304
GlyphClass: 1
UnlinkRmOvrlpSave: 1
Flags: HMW
LayerCount: 2
Fore
SplineSet
-50 50 m 0
 -49.3333333333 63.3333333333 -44 75 -34 85 c 128
 -24 95 -12.6666666667 100 0 100 c 2
 63 100 l 1
 76.3333333333 114.666666667 86.6666666667 126.333333333 94 135 c 1
 71 700 l 2
 71 702.666666667 70.8333333333 706 70.5 710 c 128
 70.1666666667 714 70 716.666666667 70 718 c 0
 70 735.333333333 74.3333333333 748.666666667 83 758 c 128
 91.6666666667 767.333333333 113 781.333333333 147 800 c 1
 155 800 159 796.333333333 159 789 c 2
 159 205 l 1
 223.666666667 273.666666667 278.5 323.666666667 323.5 355 c 128
 368.5 386.333333333 411 402 451 402 c 0
 492.333333333 402 528 390.333333333 558 367 c 128
 588 343.666666667 609 317.5 621 288.5 c 128
 633 259.5 639 231.333333333 639 204 c 0
 639 184 638 163.666666667 636 143 c 1
 671.333333333 114.333333333 724.333333333 100 795 100 c 1
 795 -0 l 1
 703.666666667 0 639.333333333 21 602 63 c 1
 566.666666667 21 502 0 408 0 c 2
 0 -0 l 2
 -12.6666666667 0 -24.1666666667 5.16666666667 -34.5 15.5 c 128
 -44.8333333333 25.8333333333 -50 37.3333333333 -50 50 c 0
137 100 m 1
 408 100 l 2
 482 100 534 113.333333333 564 140 c 2
 578 151 l 1
 569.333333333 188.333333333 551.833333333 222.5 525.5 253.5 c 128
 499.166666667 284.5 465.666666667 300 425 300 c 0
 346.333333333 300 250.333333333 233.333333333 137 100 c 1
EndSplineSet
Colour: ffda6b
EndChar

StartChar: _.ta.init
Encoding: 65559 -1 23
GlifName: _.ta.init
Width: 703
VWidth: 1304
GlyphClass: 1
UnlinkRmOvrlpSave: 1
Flags: HMW
LayerCount: 2
Fore
SplineSet
-50 50 m 0
 -49.3333333333 63.3333333333 -44 75 -34 85 c 128
 -24 95 -12.6666666667 100 0 100 c 2
 63 100 l 1
 76.3333333333 114.666666667 86.6666666667 126.333333333 94 135 c 1
 71 700 l 2
 71 702.666666667 70.8333333333 706 70.5 710 c 128
 70.1666666667 714 70 716.666666667 70 718 c 0
 70 735.333333333 74.3333333333 748.666666667 83 758 c 128
 91.6666666667 767.333333333 113 781.333333333 147 800 c 1
 155 800 159 796.333333333 159 789 c 2
 159 205 l 1
 223.666666667 273.666666667 278.5 323.666666667 323.5 355 c 128
 368.5 386.333333333 411 402 451 402 c 0
 492.333333333 402 528 390.333333333 558 367 c 128
 588 343.666666667 609 317.5 621 288.5 c 128
 633 259.5 639 231.333333333 639 204 c 2
 639 203 l 2
 639 171.666666667 636.333333333 145.166666667 631 123.5 c 128
 625.666666667 101.833333333 615.5 81 600.5 61 c 128
 585.5 41 562 25.8333333333 530 15.5 c 128
 498 5.16666666667 457.333333333 0 408 0 c 2
 0 -0 l 2
 -12.6666666667 0 -24.1666666667 5.16666666667 -34.5 15.5 c 128
 -44.8333333333 25.8333333333 -50 37.3333333333 -50 50 c 0
137 100 m 1
 408 100 l 2
 482 100 534 113.333333333 564 140 c 2
 578 151 l 1
 569.333333333 188.333333333 551.833333333 222.5 525.5 253.5 c 128
 499.166666667 284.5 465.666666667 300 425 300 c 0
 346.333333333 300 250.333333333 233.333333333 137 100 c 1
EndSplineSet
Colour: ffda6b
EndChar

StartChar: _.ein.isol
Encoding: 65560 -1 24
GlifName: _.ein.isol
Width: 688
VWidth: 1304
GlyphClass: 1
UnlinkRmOvrlpSave: 1
Flags: HMW
LayerCount: 2
Fore
SplineSet
64 -161 m 0
 64 -139.666666667 66.3333333333 -117.333333333 71 -94 c 0
 79.6666666667 -40.6666666667 101.833333333 12 137.5 64 c 128
 173.166666667 116 220 161 278 199 c 1
 218.666666667 265.666666667 189 330.333333333 189 393 c 0
 189 409.666666667 191.666666667 428 197 448 c 0
 209 488.666666667 234.833333333 524.5 274.5 555.5 c 128
 314.166666667 586.5 358 602 406 602 c 0
 448 602 505 580.333333333 577 537 c 1
 556 469 l 1
 508.666666667 490.333333333 462 501 416 501 c 0
 387.333333333 501 360.666666667 497 336 489 c 128
 311.333333333 481 293 472.666666667 281 464 c 128
 269 455.333333333 262.333333333 448 261 442 c 0
 260.333333333 440 260 436.333333333 260 431 c 0
 260 399 277 364.166666667 311 326.5 c 128
 345 288.833333333 380 268.666666667 416 266 c 1
 454.666666667 266.666666667 494 271.333333333 534 280 c 0
 562.666666667 286 592.666666667 294.666666667 624 306 c 1
 594 214 l 1
 516 194.666666667 451.666666667 174 401 152 c 1
 401 151 l 1
 378.333333333 141.666666667 361.666666667 133.666666667 351 127 c 1
 351 128 l 1
 288.333333333 94.6666666667 236.333333333 54.5 195 7.5 c 128
 153.666666667 -39.5 130 -88.3333333333 124 -139 c 1
 131.333333333 -189 158.333333333 -229 205 -259 c 128
 251.666666667 -289 315.666666667 -304 397 -304 c 0
 453.666666667 -304 515.666666667 -296.333333333 583 -281 c 1
 563 -379 l 1
 488.333333333 -392.333333333 425 -399 373 -399 c 0
 312.333333333 -399 260.666666667 -391.833333333 218 -377.5 c 128
 175.333333333 -363.166666667 143.5 -343.666666667 122.5 -319 c 128
 101.5 -294.333333333 86.5 -269.166666667 77.5 -243.5 c 128
 68.5 -217.833333333 64 -190.333333333 64 -161 c 0
EndSplineSet
Colour: ffda6b
EndChar

StartChar: _.ein.fina
Encoding: 65561 -1 25
GlifName: _.ein.fina
Width: 645
VWidth: 1304
GlyphClass: 1
UnlinkRmOvrlpSave: 1
Flags: HMW
LayerCount: 2
Fore
SplineSet
64 314 m 1
 80 381.333333333 88.6666666667 418.666666667 90 426 c 1
 182 454.666666667 265 469 339 469 c 0
 385 469 432 461.666666667 480 447 c 1
 526 429.666666667 549 397.666666667 549 351 c 0
 549 331.666666667 543 311.833333333 531 291.5 c 128
 519 271.166666667 508.166666667 256.166666667 498.5 246.5 c 128
 488.833333333 236.833333333 471.333333333 222 446 202 c 128
 420.666666667 182 407.333333333 171.333333333 406 170 c 0
 430.666666667 140.666666667 460.666666667 121.666666667 496 113 c 128
 531.333333333 104.333333333 581 100 645 100 c 1
 645 -0 l 1
 507 0 406 37.3333333333 342 112 c 1
 286 78.6666666667 240.166666667 40.1666666667 204.5 -3.5 c 128
 168.833333333 -47.1666666667 148.666666667 -92.3333333333 144 -139 c 1
 151.333333333 -189 178.333333333 -229 225 -259 c 128
 271.666666667 -289 335.666666667 -304 417 -304 c 0
 473.666666667 -304 535.666666667 -296.333333333 603 -281 c 1
 584 -379 l 1
 509.333333333 -392.333333333 445.666666667 -399 393 -399 c 0
 332.333333333 -399 280.666666667 -391.833333333 238 -377.5 c 128
 195.333333333 -363.166666667 163.5 -343.666666667 142.5 -319 c 128
 121.5 -294.333333333 106.5 -269.166666667 97.5 -243.5 c 128
 88.5 -217.833333333 84 -190.333333333 84 -161 c 0
 84 -139.666666667 86.3333333333 -117.333333333 91 -94 c 0
 99 -44 119 5.66666666667 151 55 c 128
 183 104.333333333 225 147.333333333 277 184 c 1
 237.666666667 224 201.333333333 255.166666667 168 277.5 c 128
 134.666666667 299.833333333 100 312 64 314 c 1
175 351 m 1
 191 343.666666667 208.833333333 333 228.5 319 c 128
 248.166666667 305 264.833333333 292.166666667 278.5 280.5 c 128
 292.166666667 268.833333333 306.166666667 256.5 320.5 243.5 c 128
 334.833333333 230.5 343.333333333 223 346 221 c 1
 372.666666667 237 396.5 253.166666667 417.5 269.5 c 128
 438.5 285.833333333 454 299.333333333 464 310 c 128
 474 320.666666667 479 328 479 332 c 0
 479 356.666666667 430 371.666666667 332 377 c 0
 299.333333333 376.333333333 270 373.833333333 244 369.5 c 128
 218 365.166666667 200 361 190 357 c 2
 175 351 l 1
EndSplineSet
Colour: ffda6b
EndChar

StartChar: _.ein.medi
Encoding: 65562 -1 26
GlifName: _.ein.medi
Width: 628
VWidth: 1304
GlyphClass: 1
UnlinkRmOvrlpSave: 1
Flags: HMW
LayerCount: 2
Fore
SplineSet
-50 49 m 0
 -50 62.3333333333 -45 74.1666666667 -35 84.5 c 128
 -25 94.8333333333 -13.6666666667 100 -1 100 c 0
 106.333333333 100 213 123.666666667 319 171 c 0
 365 192.333333333 402.5 214.5 431.5 237.5 c 128
 460.5 260.5 475 279 475 293 c 0
 475 320.333333333 427.333333333 334 332 334 c 0
 250.666666667 334 196.333333333 326.333333333 169 311 c 1
 199 294.333333333 226.833333333 274.5 252.5 251.5 c 128
 278.166666667 228.5 299.166666667 209 315.5 193 c 128
 331.833333333 177 352.333333333 161.333333333 377 146 c 128
 401.666666667 130.666666667 434.333333333 119.166666667 475 111.5 c 128
 515.666666667 103.833333333 566.666666667 100 628 100 c 1
 628 -0 l 1
 560.666666667 0 501.166666667 8.33333333333 449.5 25 c 128
 397.833333333 41.6666666667 356.166666667 62.3333333333 324.5 87 c 128
 292.833333333 111.666666667 264 136.666666667 238 162 c 128
 212 187.333333333 183.833333333 210.666666667 153.5 232 c 128
 123.166666667 253.333333333 91 267 57 273 c 1
 73.6666666667 341 82.3333333333 378.333333333 83 385 c 1
 110.333333333 393.666666667 150 402.333333333 202 411 c 128
 254 419.666666667 303.666666667 424 351 424 c 0
 480.333333333 424 545 390 545 322 c 0
 545 319.333333333 544.333333333 314 543 306 c 0
 535.666666667 256 512 210.666666667 472 170 c 128
 432 129.333333333 384.166666667 97.1666666667 328.5 73.5 c 128
 272.833333333 49.8333333333 216.333333333 31.6666666667 159 19 c 128
 101.666666667 6.33333333333 48.3333333333 0 -1 0 c 0
 -13 0 -24.1666666667 5 -34.5 15 c 128
 -44.8333333333 25 -50 36.3333333333 -50 49 c 0
EndSplineSet
Colour: ffda6b
EndChar

StartChar: _.ein.init
Encoding: 65563 -1 27
GlifName: _.ein.init
Width: 574
VWidth: 1304
GlyphClass: 1
UnlinkRmOvrlpSave: 1
Flags: HMW
LayerCount: 2
Fore
SplineSet
-50 50 m 128
 -50 62.6666666667 -45 74.1666666667 -35 84.5 c 128
 -25 94.8333333333 -13.6666666667 100 -1 100 c 0
 44.3333333333 100 97 105.666666667 157 117 c 1
 116.333333333 170.333333333 96 223.333333333 96 276 c 0
 96 296 98.6666666667 315 104 333 c 0
 118 382.333333333 142.833333333 419 178.5 443 c 128
 214.166666667 467 255.333333333 479 302 479 c 0
 366.666666667 479 428 461 486 425 c 1
 462 356 l 1
 415.333333333 374 368.666666667 383 322 383 c 0
 279.333333333 383 243.5 375.833333333 214.5 361.5 c 128
 185.5 347.166666667 169.666666667 332.333333333 167 317 c 0
 166.333333333 314.333333333 166 310.666666667 166 306 c 0
 166 275.333333333 182.833333333 242.666666667 216.5 208 c 128
 250.166666667 173.333333333 285 154.333333333 321 151 c 1
 396.333333333 169 459.333333333 178.666666667 510 180 c 1
 489 100 l 1
 462.333333333 97.3333333333 420.166666667 87.5 362.5 70.5 c 128
 304.833333333 53.5 243.5 37.5 178.5 22.5 c 128
 113.5 7.5 54 0 0 0 c 0
 -12.6666666667 0.666666666667 -24.1666666667 6 -34.5 16 c 128
 -44.8333333333 26 -50 37.3333333333 -50 50 c 128
EndSplineSet
Colour: ffda6b
EndChar

StartChar: _.feh.isol
Encoding: 65564 -1 28
GlifName: _.feh.isol
Width: 932
VWidth: 1304
GlyphClass: 1
UnlinkRmOvrlpSave: 1
Flags: HMW
LayerCount: 2
Fore
SplineSet
64 221 m 0
 64 276.333333333 78 342.666666667 106 420 c 1
 164 405 l 1
 142.666666667 341 132 290.333333333 132 253 c 0
 132 202.333333333 153.5 164.333333333 196.5 139 c 128
 239.5 113.666666667 314 101 420 101 c 2
 425 101 l 2
 545.666666667 101 670 122 798 164 c 1
 798.666666667 167.333333333 799 172.666666667 799 180 c 0
 799 184 798.833333333 189.833333333 798.5 197.5 c 128
 798.166666667 205.166666667 798 210.333333333 798 213 c 1
 741.333333333 207.666666667 706.666666667 205 694 205 c 0
 649.333333333 205 614 214 588 232 c 128
 562 250 549 283.333333333 549 332 c 0
 549 400.666666667 564.166666667 458.833333333 594.5 506.5 c 128
 624.833333333 554.166666667 661 578 703 578 c 0
 753 578 793 547.333333333 823 486 c 128
 853 424.666666667 868 345 868 247 c 0
 868 209.666666667 867 181.333333333 865 162 c 0
 863.666666667 143.333333333 860.666666667 128 856 116 c 128
 851.333333333 104 843.666666667 94.1666666667 833 86.5 c 128
 822.333333333 78.8333333333 813.666666667 73.5 807 70.5 c 128
 800.333333333 67.5 787.58851066 63.2324632361 768.76553198 57.6973897082 c 0
 764.921843993 56.5657965694 762 55.6666666667 760 55 c 0
 714.666666667 39.6666666667 659.666666667 26.8333333333 595 16.5 c 128
 530.333333333 6.16666666667 473.333333333 0.666666666667 424 0 c 0
 381.333333333 0 343.833333333 1.5 311.5 4.5 c 128
 279.166666667 7.5 246.833333333 13.8333333333 214.5 23.5 c 128
 182.166666667 33.1666666667 155.5 45.8333333333 134.5 61.5 c 128
 113.5 77.1666666667 96.5 98.5 83.5 125.5 c 128
 70.5 152.5 64 184.333333333 64 221 c 0
608 368 m 0
 608 324.666666667 639.666666667 303 703 303 c 0
 727.666666667 303 755.666666667 306 787 312 c 1
 784.333333333 367.333333333 773.833333333 409.166666667 755.5 437.5 c 128
 737.166666667 465.833333333 716 480 692 480 c 0
 669.333333333 480 649.666666667 467.666666667 633 443 c 128
 616.333333333 418.333333333 608 393.333333333 608 368 c 0
EndSplineSet
Colour: ffda6b
EndChar

StartChar: _.feh.fina
Encoding: 65565 -1 29
GlifName: _.feh.fina
Width: 1010
VWidth: 1304
GlyphClass: 1
UnlinkRmOvrlpSave: 1
Flags: HMW
LayerCount: 2
Fore
SplineSet
732 451 m 0
 762 451 787.5 438.833333333 808.5 414.5 c 128
 829.5 390.166666667 844 364.666666667 852 338 c 128
 860 311.333333333 864.666666667 286 866 262 c 0
 864 179.333333333 823 112 743 60 c 1
 720 141 l 1
 768.666666667 165.666666667 801 196.666666667 817 234 c 1
 811.666666667 261.333333333 801 286.666666667 785 310 c 128
 769 333.333333333 748.666666667 346.333333333 724 349 c 1
 698 346.333333333 675.833333333 334.666666667 657.5 314 c 128
 639.166666667 293.333333333 627.333333333 270 622 244 c 1
 630.666666667 206 666.166666667 172.5 728.5 143.5 c 128
 790.833333333 114.5 861.333333333 100 940 100 c 2
 1010 100 l 1
 1010 -0 l 1
 940 -0 l 2
 863.333333333 0 794.333333333 15.6666666667 733 47 c 1
 627 17 524 1.33333333333 424 0 c 0
 381.333333333 0 343.833333333 1.5 311.5 4.5 c 128
 279.166666667 7.5 246.833333333 13.8333333333 214.5 23.5 c 128
 182.166666667 33.1666666667 155.5 45.8333333333 134.5 61.5 c 128
 113.5 77.1666666667 96.5 98.5 83.5 125.5 c 128
 70.5 152.5 64 184.333333333 64 221 c 0
 64 276.333333333 78 342.666666667 106 420 c 1
 164 405 l 1
 142.666666667 341 132 290.333333333 132 253 c 0
 132 202.333333333 153.5 164.333333333 196.5 139 c 128
 239.5 113.666666667 314 101 420 101 c 2
 425 101 l 2
 480.333333333 101 549.333333333 108 632 122 c 1
 603.333333333 153.333333333 586 182.666666667 580 210 c 0
 577.333333333 217.333333333 576 227.333333333 576 240 c 0
 576 266.666666667 581.666666667 295.833333333 593 327.5 c 128
 604.333333333 359.166666667 622.5 387.666666667 647.5 413 c 128
 672.5 438.333333333 700.666666667 451 732 451 c 0
EndSplineSet
Colour: ffda6b
EndChar

StartChar: _.feh.medi
Encoding: 65566 -1 30
GlifName: _.feh.medi
Width: 500
VWidth: 1304
GlyphClass: 1
UnlinkRmOvrlpSave: 1
Flags: HMW
LayerCount: 2
Fore
SplineSet
221 451 m 0
 251 451 276.666666667 438.833333333 298 414.5 c 128
 319.333333333 390.166666667 334 364.5 342 337.5 c 128
 350 310.5 354.333333333 285.333333333 355 262 c 0
 354.333333333 212 338.166666667 166.833333333 306.5 126.5 c 128
 274.833333333 86.1666666667 232 55 178 33 c 128
 124 11 64.6666666667 0 0 0 c 0
 -13.3333333333 0 -25 5 -35 15 c 128
 -45 25 -50 36.6666666667 -50 50 c 0
 -50 62.6666666667 -45 74.1666666667 -35 84.5 c 128
 -25 94.8333333333 -13.6666666667 100 -1 100 c 0
 73.6666666667 100 139.166666667 111.833333333 195.5 135.5 c 128
 251.833333333 159.166666667 289 192 307 234 c 1
 300.333333333 262 289.5 287.5 274.5 310.5 c 128
 259.5 333.5 239.666666667 346.333333333 215 349 c 1
 189 346.333333333 166.5 334.5 147.5 313.5 c 128
 128.5 292.5 116.666666667 269.333333333 112 244 c 1
 120.666666667 206 156.166666667 172.5 218.5 143.5 c 128
 280.833333333 114.5 351.333333333 100 430 100 c 2
 500 100 l 1
 500 -0 l 1
 430 -0 l 2
 378.666666667 0 330.5 7.16666666667 285.5 21.5 c 128
 240.5 35.8333333333 203.666666667 53.8333333333 175 75.5 c 128
 146.333333333 97.1666666667 123 119.666666667 105 143 c 128
 87 166.333333333 75.6666666667 188.666666667 71 210 c 0
 68.3333333333 217.333333333 67 227.333333333 67 240 c 0
 67 266.666666667 72.6666666667 295.833333333 84 327.5 c 128
 95.3333333333 359.166666667 113.333333333 387.666666667 138 413 c 128
 162.666666667 438.333333333 190.333333333 451 221 451 c 0
EndSplineSet
Colour: ffda6b
EndChar

StartChar: _.feh.init
Encoding: 65567 -1 31
GlifName: _.feh.init
Width: 413
VWidth: 1304
GlyphClass: 1
UnlinkRmOvrlpSave: 1
Flags: HMW
LayerCount: 2
Fore
SplineSet
-50 48 m 0
 -50 61.3333333333 -45.1666666667 73.3333333333 -35.5 84 c 128
 -25.8333333333 94.6666666667 -14.6666666667 100 -2 100 c 2
 115 100 l 2
 181 100 230.333333333 111.333333333 263 134 c 0
 274.333333333 144 280 159.333333333 280 180 c 0
 280 184 279.833333333 189.666666667 279.5 197 c 128
 279.166666667 204.333333333 279 209.666666667 279 213 c 1
 222.333333333 207.666666667 187.666666667 205 175 205 c 0
 130.333333333 205 95 214 69 232 c 128
 43 250 30 283.333333333 30 332 c 0
 30 400.666666667 45.1666666667 458.833333333 75.5 506.5 c 128
 105.833333333 554.166666667 142 578 184 578 c 0
 234 578 274 547.333333333 304 486 c 128
 334 424.666666667 349 345 349 247 c 0
 349 216.333333333 347.666666667 188 345 162 c 0
 341 110 322 70 288 42 c 128
 254 14 195 0 111 0 c 2
 -2 -0 l 2
 -14 0.666666666667 -25 5.83333333333 -35 15.5 c 128
 -45 25.1666666667 -50 36 -50 48 c 0
89 368 m 0
 89 324.666666667 120.666666667 303 184 303 c 0
 208.666666667 303 236.666666667 306 268 312 c 1
 265.333333333 367.333333333 254.833333333 409.166666667 236.5 437.5 c 128
 218.166666667 465.833333333 197 480 173 480 c 0
 150.333333333 480 130.666666667 467.666666667 114 443 c 128
 97.3333333333 418.333333333 89 393.333333333 89 368 c 0
EndSplineSet
Colour: ffda6b
EndChar

StartChar: _.qaf.isol
Encoding: 65568 -1 32
GlifName: _.qaf.isol
Width: 753
VWidth: 1304
GlyphClass: 1
UnlinkRmOvrlpSave: 1
Flags: HMW
LayerCount: 2
Fore
SplineSet
64 -52 m 0
 64 30 87.6666666667 127.333333333 135 240 c 1
 186 219 l 1
 151.333333333 121.666666667 134 40.6666666667 134 -24 c 0
 134 -141.333333333 194.666666667 -200 316 -200 c 0
 366.666666667 -200 418.333333333 -190.666666667 471 -172 c 128
 523.666666667 -153.333333333 565.333333333 -132.666666667 596 -110 c 0
 610.666666667 -98 618 -64.3333333333 618 -9 c 2
 618 13 l 1
 575.333333333 7.66666666667 540 5 512 5 c 0
 468 5 433.166666667 14.1666666667 407.5 32.5 c 128
 381.833333333 50.8333333333 369 84.3333333333 369 133 c 0
 369 201.666666667 384.166666667 259.833333333 414.5 307.5 c 128
 444.833333333 355.166666667 481 379 523 379 c 0
 572.333333333 379 612.333333333 345.666666667 643 279 c 128
 673.666666667 212.333333333 689 128.666666667 689 28 c 0
 689 4 688 -21 686 -47 c 0
 684.666666667 -91.6666666667 664.833333333 -134 626.5 -174 c 128
 588.166666667 -214 540.833333333 -245.166666667 484.5 -267.5 c 128
 428.166666667 -289.833333333 371.666666667 -301 315 -301 c 0
 242.333333333 -301 182.333333333 -280.666666667 135 -240 c 128
 87.6666666667 -199.333333333 64 -136.666666667 64 -52 c 0
428 168 m 0
 428 124 460 102 524 102 c 0
 544 102 571.666666667 105.333333333 607 112 c 1
 604.333333333 167.333333333 593.833333333 209.166666667 575.5 237.5 c 128
 557.166666667 265.833333333 536 280 512 280 c 0
 489.333333333 279.333333333 469.666666667 266.666666667 453 242 c 128
 436.333333333 217.333333333 428 192.666666667 428 168 c 0
EndSplineSet
Colour: ffda6b
EndChar

StartChar: _.qaf.fina
Encoding: 65569 -1 33
GlifName: _.qaf.fina
Width: 815
VWidth: 1304
GlyphClass: 1
UnlinkRmOvrlpSave: 1
Flags: HMW
LayerCount: 2
Fore
SplineSet
64 -52 m 0
 64 30 87.6666666667 127.333333333 135 240 c 1
 186 219 l 1
 151.333333333 121.666666667 134 40.6666666667 134 -24 c 0
 134 -141.333333333 194.666666667 -200 316 -200 c 0
 369.333333333 -200 423.833333333 -189.666666667 479.5 -169 c 128
 535.166666667 -148.333333333 577.333333333 -126.666666667 606 -104 c 1
 614 -87.3333333333 618 -57 618 -13 c 2
 618 -0 l 1
 524 -0 l 1
 512 -0 l 2
 468.666666667 0 434 9.16666666667 408 27.5 c 128
 382 45.8333333333 369 79.3333333333 369 128 c 0
 369 196.666666667 384.166666667 254.833333333 414.5 302.5 c 128
 444.833333333 350.166666667 481 374 523 374 c 0
 565.666666667 374 601.333333333 348.666666667 630 298 c 128
 658.666666667 247.333333333 676.666666667 181.333333333 684 100 c 1
 815 100 l 1
 815 -0 l 1
 688 -0 l 1
 686.666666667 -26.6666666667 685.333333333 -47.3333333333 684 -62 c 2
 684 -63 l 1
 678 -105.666666667 655.833333333 -145.666666667 617.5 -183 c 128
 579.166666667 -220.333333333 532.833333333 -249.333333333 478.5 -270 c 128
 424.166666667 -290.666666667 369.666666667 -301 315 -301 c 0
 242.333333333 -301 182.333333333 -280.666666667 135 -240 c 128
 87.6666666667 -199.333333333 64 -136.666666667 64 -52 c 0
428 163 m 0
 428 122.333333333 457 101.333333333 515 100 c 2
 607 100 l 1
 607 111 l 1
 603.666666667 165.666666667 592.833333333 206.833333333 574.5 234.5 c 128
 556.166666667 262.166666667 535.333333333 276 512 276 c 0
 489.333333333 275.333333333 469.666666667 262.5 453 237.5 c 128
 436.333333333 212.5 428 187.666666667 428 163 c 0
EndSplineSet
Colour: ffda6b
EndChar

StartChar: _.kaf.isol.fa
Encoding: 65570 -1 34
GlifName: _.kaf.isol.fa
Width: 1107
VWidth: 1304
GlyphClass: 1
UnlinkRmOvrlpSave: 1
Flags: HMW
LayerCount: 2
Fore
SplineSet
64 221 m 0
 64 276.333333333 78 342.666666667 106 420 c 1
 164 405 l 1
 142.666666667 341 132 290.333333333 132 253 c 0
 132 202.333333333 153.5 164.333333333 196.5 139 c 128
 239.5 113.666666667 314 101 420 101 c 2
 425 101 l 2
 481.666666667 101 545.333333333 107 616 119 c 128
 686.666666667 131 750.333333333 146.666666667 807 166 c 1
 807 177 l 2
 807 212.333333333 788.666666667 259.333333333 752 318 c 128
 715.333333333 376.666666667 655.666666667 437.333333333 573 500 c 1
 610 620 l 1
 1043 800 l 1
 1037 692 l 1
 672 548 l 1
 738.666666667 492 788.333333333 434 821 374 c 128
 853.666666667 314 870 257.333333333 870 204 c 0
 870 162.666666667 862.333333333 129.333333333 847 104 c 0
 844 100 844 100 841 96 c 128
 839 93.3333333333 837 91 835 89 c 128
 833 87 830.5 84.8333333333 827.5 82.5 c 128
 824.5 80.1666666667 822 78.3333333333 820 77 c 128
 818 75.6666666667 815 74.1666666667 811 72.5 c 128
 807 70.8333333333 804.166666667 69.6666666667 802.5 69 c 128
 800.833333333 68.3333333333 797.5 67.1666666667 792.5 65.5 c 128
 787.5 63.8333333333 784.166666667 62.6666666667 782.5 62 c 128
 780.833333333 61.3333333333 777 60.1666666667 771 58.5 c 128
 765 56.8333333333 761.333333333 55.6666666667 760 55 c 0
 714.666666667 39.6666666667 659.666666667 26.8333333333 595 16.5 c 128
 530.333333333 6.16666666667 473.333333333 0.666666666667 424 0 c 0
 381.333333333 0 343.833333333 1.5 311.5 4.5 c 128
 279.166666667 7.5 246.833333333 13.8333333333 214.5 23.5 c 128
 182.166666667 33.1666666667 155.5 45.8333333333 134.5 61.5 c 128
 113.5 77.1666666667 96.5 98.5 83.5 125.5 c 128
 70.5 152.5 64 184.333333333 64 221 c 0
EndSplineSet
Colour: ffda6b
EndChar

StartChar: _.kaf.isol.ar
Encoding: 65571 -1 35
GlifName: _.kaf.isol.ar
Width: 927
VWidth: 1304
GlyphClass: 1
UnlinkRmOvrlpSave: 1
Flags: HMW
LayerCount: 2
Fore
SplineSet
64 231 m 0
 64 280.333333333 78.3333333333 336.666666667 107 400 c 1
 155 379 l 1
 136.333333333 339 127 303 127 271 c 0
 127 239.666666667 135.833333333 212.333333333 153.5 189 c 128
 171.166666667 165.666666667 195.5 147.333333333 226.5 134 c 128
 257.5 120.666666667 291.666666667 111 329 105 c 128
 366.333333333 99 407.333333333 96 452 96 c 0
 572.666666667 96 684.333333333 112.666666667 787 146 c 0
 789.666666667 146.666666667 793 148.333333333 797 151 c 1
 773 700 l 1
 853 720 l 1
 863 181 l 2
 863 163 860.333333333 143.166666667 855 121.5 c 128
 849.666666667 99.8333333333 842 84 832 74 c 0
 813.333333333 55.3333333333 765.666666667 37.5 689 20.5 c 128
 612.333333333 3.5 533 -5 451 -5 c 0
 399.666666667 -5 352.166666667 -1.16666666667 308.5 6.5 c 128
 264.833333333 14.1666666667 224 26.6666666667 186 44 c 128
 148 61.3333333333 118.166666667 86 96.5 118 c 128
 74.8333333333 150 64 187.666666667 64 231 c 0
EndSplineSet
Colour: ffda6b
EndChar

StartChar: _.kaf.fina.fa
Encoding: 65572 -1 36
GlifName: _.kaf.fina.fa
Width: 1091
VWidth: 1304
GlyphClass: 1
UnlinkRmOvrlpSave: 1
Flags: HMW
LayerCount: 2
Fore
SplineSet
64 221 m 0
 64 276.333333333 78 342.666666667 106 420 c 1
 164 405 l 1
 142.666666667 341 132 290.333333333 132 253 c 0
 132 202.333333333 153.5 164.333333333 196.5 139 c 128
 239.5 113.666666667 314 101 420 101 c 2
 425 101 l 2
 481.666666667 101 545.333333333 107 616 119 c 128
 686.666666667 131 750.333333333 146.666666667 807 166 c 1
 807 177 l 2
 807 212.333333333 788.666666667 259.333333333 752 318 c 128
 715.333333333 376.666666667 655.666666667 437.333333333 573 500 c 1
 610 620 l 1
 1043 800 l 1
 1037 692 l 1
 672 548 l 1
 731.333333333 498.666666667 778.666666667 444.333333333 814 385 c 0
 828.666666667 365 843.333333333 340.166666667 858 310.5 c 128
 872.666666667 280.833333333 885.333333333 254.833333333 896 232.5 c 128
 906.666666667 210.166666667 920 188.333333333 936 167 c 128
 952 145.666666667 972.833333333 129.166666667 998.5 117.5 c 128
 1024.16666667 105.833333333 1055 100 1091 100 c 1
 1091 -0 l 1
 1027 0 977.833333333 10.1666666667 943.5 30.5 c 128
 909.166666667 50.8333333333 880 81.6666666667 856 123 c 1
 851.333333333 109 843.666666667 97.5 833 88.5 c 128
 822.333333333 79.5 812.833333333 73.3333333333 804.5 70 c 128
 796.166666667 66.6666666667 781.333333333 61.6666666667 760 55 c 0
 714.666666667 39.6666666667 659.666666667 26.8333333333 595 16.5 c 128
 530.333333333 6.16666666667 473.333333333 0.666666666667 424 0 c 0
 381.333333333 0 343.833333333 1.5 311.5 4.5 c 128
 279.166666667 7.5 246.833333333 13.8333333333 214.5 23.5 c 128
 182.166666667 33.1666666667 155.5 45.8333333333 134.5 61.5 c 128
 113.5 77.1666666667 96.5 98.5 83.5 125.5 c 128
 70.5 152.5 64 184.333333333 64 221 c 0
EndSplineSet
Colour: ffda6b
EndChar

StartChar: _.kaf.fina.ar
Encoding: 65573 -1 37
GlifName: _.kaf.fina.ar
Width: 1058
VWidth: 1304
GlyphClass: 1
UnlinkRmOvrlpSave: 1
Flags: HMW
LayerCount: 2
Fore
SplineSet
64 221 m 0
 64 276.333333333 78 342.666666667 106 420 c 1
 164 405 l 1
 142.666666667 341 132 290.333333333 132 253 c 0
 132 202.333333333 153.5 164.333333333 196.5 139 c 128
 239.5 113.666666667 314 101 420 101 c 2
 425 101 l 2
 480.333333333 101 542.666666667 107 612 119 c 128
 681.333333333 131 744.666666667 146.333333333 802 165 c 1
 777 700 l 1
 857 720 l 1
 867 240 l 1
 887 194.666666667 911.5 160.166666667 940.5 136.5 c 128
 969.5 112.833333333 1008.66666667 100.666666667 1058 100 c 1
 1058 -0 l 1
 1004 0 960.5 7.66666666667 927.5 23 c 128
 894.5 38.3333333333 866 63.3333333333 842 98 c 1
 834.666666667 87.3333333333 825.333333333 79.3333333333 814 74 c 128
 802.666666667 68.6666666667 787.143769737 63.0851995604 767.431309211 57.2555986813 c 0
 764.47710307 56.4185328938 762 55.6666666667 760 55 c 0
 714.666666667 39.6666666667 659.666666667 26.8333333333 595 16.5 c 128
 530.333333333 6.16666666667 473.333333333 0.666666666667 424 0 c 0
 381.333333333 0 343.833333333 1.5 311.5 4.5 c 128
 279.166666667 7.5 246.833333333 13.8333333333 214.5 23.5 c 128
 182.166666667 33.1666666667 155.5 45.8333333333 134.5 61.5 c 128
 113.5 77.1666666667 96.5 98.5 83.5 125.5 c 128
 70.5 152.5 64 184.333333333 64 221 c 0
EndSplineSet
Colour: ffda6b
EndChar

StartChar: _.kaf.medi
Encoding: 65574 -1 38
GlifName: _.kaf.medi
Width: 518
VWidth: 1304
GlyphClass: 1
UnlinkRmOvrlpSave: 1
Flags: HMW
LayerCount: 2
Fore
SplineSet
60 100 m 2
 91.3333333333 100 119.166666667 102.166666667 143.5 106.5 c 128
 167.833333333 110.833333333 189 118.833333333 207 130.5 c 128
 225 142.166666667 234 157.333333333 234 176 c 0
 234 210.666666667 215.666666667 257.5 179 316.5 c 128
 142.333333333 375.5 82.3333333333 436.666666667 -1 500 c 1
 36 620 l 1
 470 800 l 1
 463 692 l 1
 99 548 l 1
 158.333333333 496.666666667 204.333333333 444.333333333 237 391 c 1
 253 371 268.333333333 345.833333333 283 315.5 c 128
 297.666666667 285.166666667 310.333333333 258.666666667 321 236 c 128
 331.666666667 213.333333333 345 191 361 169 c 128
 377 147 398 130 424 118 c 128
 450 106 481.333333333 100 518 100 c 1
 518 -0 l 1
 454 0 404.833333333 10.1666666667 370.5 30.5 c 128
 336.166666667 50.8333333333 307.333333333 81.3333333333 284 122 c 1
 282.666666667 119.333333333 281 115.666666667 279 111 c 128
 277 106.333333333 275.333333333 102.666666667 274 100 c 0
 239.333333333 33.3333333333 168.333333333 0 61 0 c 2
 -1 -0 l 2
 -13 0 -24.1666666667 5 -34.5 15 c 128
 -44.8333333333 25 -50 36.3333333333 -50 49 c 0
 -50 62.3333333333 -45 74.1666666667 -35 84.5 c 128
 -25 94.8333333333 -13.6666666667 100 -1 100 c 2
 60 100 l 2
EndSplineSet
Colour: ffda6b
EndChar

StartChar: _.kaf.init
Encoding: 65575 -1 39
GlifName: _.kaf.init
Width: 531
VWidth: 1304
GlyphClass: 1
UnlinkRmOvrlpSave: 1
Flags: HMW
LayerCount: 2
Fore
SplineSet
60 100 m 2
 91.3333333333 100 119.166666667 102.166666667 143.5 106.5 c 128
 167.833333333 110.833333333 189 118.833333333 207 130.5 c 128
 225 142.166666667 234 157.333333333 234 176 c 0
 234 211.333333333 215.666666667 258.333333333 179 317 c 128
 142.333333333 375.666666667 82.6666666667 436.333333333 0 499 c 1
 34 620 l 1
 467 800 l 1
 460 692 l 1
 98 549 l 1
 164.666666667 493 214.333333333 434.333333333 247 373 c 128
 279.666666667 311.666666667 296 253.666666667 296 199 c 0
 296 160.333333333 288.666666667 127.333333333 274 100 c 0
 239.333333333 33.3333333333 168.333333333 0 61 0 c 2
 -1 -0 l 2
 -13 0 -24.1666666667 5 -34.5 15 c 128
 -44.8333333333 25 -50 36.3333333333 -50 49 c 0
 -50 62.3333333333 -45 74.1666666667 -35 84.5 c 128
 -25 94.8333333333 -13.6666666667 100 -1 100 c 2
 60 100 l 2
EndSplineSet
Colour: ffda6b
EndChar

StartChar: _.ghaf.isol
Encoding: 65577 -1 41
GlifName: _.ghaf.isol
Width: 1107
VWidth: 0
GlyphClass: 1
UnlinkRmOvrlpSave: 1
Flags: HMW
LayerCount: 2
Fore
SplineSet
64 221 m 0
 64 276.333333333 78 342.666666667 106 420 c 1
 164 405 l 1
 142.666666667 341 132 290.333333333 132 253 c 0
 132 202.333333333 153.5 164.333333333 196.5 139 c 128
 239.5 113.666666667 314 101 420 101 c 2
 425 101 l 2
 481.666666667 101 545.333333333 107 616 119 c 128
 686.666666667 131 750.333333333 146.666666667 807 166 c 1
 807 177 l 2
 807 212.333333333 788.666666667 259.333333333 752 318 c 128
 715.333333333 376.666666667 655.666666667 437.333333333 573 500 c 1
 610 620 l 1
 1043 800 l 1
 1037 692 l 1
 672 548 l 1
 738.666666667 492 788.333333333 434 821 374 c 128
 853.666666667 314 870 257.333333333 870 204 c 0
 870 162.666666667 862.333333333 129.333333333 847 104 c 0
 844 100 844 100 841 96 c 128
 839 93.3333333333 837 91 835 89 c 128
 833 87 830.5 84.8333333333 827.5 82.5 c 128
 824.5 80.1666666667 822 78.3333333333 820 77 c 128
 818 75.6666666667 815 74.1666666667 811 72.5 c 128
 807 70.8333333333 804.166666667 69.6666666667 802.5 69 c 128
 800.833333333 68.3333333333 797.5 67.1666666667 792.5 65.5 c 128
 787.5 63.8333333333 784.166666667 62.6666666667 782.5 62 c 128
 780.833333333 61.3333333333 777 60.1666666667 771 58.5 c 128
 765 56.8333333333 761.333333333 55.6666666667 760 55 c 0
 714.666666667 39.6666666667 659.666666667 26.8333333333 595 16.5 c 128
 530.333333333 6.16666666667 473.333333333 0.666666666667 424 0 c 0
 381.333333333 0 343.833333333 1.5 311.5 4.5 c 128
 279.166666667 7.5 246.833333333 13.8333333333 214.5 23.5 c 128
 182.166666667 33.1666666667 155.5 45.8333333333 134.5 61.5 c 128
 113.5 77.1666666667 96.5 98.5 83.5 125.5 c 128
 70.5 152.5 64 184.333333333 64 221 c 0
663 682 m 1
 679 740 l 1
 988 868 l 1
 975 814 l 1
 663 682 l 1
EndSplineSet
Colour: ffda6b
EndChar

StartChar: _.ghaf.fina
Encoding: 65578 -1 42
GlifName: _.ghaf.fina
Width: 1091
VWidth: 0
GlyphClass: 1
Flags: HMW
LayerCount: 2
Fore
SplineSet
64 221 m 0
 64 276.333333333 78 342.666666667 106 420 c 1
 164 405 l 1
 142.666666667 341 132 290.333333333 132 253 c 0
 132 202.333333333 153.5 164.333333333 196.5 139 c 128
 239.5 113.666666667 314 101 420 101 c 2
 425 101 l 2
 481.666666667 101 545.333333333 107 616 119 c 128
 686.666666667 131 750.333333333 146.666666667 807 166 c 1
 807 177 l 2
 807 212.333333333 788.666666667 259.333333333 752 318 c 128
 715.333333333 376.666666667 655.666666667 437.333333333 573 500 c 1
 610 620 l 1
 1043 800 l 1
 1037 692 l 1
 672 548 l 1
 731.333333333 498.666666667 778.666666667 444.333333333 814 385 c 0
 828.666666667 365 843.333333333 340.166666667 858 310.5 c 128
 872.666666667 280.833333333 885.333333333 254.833333333 896 232.5 c 128
 906.666666667 210.166666667 920 188.333333333 936 167 c 128
 952 145.666666667 972.833333333 129.166666667 998.5 117.5 c 128
 1024.16666667 105.833333333 1055 100 1091 100 c 1
 1091 -0 l 1
 1027 0 977.833333333 10.1666666667 943.5 30.5 c 128
 909.166666667 50.8333333333 880 81.6666666667 856 123 c 1
 851.333333333 109 843.666666667 97.5 833 88.5 c 128
 822.333333333 79.5 812.833333333 73.3333333333 804.5 70 c 128
 796.166666667 66.6666666667 781.333333333 61.6666666667 760 55 c 0
 714.666666667 39.6666666667 659.666666667 26.8333333333 595 16.5 c 128
 530.333333333 6.16666666667 473.333333333 0.666666666667 424 0 c 0
 381.333333333 0 343.833333333 1.5 311.5 4.5 c 128
 279.166666667 7.5 246.833333333 13.8333333333 214.5 23.5 c 128
 182.166666667 33.1666666667 155.5 45.8333333333 134.5 61.5 c 128
 113.5 77.1666666667 96.5 98.5 83.5 125.5 c 128
 70.5 152.5 64 184.333333333 64 221 c 0
663 682 m 1
 679 740 l 1
 988 868 l 1
 975 814 l 1
 663 682 l 1
EndSplineSet
Validated: 1
Colour: ffda6b
EndChar

StartChar: _.lam.isol
Encoding: 65580 -1 44
GlifName: _.lam.isol
Width: 749
VWidth: 1304
GlyphClass: 1
UnlinkRmOvrlpSave: 1
Flags: HMW
LayerCount: 2
Fore
SplineSet
64 49 m 0
 64 130.333333333 87.6666666667 227.333333333 135 340 c 1
 185 319 l 1
 150.333333333 221.666666667 133 140.666666667 133 76 c 0
 133 -41.3333333333 194.333333333 -100 317 -100 c 0
 375 -100 435 -87.3333333333 497 -62 c 128
 559 -36.6666666667 599.666666667 -12.6666666667 619 10 c 1
 596 700 l 1
 596 718 l 2
 596 735.333333333 600.333333333 748.666666667 609 758 c 128
 617.666666667 767.333333333 639 781.333333333 673 800 c 1
 681 800 685 796.333333333 685 789 c 2
 685 48 l 1
 681.666666667 3.33333333333 661 -38.3333333333 623 -77 c 128
 585 -115.666666667 538.166666667 -146 482.5 -168 c 128
 426.833333333 -190 371 -201 315 -201 c 0
 242.333333333 -200.333333333 182.333333333 -179.666666667 135 -139 c 128
 87.6666666667 -98.3333333333 64 -35.6666666667 64 49 c 0
EndSplineSet
Colour: ffda6b
EndChar

StartChar: _.lam.fina
Encoding: 65581 -1 45
GlifName: _.lam.fina
Width: 854
VWidth: 1304
GlyphClass: 1
UnlinkRmOvrlpSave: 1
Flags: HMW
LayerCount: 2
Fore
SplineSet
64 -51 m 0
 64 30.3333333333 87.6666666667 127.333333333 135 240 c 1
 185 219 l 1
 150.333333333 121.666666667 133 41 133 -23 c 0
 133 -141 194.333333333 -200 317 -200 c 0
 375.666666667 -200 435.833333333 -187.333333333 497.5 -162 c 128
 559.166666667 -136.666666667 599.666666667 -112.666666667 619 -90 c 1
 596 700 l 1
 596 718 l 2
 596 735.333333333 600.333333333 748.666666667 609 758 c 128
 617.666666667 767.333333333 639 781.333333333 673 800 c 1
 681 800 685 796.333333333 685 789 c 2
 685 151 l 1
 706.333333333 131.666666667 729.166666667 118.333333333 753.5 111 c 128
 777.833333333 103.666666667 811.333333333 100 854 100 c 1
 854 -0 l 1
 780 0 723.666666667 14 685 42 c 1
 685 -49 l 2
 683 -93.6666666667 663 -135.666666667 625 -175 c 128
 587 -214.333333333 540 -245.166666667 484 -267.5 c 128
 428 -289.833333333 371.666666667 -301 315 -301 c 0
 242.333333333 -301 182.333333333 -280.5 135 -239.5 c 128
 87.6666666667 -198.5 64 -135.666666667 64 -51 c 0
EndSplineSet
Colour: ffda6b
EndChar

StartChar: _.lam.medi
Encoding: 65582 -1 46
GlifName: _.lam.medi
Width: 391
VWidth: 1304
GlyphClass: 1
UnlinkRmOvrlpSave: 1
Flags: HMW
LayerCount: 2
Fore
SplineSet
-50 50 m 0
 -49.3333333333 62.6666666667 -44.1666666667 74.1666666667 -34.5 84.5 c 128
 -24.8333333333 94.8333333333 -13.6666666667 100 -1 100 c 2
 4 100 l 2
 77.3333333333 100 129 113.333333333 159 140 c 1
 167 146 l 1
 147 700 l 1
 147 718 l 2
 147 735.333333333 151.166666667 748.666666667 159.5 758 c 128
 167.833333333 767.333333333 189 781.333333333 223 800 c 1
 231.666666667 800 236 796.333333333 236 789 c 2
 236 140 l 1
 268.666666667 113.333333333 320.333333333 100 391 100 c 1
 391 -0 l 1
 300.333333333 0 236.333333333 21 199 63 c 1
 163 21 96.3333333333 0 -1 0 c 0
 -13.6666666667 0.666666666667 -25 6 -35 16 c 128
 -45 26 -50 37.3333333333 -50 50 c 0
EndSplineSet
Colour: ffda6b
EndChar

StartChar: _.lam.init
Encoding: 65583 -1 47
GlifName: _.lam.init
Width: 298
VWidth: 1304
GlyphClass: 1
UnlinkRmOvrlpSave: 1
Flags: HMW
LayerCount: 2
Fore
SplineSet
-50 50 m 0
 -49.3333333333 62.6666666667 -44 74 -34 84 c 128
 -24 94 -13.3333333333 99.3333333333 -2 100 c 2
 3 100 l 2
 76.3333333333 100 128 113.333333333 158 140 c 2
 169 150 l 1
 129 699 l 2
 129 702.333333333 128.833333333 706.333333333 128.5 711 c 128
 128.166666667 715.666666667 128 719 128 721 c 0
 128 736.333333333 132.166666667 748.5 140.5 757.5 c 128
 148.833333333 766.5 169 781 201 801 c 1
 209 801 213 797.333333333 213 790 c 2
 234 196 l 2
 234 172.666666667 232.333333333 152.166666667 229 134.5 c 128
 225.666666667 116.833333333 219 99.1666666667 209 81.5 c 128
 199 63.8333333333 185.666666667 49.3333333333 169 38 c 128
 152.333333333 26.6666666667 129.833333333 17.5 101.5 10.5 c 128
 73.1666666667 3.5 39.3333333333 0 0 0 c 0
 -12.6666666667 0.666666666667 -24.1666666667 6 -34.5 16 c 128
 -44.8333333333 26 -50 37.3333333333 -50 50 c 0
EndSplineSet
Colour: ffda6b
EndChar

StartChar: _.mim.isol
Encoding: 65584 -1 48
GlifName: _.mim.isol
Width: 607
VWidth: 1304
GlyphClass: 1
UnlinkRmOvrlpSave: 1
Flags: HMW
LayerCount: 2
Fore
SplineSet
64 27 m 1
 64.6666666667 135 120 201.333333333 230 226 c 1
 208 242 l 1
 277 411 l 2
 289 441.666666667 307.333333333 457 332 457 c 0
 389.333333333 457 438.833333333 432.666666667 480.5 384 c 128
 522.166666667 335.333333333 543 282 543 224 c 0
 543 214 542.666666667 206.666666667 542 202 c 2
 518 100 l 1
 464.666666667 113.333333333 397.333333333 120 316 120 c 0
 236.666666667 120 177.666666667 111.666666667 139 95 c 1
 158 -393 l 1
 96 -399 l 1
 64 27 l 1
270 232 m 1
 287 234 304 235 321 235 c 0
 375 235 429.333333333 228.666666667 484 216 c 1
 464.666666667 250.666666667 441 278.333333333 413 299 c 128
 385 319.666666667 357.666666667 330.666666667 331 332 c 0
 325.666666667 332 319.666666667 329.333333333 313 324 c 128
 306.333333333 318.666666667 301.666666667 312 299 304 c 2
 270 232 l 1
EndSplineSet
Colour: ffda6b
EndChar

StartChar: _.mim.fina
Encoding: 65585 -1 49
GlifName: _.mim.fina
Width: 698
VWidth: 1304
GlyphClass: 1
UnlinkRmOvrlpSave: 1
Flags: HMW
LayerCount: 2
Fore
SplineSet
64 74 m 1
 63.3333333333 114.666666667 70 150.166666667 84 180.5 c 128
 98 210.833333333 116.166666667 235.166666667 138.5 253.5 c 128
 160.833333333 271.833333333 189 286.666666667 223 298 c 128
 257 309.333333333 291.166666667 317.333333333 325.5 322 c 128
 359.833333333 326.666666667 398.666666667 329.333333333 442 330 c 1
 476 352 l 1
 496 248 l 1
 512.666666667 187.333333333 531.666666667 147.5 553 128.5 c 128
 574.333333333 109.5 608.666666667 100 656 100 c 2
 694 100 l 1
 698 2 l 1
 656 2 l 2
 585.333333333 2 530.666666667 19.3333333333 492 54 c 1
 470.666666667 21.3333333333 445.833333333 -3.33333333333 417.5 -20 c 128
 389.166666667 -36.6666666667 360.666666667 -45 332 -45 c 0
 295.333333333 -45 264.833333333 -31.6666666667 240.5 -5 c 128
 216.166666667 21.6666666667 204 59 204 107 c 0
 204 133.666666667 207.666666667 160.666666667 215 188 c 1
 184.333333333 176 159 160.333333333 139 141 c 1
 156 -376 l 1
 96 -382 l 1
 64 74 l 1
280 141 m 0
 280 114.333333333 286 94.3333333333 298 81 c 128
 310 67.6666666667 326 61 346 61 c 0
 380 61 415 77.3333333333 451 110 c 1
 422 230 l 1
 378.666666667 228.666666667 335.333333333 223 292 213 c 1
 284 185 280 161 280 141 c 0
EndSplineSet
Colour: ffda6b
EndChar

StartChar: _.mim.medi
Encoding: 65586 -1 50
GlifName: _.mim.medi
Width: 692
VWidth: 1304
GlyphClass: 1
UnlinkRmOvrlpSave: 1
Flags: HMW
LayerCount: 2
Fore
SplineSet
692 -0 m 1
 611.333333333 0 547.333333333 18.3333333333 500 55 c 1
 466.666666667 -13 424.333333333 -47 373 -47 c 0
 325 -47 256.333333333 -10.3333333333 167 63 c 1
 121 21 65 0 -1 0 c 0
 -13 0.666666666667 -24.1666666667 6 -34.5 16 c 128
 -44.8333333333 26 -50 37 -50 49 c 0
 -50 62.3333333333 -45.1666666667 74 -35.5 84 c 128
 -25.8333333333 94 -14.6666666667 99.3333333333 -2 100 c 0
 27.3333333333 100 53.5 102.666666667 76.5 108 c 128
 99.5 113.333333333 118 119.666666667 132 127 c 128
 146 134.333333333 159.333333333 145 172 159 c 128
 184.666666667 173 194.5 185.5 201.5 196.5 c 128
 208.5 207.5 217.666666667 222.666666667 229 242 c 128
 240.333333333 261.333333333 250.333333333 277 259 289 c 0
 279.666666667 319 300.666666667 334 322 334 c 0
 338.666666667 334 357.833333333 324.5 379.5 305.5 c 128
 401.166666667 286.5 421.333333333 264.833333333 440 240.5 c 128
 458.666666667 216.166666667 481.833333333 191 509.5 165 c 128
 537.166666667 139 564 121 590 111 c 1
 618 103.666666667 652 100 692 100 c 1
 692 -0 l 1
228 143 m 1
 229.333333333 141.666666667 233.833333333 138 241.5 132 c 128
 249.166666667 126 254.166666667 122 256.5 120 c 128
 258.833333333 118 263.666666667 114.166666667 271 108.5 c 128
 278.333333333 102.833333333 283.666666667 98.8333333333 287 96.5 c 128
 290.333333333 94.1666666667 295.5 90.5 302.5 85.5 c 128
 309.5 80.5 315 77 319 75 c 128
 323 73 328.166666667 70.5 334.5 67.5 c 128
 340.833333333 64.5 346.5 62.1666666667 351.5 60.5 c 128
 356.5 58.8333333333 361.666666667 57.5 367 56.5 c 128
 372.333333333 55.5 377.666666667 55 383 55 c 0
 411 55 433.666666667 70 451 100 c 1
 441 110 428 124 412 142 c 128
 396 160 383.5 173.833333333 374.5 183.5 c 128
 365.5 193.166666667 355 202 343 210 c 128
 331 218 320 222 310 222 c 0
 301.333333333 222 293.333333333 219.666666667 286 215 c 0
 273.333333333 206.333333333 254 182.333333333 228 143 c 1
EndSplineSet
Colour: ffda6b
EndChar

StartChar: _.mim.init
Encoding: 65587 -1 51
GlifName: _.mim.init
Width: 590
VWidth: 1304
GlyphClass: 1
UnlinkRmOvrlpSave: 1
Flags: HMW
LayerCount: 2
Fore
SplineSet
526 140 m 0
 526 107.333333333 520.5 75.8333333333 509.5 45.5 c 128
 498.5 15.1666666667 483 0 463 0 c 0
 407 0 352.833333333 7.5 300.5 22.5 c 128
 248.166666667 37.5 210 55.3333333333 186 76 c 1
 149.333333333 25.3333333333 91 0 11 0 c 2
 -1 -0 l 2
 -13.6666666667 0 -25 5.16666666667 -35 15.5 c 128
 -45 25.8333333333 -50 37.3333333333 -50 50 c 128
 -50 62.6666666667 -45 74.1666666667 -35 84.5 c 128
 -25 94.8333333333 -13.6666666667 100 -1 100 c 0
 18.3333333333 100 35.6666666667 101.166666667 51 103.5 c 128
 66.3333333333 105.833333333 79.6666666667 108.5 91 111.5 c 128
 102.333333333 114.5 113.5 120.5 124.5 129.5 c 128
 135.5 138.5 144.333333333 146 151 152 c 128
 157.666666667 158 166.166666667 169.666666667 176.5 187 c 128
 186.833333333 204.333333333 194.833333333 218 200.5 228 c 128
 206.166666667 238 216 256 230 282 c 128
 244 308 255.333333333 329 264 345 c 0
 286 385 314.666666667 405 350 405 c 0
 392.666666667 405 432.666666667 377.666666667 470 323 c 128
 507.333333333 268.333333333 526 207.333333333 526 140 c 0
234 161 m 1
 299.333333333 121 374.666666667 100.666666667 460 100 c 1
 459.333333333 146 443.5 189.333333333 412.5 230 c 128
 381.5 270.666666667 352 291 324 291 c 0
 310.666666667 291 300 284.666666667 292 272 c 0
 277.333333333 249.333333333 258 212.333333333 234 161 c 1
EndSplineSet
Colour: ffda6b
EndChar

StartChar: _.nun.isol
Encoding: 65588 -1 52
GlifName: _.nun.isol
Width: 750
VWidth: 1305
GlyphClass: 1
UnlinkRmOvrlpSave: 1
Flags: HMW
LayerCount: 2
Fore
SplineSet
64 -51 m 0
 64 30.3333333333 87.6666666667 127.333333333 135 240 c 1
 185 219 l 1
 150.333333333 121.666666667 133 41 133 -23 c 0
 133 -141 194.333333333 -200 317 -200 c 0
 375.666666667 -200 435.833333333 -187.333333333 497.5 -162 c 128
 559.166666667 -136.666666667 599.666666667 -112.666666667 619 -90 c 1
 568 234 l 1
 645 299 l 1
 648.333333333 276.333333333 653 246.5 659 209.5 c 128
 665 172.5 669.666666667 143.5 673 122.5 c 128
 676.333333333 101.5 679.333333333 77.1666666667 682 49.5 c 128
 684.666666667 21.8333333333 686 -3 686 -25 c 0
 686 -27 685.833333333 -30.6666666667 685.5 -36 c 128
 685.166666667 -41.3333333333 685 -45 685 -47 c 0
 683.666666667 -91.6666666667 664 -134 626 -174 c 128
 588 -214 540.833333333 -245.166666667 484.5 -267.5 c 128
 428.166666667 -289.833333333 371.666666667 -301 315 -301 c 0
 242.333333333 -301 182.333333333 -280.5 135 -239.5 c 128
 87.6666666667 -198.5 64 -135.666666667 64 -51 c 0
EndSplineSet
Colour: ffda6b
EndChar

StartChar: _.nun.fina
Encoding: 65589 -1 53
GlifName: _.nun.fina
Width: 824
VWidth: 1413
GlyphClass: 1
UnlinkRmOvrlpSave: 1
Flags: HMW
LayerCount: 2
Fore
SplineSet
64 -51 m 0
 64 30.3333333333 87.6666666667 127.333333333 135 240 c 1
 185 219 l 1
 150.333333333 121.666666667 133 41 133 -23 c 0
 133 -141 194.333333333 -200 317 -200 c 0
 375.666666667 -200 435.833333333 -187.333333333 497.5 -162 c 128
 559.166666667 -136.666666667 599.666666667 -112.666666667 619 -90 c 1
 568 234 l 1
 645 299 l 1
 647 284.333333333 651 258.833333333 657 222.5 c 128
 663 186.166666667 667.333333333 159 670 141 c 1
 698.666666667 113.666666667 750 100 824 100 c 1
 824 -0 l 1
 767.333333333 0 720.666666667 8.66666666667 684 26 c 1
 685.333333333 3.33333333333 686 -14 686 -26 c 0
 686 -28.6666666667 685.833333333 -32.3333333333 685.5 -37 c 128
 685.166666667 -41.6666666667 685 -45 685 -47 c 0
 683.666666667 -91.6666666667 664 -134 626 -174 c 128
 588 -214 540.833333333 -245.166666667 484.5 -267.5 c 128
 428.166666667 -289.833333333 371.666666667 -301 315 -301 c 0
 242.333333333 -301 182.333333333 -280.5 135 -239.5 c 128
 87.6666666667 -198.5 64 -135.666666667 64 -51 c 0
EndSplineSet
Colour: ffda6b
EndChar

StartChar: _.vav.isol
Encoding: 65590 -1 54
GlifName: _.vav.isol
Width: 541
VWidth: 1304
GlyphClass: 1
UnlinkRmOvrlpSave: 1
Flags: HMW
LayerCount: 2
Fore
SplineSet
64 -225 m 0
 64 -222.333333333 65.3333333333 -221 68 -221 c 0
 128 -221 188.333333333 -200.833333333 249 -160.5 c 128
 309.666666667 -120.166666667 353.333333333 -76.3333333333 380 -29 c 0
 386.666666667 -17.6666666667 392 -3.66666666667 396 13 c 1
 369.333333333 4.33333333333 335 0 293 0 c 0
 247.666666667 0 215.166666667 10.6666666667 195.5 32 c 128
 175.833333333 53.3333333333 166 81 166 115 c 0
 166 126.333333333 166.333333333 134.666666667 167 140 c 0
 167.666666667 168.666666667 173.666666667 200.166666667 185 234.5 c 128
 196.333333333 268.833333333 213.833333333 299.833333333 237.5 327.5 c 128
 261.166666667 355.166666667 287 369 315 369 c 0
 363.666666667 369 402.833333333 339.166666667 432.5 279.5 c 128
 462.166666667 219.833333333 477 153.333333333 477 80 c 0
 477 52 475.333333333 29.3333333333 472 12 c 0
 464 -40.6666666667 441.833333333 -91.6666666667 405.5 -141 c 128
 369.166666667 -190.333333333 327.5 -229.333333333 280.5 -258 c 128
 233.5 -286.666666667 189.333333333 -301 148 -301 c 0
 136 -301 119 -290.666666667 97 -270 c 128
 75 -249.333333333 64 -234.333333333 64 -225 c 0
400 114 m 1
 394.666666667 155.333333333 382.833333333 191.166666667 364.5 221.5 c 128
 346.166666667 251.833333333 323.666666667 267 297 267 c 0
 283.666666667 267 269.833333333 257.833333333 255.5 239.5 c 128
 241.166666667 221.166666667 230.666666667 200.666666667 224 178 c 1
 167 140 l 1
 224 178 l 1
 222 168 221 159.666666667 221 153 c 0
 221 137.666666667 225.166666667 125.833333333 233.5 117.5 c 128
 241.833333333 109.166666667 250.5 104.166666667 259.5 102.5 c 128
 268.5 100.833333333 280.333333333 100 295 100 c 0
 335 100 370 104.666666667 400 114 c 1
EndSplineSet
Colour: ffda6b
EndChar

StartChar: _.vav.fina
Encoding: 65591 -1 55
GlifName: _.vav.fina
Width: 607
VWidth: 1304
GlyphClass: 1
UnlinkRmOvrlpSave: 1
Flags: HMW
LayerCount: 2
Fore
SplineSet
401 100 m 1
 397.666666667 144 386.666666667 182.833333333 368 216.5 c 128
 349.333333333 250.166666667 325.666666667 267 297 267 c 0
 283.666666667 267 269.833333333 257.833333333 255.5 239.5 c 128
 241.166666667 221.166666667 230.666666667 200.666666667 224 178 c 1
 167 140 l 1
 224 178 l 1
 222 168 221 159.333333333 221 152 c 0
 221 136 225.666666667 123.833333333 235 115.5 c 128
 244.333333333 107.166666667 253.5 102.5 262.5 101.5 c 128
 271.5 100.5 284 100 300 100 c 1
 293 -0 l 1
 247.666666667 0 215.166666667 10.6666666667 195.5 32 c 128
 175.833333333 53.3333333333 166 81 166 115 c 0
 166 126.333333333 166.333333333 134.666666667 167 140 c 0
 167.666666667 168.666666667 173.666666667 200.166666667 185 234.5 c 128
 196.333333333 268.833333333 213.833333333 299.833333333 237.5 327.5 c 128
 261.166666667 355.166666667 287 369 315 369 c 0
 361 369 398.666666667 341.666666667 428 287 c 128
 457.333333333 232.333333333 473.333333333 170 476 100 c 1
 607 100 l 1
 607 -0 l 1
 469 -0 l 1
 453.666666667 -78 412 -147.666666667 344 -209 c 128
 276 -270.333333333 210.666666667 -301 148 -301 c 0
 136 -301 119 -290.666666667 97 -270 c 128
 75 -249.333333333 64 -234.333333333 64 -225 c 0
 64 -222.333333333 65.3333333333 -221 68 -221 c 0
 128 -221 188.333333333 -200.833333333 249 -160.5 c 128
 309.666666667 -120.166666667 353.333333333 -76.3333333333 380 -29 c 0
 383.333333333 -23 387.666666667 -13.3333333333 393 0 c 1
 293 -0 l 1
 300 100 l 1
 401 100 l 1
EndSplineSet
Colour: ffda6b
EndChar

StartChar: _.dal.isol
Encoding: 65592 -1 56
GlifName: _.dal.isol
Width: 501
VWidth: 1304
GlyphClass: 1
UnlinkRmOvrlpSave: 1
Flags: HMW
LayerCount: 2
Fore
SplineSet
64 115 m 0
 64 130.333333333 66.1666666667 143.333333333 70.5 154 c 128
 74.8333333333 164.666666667 80.3333333333 170 87 170 c 0
 90.3333333333 170 93.6666666667 168.333333333 97 165 c 0
 119.666666667 123 163.333333333 102 228 102 c 0
 265.333333333 102 299.666666667 109.333333333 331 124 c 1
 365.666666667 146 383 161.666666667 383 171 c 0
 383 228.333333333 320.666666667 312 196 422 c 1
 224 522 l 1
 302 455.333333333 357 399.166666667 389 353.5 c 128
 421 307.833333333 437 261 437 213 c 2
 437 204 l 2
 437 160 428 121 410 87 c 0
 393.333333333 57.6666666667 369.166666667 35.8333333333 337.5 21.5 c 128
 305.833333333 7.16666666667 271.333333333 0 234 0 c 0
 176 0 128.333333333 14.3333333333 91 43 c 0
 73 56.3333333333 64 80.3333333333 64 115 c 0
EndSplineSet
Colour: ffda6b
EndChar

StartChar: _.dal.fina
Encoding: 65593 -1 57
GlifName: _.dal.fina
Width: 631
VWidth: 1304
GlyphClass: 1
UnlinkRmOvrlpSave: 1
Flags: HMW
LayerCount: 2
Fore
SplineSet
64 113 m 0
 64 128.333333333 66.1666666667 141.666666667 70.5 153 c 128
 74.8333333333 164.333333333 80.3333333333 170 87 170 c 0
 91 170 94.6666666667 168.333333333 98 165 c 0
 121.333333333 121.666666667 167.333333333 100 236 100 c 0
 292 100 342 113 386 139 c 1
 376.666666667 159 358.666666667 202.5 332 269.5 c 128
 305.333333333 336.5 280.666666667 394.333333333 258 443 c 1
 335 507 l 1
 348.333333333 474.333333333 362.333333333 439.5 377 402.5 c 128
 391.666666667 365.5 402.833333333 336.666666667 410.5 316 c 128
 418.166666667 295.333333333 427.166666667 273 437.5 249 c 128
 447.833333333 225 456.166666667 207 462.5 195 c 128
 468.833333333 183 476.666666667 170.166666667 486 156.5 c 128
 495.333333333 142.833333333 504 133.333333333 512 128 c 128
 520 122.666666667 530.333333333 117.333333333 543 112 c 128
 555.666666667 106.666666667 568.666666667 103.333333333 582 102 c 128
 595.333333333 100.666666667 611.666666667 100 631 100 c 1
 631 -0 l 1
 577.666666667 0 535.5 5.66666666667 504.5 17 c 128
 473.5 28.3333333333 447.333333333 47.3333333333 426 74 c 1
 408.666666667 49.3333333333 383.666666667 30.6666666667 351 18 c 128
 318.333333333 5.33333333333 283 -1 245 -1 c 0
 180.333333333 -1 129 13.6666666667 91 43 c 0
 73 57 64 80.3333333333 64 113 c 0
EndSplineSet
Colour: ffda6b
EndChar

StartChar: _.ree.isol
Encoding: 65594 -1 58
GlifName: _.ree.isol
Width: 538
VWidth: 1304
GlyphClass: 1
UnlinkRmOvrlpSave: 1
Flags: HMW
LayerCount: 2
Fore
SplineSet
64 -225 m 0
 64 -222.333333333 65.3333333333 -221 68 -221 c 0
 130 -221 192.833333333 -199 256.5 -155 c 128
 320.166666667 -111 364 -65 388 -17 c 1
 396 5 400 20.3333333333 400 29 c 0
 400 50.3333333333 380.333333333 119 341 235 c 1
 417 300 l 1
 449.666666667 211.333333333 468.333333333 138 473 80 c 0
 473.666666667 74 474 65 474 53 c 0
 474 -4.33333333333 456.166666667 -61 420.5 -117 c 128
 384.833333333 -173 341.666666667 -217.666666667 291 -251 c 128
 240.333333333 -284.333333333 192.666666667 -301 148 -301 c 0
 136 -301 119 -290.666666667 97 -270 c 128
 75 -249.333333333 64 -234.333333333 64 -225 c 0
EndSplineSet
Colour: ffda6b
EndChar

StartChar: _.ree.fina
Encoding: 65595 -1 59
GlifName: _.ree.fina
Width: 629
VWidth: 1304
GlyphClass: 1
UnlinkRmOvrlpSave: 1
Flags: HMW
LayerCount: 2
Fore
SplineSet
64 -225 m 0
 64 -222.333333333 65.3333333333 -221 68 -221 c 0
 130 -221 192.833333333 -199 256.5 -155 c 128
 320.166666667 -111 364 -65 388 -17 c 1
 396 5 400 20.3333333333 400 29 c 0
 400 50.3333333333 380.333333333 119 341 235 c 1
 417 300 l 1
 438.333333333 243.333333333 453.666666667 193.333333333 463 150 c 1
 483.666666667 131.333333333 506 118.333333333 530 111 c 128
 554 103.666666667 587 100 629 100 c 1
 629 -0 l 1
 563 0 511 11 473 33 c 1
 467 -51 428.333333333 -127.666666667 357 -197 c 128
 285.666666667 -266.333333333 216 -301 148 -301 c 0
 136 -301 119 -290.666666667 97 -270 c 128
 75 -249.333333333 64 -234.333333333 64 -225 c 0
EndSplineSet
Colour: ffda6b
EndChar

StartChar: _.he8.isol
Encoding: 65596 -1 60
GlifName: _.he8.isol
Width: 471
VWidth: 1304
GlyphClass: 1
UnlinkRmOvrlpSave: 1
Flags: HMW
LayerCount: 2
Fore
SplineSet
237 -0 m 1
 217 -0 l 1
 217 1 l 1
 166.333333333 3.66666666667 128.166666667 17.3333333333 102.5 42 c 128
 76.8333333333 66.6666666667 64 99.6666666667 64 141 c 0
 64 183.666666667 77.6666666667 233 105 289 c 2
 154 388 l 1
 124 415 l 1
 173 502 l 1
 225 458 267.666666667 418.833333333 301 384.5 c 128
 334.333333333 350.166666667 358.166666667 320.333333333 372.5 295 c 128
 386.833333333 269.666666667 396.166666667 249 400.5 233 c 128
 404.833333333 217 407 199.333333333 407 180 c 2
 407 162 l 2
 407 116.666666667 392 79.1666666667 362 49.5 c 128
 332 19.8333333333 290.333333333 3.66666666667 237 1 c 1
 237 -0 l 1
126 176 m 0
 126 128 163 102.666666667 237 100 c 0
 267 101.333333333 293.5 107.666666667 316.5 119 c 128
 339.5 130.333333333 351 145 351 163 c 0
 351 182.333333333 338.833333333 206.166666667 314.5 234.5 c 128
 290.166666667 262.833333333 250.333333333 302 195 352 c 1
 146 247 l 2
 132.666666667 215.666666667 126 192 126 176 c 0
EndSplineSet
Colour: ffda6b
EndChar

StartChar: _.he8.fina
Encoding: 65597 -1 61
GlifName: _.he8.fina
Width: 536
VWidth: 1304
GlyphClass: 1
UnlinkRmOvrlpSave: 1
Flags: HMW
LayerCount: 2
Fore
SplineSet
64 230 m 0
 64 272 79.3333333333 311 110 347 c 0
 116.666666667 354.333333333 124.666666667 362 134 370 c 128
 143.333333333 378 152.5 385.166666667 161.5 391.5 c 128
 170.5 397.833333333 185.333333333 408 206 422 c 128
 226.666666667 436 245.333333333 449 262 461 c 1
 252 513 l 1
 329 577 l 1
 394 200 l 2
 394 198 394.666666667 193.166666667 396 185.5 c 128
 397.333333333 177.833333333 398.333333333 172.666666667 399 170 c 128
 399.666666667 167.333333333 401 162.5 403 155.5 c 128
 405 148.5 407.333333333 143.5 410 140.5 c 128
 412.666666667 137.5 416.333333333 133.333333333 421 128 c 128
 425.666666667 122.666666667 431.5 118.833333333 438.5 116.5 c 128
 449 113 449 113 462.5 108.5 c 128
 471.5 105.5 482.166666667 103.333333333 494.5 102 c 128
 506.833333333 100.666666667 520.666666667 100 536 100 c 1
 536 -0 l 1
 408 0 336.333333333 43.3333333333 321 130 c 1
 321 135 l 1
 291 122.333333333 254.666666667 116 212 116 c 0
 192 116 173 118 155 122 c 0
 124.333333333 128 101.5 140.666666667 86.5 160 c 128
 71.5 179.333333333 64 202.666666667 64 230 c 0
134 257 m 0
 134 235 162.666666667 224 220 224 c 0
 253.333333333 224 281 227.333333333 303 234 c 1
 276 381 l 1
 233.333333333 353 193 323.666666667 155 293 c 0
 141 281 134 269 134 257 c 0
EndSplineSet
Colour: ffda6b
EndChar

StartChar: _.he8.medi
Encoding: 65598 -1 62
GlifName: _.he8.medi
Width: 543
VWidth: 1304
GlyphClass: 1
UnlinkRmOvrlpSave: 1
Flags: HMW
LayerCount: 2
Fore
SplineSet
-50 50 m 0
 -50 61.3333333333 -45.1666666667 72.1666666667 -35.5 82.5 c 128
 -25.8333333333 92.8333333333 -15.3333333333 98.6666666667 -4 100 c 2
 83 100 l 1
 81.6666666667 117.333333333 81 129.666666667 81 137 c 0
 81 197.666666667 94.1666666667 254.5 120.5 307.5 c 128
 146.833333333 360.5 184 401.666666667 232 431 c 1
 271.333333333 420.333333333 301.833333333 396.833333333 323.5 360.5 c 128
 345.166666667 324.166666667 356 283 356 237 c 0
 356 180.333333333 340.5 129.166666667 309.5 83.5 c 128
 278.5 37.8333333333 235 10.6666666667 179 2 c 1
 207.666666667 -42 249.666666667 -79.6666666667 305 -111 c 1
 293.666666667 -90.3333333333 288 -68.6666666667 288 -46 c 0
 288 -8.66666666667 300.666666667 25 326 55 c 128
 351.333333333 85 375 100 397 100 c 2
 543 100 l 1
 543 -0 l 1
 401 -0 l 2
 392.333333333 0 382.166666667 -5.83333333333 370.5 -17.5 c 128
 358.833333333 -29.1666666667 353 -43 353 -59 c 0
 353 -94.3333333333 382.666666667 -128 442 -160 c 1
 397 -243 l 1
 323 -227 261.5 -197.333333333 212.5 -154 c 128
 163.5 -110.666666667 128 -59.3333333333 106 0 c 1
 -4 -0 l 2
 -16 1.33333333333 -26.6666666667 7 -36 17 c 128
 -45.3333333333 27 -50 38 -50 50 c 0
136 136 m 0
 136 128 137.333333333 116 140 100 c 1
 169 100 l 2
 214.333333333 100 249.333333333 109.333333333 274 128 c 128
 298.666666667 146.666666667 311 170 311 198 c 0
 311 242 285 279 233 309 c 1
 168.333333333 264.333333333 136 206.666666667 136 136 c 0
EndSplineSet
Colour: ffda6b
EndChar

StartChar: _.he8.init
Encoding: 65599 -1 63
GlifName: _.he8.init
Width: 623
VWidth: 1304
GlyphClass: 1
UnlinkRmOvrlpSave: 1
Flags: HMW
LayerCount: 2
Fore
SplineSet
-50 50 m 0
 -50 62.6666666667 -45 74.1666666667 -35 84.5 c 128
 -25 94.8333333333 -13.6666666667 100 -1 100 c 0
 42.3333333333 100 86 107.666666667 130 123 c 1
 91.3333333333 148.333333333 72 182.333333333 72 225 c 0
 72 241.666666667 74.3333333333 259.333333333 79 278 c 1
 138 306 l 1
 79 278 l 1
 89 336 119 388 169 434 c 1
 159 439 l 1
 190 548 l 1
 202 540 219.833333333 527.833333333 243.5 511.5 c 128
 267.166666667 495.166666667 284.666666667 483.333333333 296 476 c 0
 304.666666667 472 312.333333333 466.666666667 319 460 c 0
 409.666666667 395.333333333 472.333333333 343 507 303 c 128
 541.666666667 263 559 226 559 192 c 0
 559 172.666666667 551 142 535 100 c 1
 505 34.6666666667 466 2 418 2 c 0
 381.333333333 2 317.333333333 25.3333333333 226 72 c 1
 160.666666667 24 85.3333333333 0 0 0 c 1
 0 16 l 1
 0 -0 l 1
 -13.3333333333 0 -25 5 -35 15 c 128
 -45 25 -50 36.6666666667 -50 50 c 0
134 284 m 0
 134 260.666666667 153.666666667 237 193 213 c 2
 247 180 l 1
 269 196 285.666666667 211.333333333 297 226 c 1
 300.333333333 252.666666667 302 272.666666667 302 286 c 0
 302 309.333333333 296.833333333 330 286.5 348 c 128
 276.166666667 366 263.333333333 377.666666667 248 383 c 0
 246 383.666666667 242.666666667 384 238 384 c 0
 220 384 200.833333333 375.5 180.5 358.5 c 128
 160.166666667 341.5 146 324 138 306 c 0
 135.333333333 298.666666667 134 291.333333333 134 284 c 0
362 305 m 1
 355.333333333 243.666666667 336.333333333 191.666666667 305 149 c 1
 363.666666667 119.666666667 408.666666667 105 440 105 c 0
 460.666666667 105 476.333333333 110 487 120 c 0
 487.666666667 124 488 130 488 138 c 0
 488 184.666666667 446 240.333333333 362 305 c 1
EndSplineSet
Colour: ffda6b
EndChar

StartChar: _.yeh.fina
Encoding: 65600 -1 64
GlifName: _.yeh.fina
Width: 794
VWidth: 1304
GlyphClass: 1
UnlinkRmOvrlpSave: 1
Flags: HMW
LayerCount: 2
Fore
SplineSet
64 -52 m 0
 64 27.3333333333 88 124.666666667 136 240 c 1
 185 219 l 1
 150.333333333 121.666666667 133 41 133 -23 c 0
 133 -141 194.333333333 -200 317 -200 c 0
 365.666666667 -200 415.333333333 -191.333333333 466 -174 c 128
 516.666666667 -156.666666667 557.666666667 -137 589 -115 c 0
 601 -105 607 -94 607 -82 c 0
 607 -69.3333333333 600.5 -56.5 587.5 -43.5 c 128
 574.5 -30.5 555.666666667 -17.1666666667 531 -3.5 c 128
 506.333333333 10.1666666667 486.333333333 20.5 471 27.5 c 128
 455.666666667 34.5 435.333333333 43.3333333333 410 54 c 0
 402 57.3333333333 400.666666667 66 406 80 c 2
 416 104 l 1
 416 111 l 1
 422.666666667 127.666666667 428.5 139.166666667 433.5 145.5 c 128
 438.5 151.833333333 444.666666667 155 452 155 c 0
 456 155 460.666666667 154 466 152 c 0
 578.666666667 117.333333333 688 100 794 100 c 1
 794 -0 l 1
 747.333333333 0 695.666666667 4.33333333333 639 13 c 1
 662.333333333 -17 674 -46.3333333333 674 -75 c 0
 674 -85.6666666667 672.666666667 -95.3333333333 670 -104 c 0
 648.666666667 -159.333333333 602.833333333 -206 532.5 -244 c 128
 462.166666667 -282 389.333333333 -301 314 -301 c 0
 241.333333333 -301 181.5 -280.5 134.5 -239.5 c 128
 87.5 -198.5 64 -136 64 -52 c 0
EndSplineSet
Colour: ffda6b
EndChar

StartChar: _.yeh.isol
Encoding: 65601 -1 65
GlifName: _.yeh.isol
Width: 786
VWidth: 1304
GlyphClass: 1
UnlinkRmOvrlpSave: 1
Flags: HMW
LayerCount: 2
Fore
SplineSet
64 49 m 0
 64 130.333333333 87.6666666667 227.333333333 135 340 c 1
 185 319 l 1
 150.333333333 221.666666667 133 140.666666667 133 76 c 0
 133 -41.3333333333 194.333333333 -100 317 -100 c 0
 364.333333333 -100 413.166666667 -91.5 463.5 -74.5 c 128
 513.833333333 -57.5 555.333333333 -38 588 -16 c 0
 604.666666667 -4 613 8.66666666667 613 22 c 0
 613 40 600 49 574 49 c 2
 386 49 l 2
 369.333333333 49 361 65.6666666667 361 99 c 0
 361 120.333333333 364.333333333 145 371 173 c 0
 371.666666667 173.666666667 372.333333333 175 373 177 c 128
 373.666666667 179 374 180.333333333 374 181 c 0
 381.333333333 207 388.666666667 226.333333333 396 239 c 1
 396 237 l 1
 410.666666667 265.666666667 428.333333333 292 449 316 c 128
 469.666666667 340 498.666666667 361.666666667 536 381 c 128
 573.333333333 400.333333333 613.666666667 410 657 410 c 0
 681.666666667 410 703.333333333 408 722 404 c 1
 685 300 l 1
 666.333333333 302.666666667 652.666666667 304 644 304 c 0
 596.666666667 304 553.666666667 290.333333333 515 263 c 128
 476.333333333 235.666666667 446.333333333 198 425 150 c 1
 600 150 l 2
 627.333333333 150 648.5 140.833333333 663.5 122.5 c 128
 678.5 104.166666667 686 81.6666666667 686 55 c 0
 686 34.3333333333 680.666666667 12.6666666667 670 -10 c 0
 646 -64 599.166666667 -109.333333333 529.5 -146 c 128
 459.833333333 -182.666666667 388.333333333 -201 315 -201 c 0
 242.333333333 -200.333333333 182.333333333 -179.666666667 135 -139 c 128
 87.6666666667 -98.3333333333 64 -35.6666666667 64 49 c 0
EndSplineSet
Colour: ffda6b
EndChar

StartChar: _.hamze.isol
Encoding: 65602 -1 66
GlifName: _.hamze.isol
Width: 515
VWidth: 1304
GlyphClass: 2
Flags: HMW
LayerCount: 2
Fore
SplineSet
312 339 m 0
 276.666666667 339 243.666666667 330.833333333 213 314.5 c 128
 182.333333333 298.166666667 167 279.333333333 167 258 c 0
 167 220.666666667 193.333333333 187 246 157 c 1
 419 239 l 1
 451 170 l 1
 96 5 l 1
 64 74 l 1
 169 123 l 1
 125 153 103 193 103 243 c 0
 103 255 104 267 106 279 c 0
 112.666666667 317 132 349.666666667 164 377 c 128
 196 404.333333333 238.666666667 418 292 418 c 0
 314 418 336.333333333 415.666666667 359 411 c 1
 343 336 l 1
 333 338 322.666666667 339 312 339 c 0
EndSplineSet
Validated: 1
Colour: ffda6b
EndChar

StartChar: _.keshide.medi
Encoding: 65603 -1 67
GlifName: _.keshide.medi
Width: 235
VWidth: 1304
GlyphClass: 2
Flags: HMW
LayerCount: 2
Fore
SplineSet
-12 100 m 2
 235 100 l 1
 235 0 l 1
 -12 0 l 2
 -24 0 -33.3333333333 5 -40 15 c 128
 -46.6666666667 25 -50 36.6666666667 -50 50 c 128
 -50 63.3333333333 -46.6666666667 75 -40 85 c 128
 -33.3333333333 95 -24 100 -12 100 c 2
EndSplineSet
Validated: 1
Colour: ffda6b
EndChar

StartChar: _.dot.1u
Encoding: 65604 -1 68
GlifName: _.dot.1u
Width: 0
VWidth: 1304
GlyphClass: 2
Flags: HMW
LayerCount: 2
Fore
SplineSet
0 56 m 128
 0 71.3333333333 5.33333333333 84.5 16 95.5 c 128
 26.6666666667 106.5 39.3333333333 112 54 112 c 0
 69.3333333333 112 82.5 106.5 93.5 95.5 c 128
 104.5 84.5 110 71.3333333333 110 56 c 128
 110 40.6666666667 104.5 27.6666666667 93.5 17 c 128
 82.5 6.33333333333 69.3333333333 1 54 1 c 128
 38.6666666667 1 25.8333333333 6.33333333333 15.5 17 c 128
 5.16666666667 27.6666666667 0 40.6666666667 0 56 c 128
EndSplineSet
Validated: 5
Colour: ffda6b
EndChar

StartChar: _.dot.2u
Encoding: 65605 -1 69
GlifName: _.dot.2u
Width: 0
VWidth: 1304
GlyphClass: 2
UnlinkRmOvrlpSave: 1
Flags: HMW
LayerCount: 2
Fore
SplineSet
0 50 m 0
 0 64 4.83333333333 76 14.5 86 c 128
 24.1666666667 96 36 101 50 101 c 0
 63.3333333333 101 75 95.8333333333 85 85.5 c 128
 95 75.1666666667 100 63.3333333333 100 50 c 128
 100 36.6666666667 95 25 85 15 c 128
 75 5 63.3333333333 0 50 0 c 0
 36 0 24.1666666667 5 14.5 15 c 128
 4.83333333333 25 0 36.6666666667 0 50 c 0
140 50 m 128
 140 63.3333333333 145 75.1666666667 155 85.5 c 128
 165 95.8333333333 176.666666667 101 190 101 c 0
 204 101 215.833333333 96 225.5 86 c 128
 235.166666667 76 240 64 240 50 c 0
 240 36.6666666667 235.166666667 25 225.5 15 c 128
 215.833333333 5 204 0 190 0 c 0
 176.666666667 0 165 5 155 15 c 128
 145 25 140 36.6666666667 140 50 c 128
EndSplineSet
Colour: ffda6b
EndChar

StartChar: _.dot.3u
Encoding: 65606 -1 70
GlifName: _.dot.3u
Width: 0
VWidth: 1304
GlyphClass: 2
UnlinkRmOvrlpSave: 1
Flags: HMW
LayerCount: 2
Fore
SplineSet
0 50 m 0
 0 64 4.83333333333 76 14.5 86 c 128
 24.1666666667 96 36 101 50 101 c 0
 63.3333333333 101 75 95.8333333333 85 85.5 c 128
 95 75.1666666667 100 63.3333333333 100 50 c 128
 100 36.6666666667 95 25 85 15 c 128
 75 5 63.3333333333 0 50 0 c 0
 36 0 24.1666666667 5 14.5 15 c 128
 4.83333333333 25 0 36.6666666667 0 50 c 0
75 170 m 0
 75 182.666666667 79.6666666667 193.5 89 202.5 c 128
 98.3333333333 211.5 109.666666667 216 123 216 c 128
 136.333333333 216 147.5 211.5 156.5 202.5 c 128
 165.5 193.5 170 182.666666667 170 170 c 0
 170 156.666666667 165.333333333 145.333333333 156 136 c 128
 146.666666667 126.666666667 135.666666667 122 123 122 c 128
 110.333333333 122 99.1666666667 126.666666667 89.5 136 c 128
 79.8333333333 145.333333333 75 156.666666667 75 170 c 0
140 50 m 128
 140 63.3333333333 145 75.1666666667 155 85.5 c 128
 165 95.8333333333 176.666666667 101 190 101 c 0
 204 101 215.833333333 96 225.5 86 c 128
 235.166666667 76 240 64 240 50 c 0
 240 36.6666666667 235.166666667 25 225.5 15 c 128
 215.833333333 5 204 0 190 0 c 0
 176.666666667 0 165 5 155 15 c 128
 145 25 140 36.6666666667 140 50 c 128
EndSplineSet
Colour: ffda6b
EndChar

StartChar: _.dot.1d
Encoding: 65607 -1 71
GlifName: _.dot.1d
Width: 0
VWidth: 1304
GlyphClass: 2
Flags: HMW
LayerCount: 2
Fore
SplineSet
0 -59 m 128
 0 -43.6666666667 5.16666666667 -30.6666666667 15.5 -20 c 128
 25.8333333333 -9.33333333333 38.6666666667 -4 54 -4 c 128
 69.3333333333 -4 82.5 -9.33333333333 93.5 -20 c 128
 104.5 -30.6666666667 110 -43.6666666667 110 -59 c 0
 110 -73.6666666667 104.5 -86.3333333333 93.5 -97 c 128
 82.5 -107.666666667 69.3333333333 -113 54 -113 c 0
 39.3333333333 -113 26.6666666667 -107.833333333 16 -97.5 c 128
 5.33333333333 -87.1666666667 0 -74.3333333333 0 -59 c 128
EndSplineSet
Validated: 5
Colour: ffda6b
EndChar

StartChar: _.dot.2d
Encoding: 65608 -1 72
GlifName: _.dot.2d
Width: 0
VWidth: 1304
GlyphClass: 2
UnlinkRmOvrlpSave: 1
Flags: HMW
LayerCount: 2
Fore
SplineSet
0 -49 m 0
 0 -35 4.83333333333 -23.1666666667 14.5 -13.5 c 128
 24.1666666667 -3.83333333333 36 1 50 1 c 0
 63.3333333333 1 75 -3.83333333333 85 -13.5 c 128
 95 -23.1666666667 100 -35 100 -49 c 0
 100 -62.3333333333 95 -74 85 -84 c 128
 75 -94 63.3333333333 -99 50 -99 c 0
 36 -99 24.1666666667 -94 14.5 -84 c 128
 4.83333333333 -74 0 -62.3333333333 0 -49 c 0
140 -49 m 0
 140 -35 145 -23.1666666667 155 -13.5 c 128
 165 -3.83333333333 176.666666667 1 190 1 c 0
 204 1 215.833333333 -3.83333333333 225.5 -13.5 c 128
 235.166666667 -23.1666666667 240 -35 240 -49 c 0
 240 -62.3333333333 235.166666667 -74 225.5 -84 c 128
 215.833333333 -94 204 -99 190 -99 c 0
 176.666666667 -99 165 -94 155 -84 c 128
 145 -74 140 -62.3333333333 140 -49 c 0
EndSplineSet
Colour: ffda6b
EndChar

StartChar: _.dot.3d
Encoding: 65609 -1 73
GlifName: _.dot.3d
Width: 0
VWidth: 1304
GlyphClass: 2
UnlinkRmOvrlpSave: 1
Flags: HMW
LayerCount: 2
Fore
SplineSet
0 -49 m 0
 0 -35 4.83333333333 -23.1666666667 14.5 -13.5 c 128
 24.1666666667 -3.83333333333 36 1 50 1 c 0
 63.3333333333 1 75 -3.83333333333 85 -13.5 c 128
 95 -23.1666666667 100 -35 100 -49 c 0
 100 -62.3333333333 95 -74 85 -84 c 128
 75 -94 63.3333333333 -99 50 -99 c 0
 36 -99 24.1666666667 -94 14.5 -84 c 128
 4.83333333333 -74 0 -62.3333333333 0 -49 c 0
75 -169 m 0
 75 -155.666666667 79.6666666667 -144.333333333 89 -135 c 128
 98.3333333333 -125.666666667 109.666666667 -121 123 -121 c 0
 135.666666667 -121 146.666666667 -125.5 156 -134.5 c 128
 165.333333333 -143.5 170 -154.666666667 170 -168 c 128
 170 -181.333333333 165.5 -192.666666667 156.5 -202 c 128
 147.5 -211.333333333 136.333333333 -216 123 -216 c 128
 109.666666667 -216 98.3333333333 -211.333333333 89 -202 c 128
 79.6666666667 -192.666666667 75 -181.666666667 75 -169 c 0
140 -49 m 0
 140 -35 145 -23.1666666667 155 -13.5 c 128
 165 -3.83333333333 176.666666667 1 190 1 c 0
 204 1 215.833333333 -3.83333333333 225.5 -13.5 c 128
 235.166666667 -23.1666666667 240 -35 240 -49 c 0
 240 -62.3333333333 235.166666667 -74 225.5 -84 c 128
 215.833333333 -94 204 -99 190 -99 c 0
 176.666666667 -99 165 -94 155 -84 c 128
 145 -74 140 -62.3333333333 140 -49 c 0
EndSplineSet
Colour: ffda6b
EndChar

StartChar: _.num.0
Encoding: 65611 -1 75
GlifName: _.num.0
Width: 450
VWidth: 1424
GlyphClass: 2
Flags: HMW
LayerCount: 2
Fore
SplineSet
75 327 m 128
 75 367.666666667 89.8333333333 402.833333333 119.5 432.5 c 128
 149.166666667 462.166666667 184.333333333 477 225 477 c 128
 265.666666667 477 300.833333333 462.166666667 330.5 432.5 c 128
 360.166666667 402.833333333 375 367.666666667 375 327 c 128
 375 286.333333333 360.166666667 251.166666667 330.5 221.5 c 128
 300.833333333 191.833333333 265.666666667 177 225 177 c 128
 184.333333333 177 149.166666667 191.833333333 119.5 221.5 c 128
 89.8333333333 251.166666667 75 286.333333333 75 327 c 128
150 327 m 128
 150 306.333333333 157.333333333 288.666666667 172 274 c 128
 186.666666667 259.333333333 204.333333333 252 225 252 c 128
 245.666666667 252 263.333333333 259.333333333 278 274 c 128
 292.666666667 288.666666667 300 306.333333333 300 327 c 128
 300 347.666666667 292.666666667 365.333333333 278 380 c 128
 263.333333333 394.666666667 245.666666667 402 225 402 c 128
 204.333333333 402 186.666666667 394.666666667 172 380 c 128
 157.333333333 365.333333333 150 347.666666667 150 327 c 128
EndSplineSet
Validated: 1
Colour: ffda6b
EndChar

StartChar: _.num.1
Encoding: 65612 -1 76
GlifName: _.num.1
Width: 350
VWidth: 1331
GlyphClass: 2
Flags: HMW
LayerCount: 2
Fore
SplineSet
75 699 m 1
 173 799 l 1
 214.333333333 679.666666667 241.666666667 561.5 255 444.5 c 128
 268.333333333 327.5 275 202 275 68 c 0
 275 60 274.833333333 48.5 274.5 33.5 c 128
 274.166666667 18.5 274 7.33333333333 274 0 c 1
 173 -20 l 1
 172.333333333 61.3333333333 171.666666667 119.166666667 171 153.5 c 128
 170.333333333 187.833333333 167.166666667 240.666666667 161.5 312 c 128
 155.833333333 383.333333333 146 449.666666667 132 511 c 128
 118 572.333333333 99 635 75 699 c 1
EndSplineSet
Validated: 1
Colour: ffda6b
EndChar

StartChar: _.num.2
Encoding: 65613 -1 77
GlifName: _.num.2
Width: 629
VWidth: 1331
GlyphClass: 2
Flags: HMW
LayerCount: 2
Fore
SplineSet
75 699 m 1
 173 799 l 1
 199 725.666666667 220 646.666666667 236 562 c 1
 270.666666667 535.333333333 308.333333333 522 349 522 c 0
 381 522 408.166666667 530.166666667 430.5 546.5 c 128
 452.833333333 562.833333333 463.333333333 581 462 601 c 2
 455 752 l 1
 548 758 l 1
 554 614 l 2
 554.666666667 548 534.166666667 496 492.5 458 c 128
 450.833333333 420 401 401 343 401 c 0
 314.333333333 401 286 406 258 416 c 1
 269.333333333 307.333333333 275 190.666666667 275 66 c 0
 275 58 274.833333333 46.8333333333 274.5 32.5 c 128
 274.166666667 18.1666666667 274 7.33333333333 274 0 c 1
 173 -20 l 1
 172.333333333 61.3333333333 171.666666667 119.166666667 171 153.5 c 128
 170.333333333 187.833333333 167.166666667 240.666666667 161.5 312 c 128
 155.833333333 383.333333333 146 449.666666667 132 511 c 128
 118 572.333333333 99 635 75 699 c 1
EndSplineSet
Validated: 33
Colour: ffda6b
EndChar

StartChar: _.num.3
Encoding: 65614 -1 78
GlifName: _.num.3
Width: 849
VWidth: 1331
GlyphClass: 2
Flags: HMW
LayerCount: 2
Fore
SplineSet
75 699 m 1
 173 799 l 1
 201 720.333333333 223.333333333 634 240 540 c 1
 264.666666667 528 290.666666667 522 318 522 c 0
 350 522 377.166666667 530.166666667 399.5 546.5 c 128
 421.833333333 562.833333333 432.333333333 581 431 601 c 2
 425 752 l 1
 517 758 l 1
 523 614 l 2
 523 588.666666667 520.666666667 567.666666667 516 551 c 1
 535 545 553 542 570 542 c 0
 602 542 629 550 651 566 c 128
 673 582 683.333333333 600 682 620 c 2
 676 772 l 1
 768 779 l 1
 774 634 l 2
 774.666666667 568 754.166666667 516 712.5 478 c 128
 670.833333333 440 621 421 563 421 c 0
 530.333333333 421 498 427.666666667 466 441 c 1
 446 444 l 1
 409.333333333 415.333333333 364.333333333 401 311 401 c 0
 289.666666667 401 272 402.666666667 258 406 c 1
 269.333333333 300.666666667 275 187 275 65 c 0
 275 57.6666666667 274.833333333 46.6666666667 274.5 32 c 128
 274.166666667 17.3333333333 274 6.66666666667 274 0 c 1
 173 -20 l 1
 172.333333333 61.3333333333 171.666666667 119.166666667 171 153.5 c 128
 170.333333333 187.833333333 167.166666667 240.666666667 161.5 312 c 128
 155.833333333 383.333333333 146 449.666666667 132 511 c 128
 118 572.333333333 99 635 75 699 c 1
EndSplineSet
Validated: 33
Colour: ffda6b
EndChar

StartChar: _.num.4.fa
Encoding: 65615 -1 79
GlifName: _.num.4.fa
Width: 741
VWidth: 1331
GlyphClass: 2
Flags: HMW
LayerCount: 2
Fore
SplineSet
75 699 m 1
 173 799 l 1
 205.666666667 705 230.333333333 604 247 496 c 1
 261 487.333333333 273.333333333 481 284 477 c 1
 272 513 266 550.333333333 266 589 c 0
 266 613.666666667 269.333333333 638.333333333 276 663 c 0
 288.666666667 708.333333333 312.166666667 742 346.5 764 c 128
 380.833333333 786 420 797 464 797 c 0
 498 797 530.666666667 790.833333333 562 778.5 c 128
 593.333333333 766.166666667 617.666666667 749.666666667 635 729 c 1
 608 652 l 1
 572 671.333333333 527.666666667 681 475 681 c 0
 428.333333333 681 390.333333333 671.333333333 361 652 c 0
 361 649.333333333 360.833333333 646 360.5 642 c 128
 360.166666667 638 360 634.666666667 360 632 c 0
 360 563.333333333 382 498.333333333 426 437 c 1
 432.666666667 436.333333333 442.333333333 436 455 436 c 0
 463 436 470.666666667 436.166666667 478 436.5 c 128
 485.333333333 436.833333333 493.166666667 437.666666667 501.5 439 c 128
 509.833333333 440.333333333 516.833333333 441.5 522.5 442.5 c 128
 528.166666667 443.5 535.666666667 445.166666667 545 447.5 c 128
 554.333333333 449.833333333 560.833333333 451.5 564.5 452.5 c 128
 568.166666667 453.5 575.166666667 455.666666667 585.5 459 c 128
 595.833333333 462.333333333 602 464.333333333 604 465 c 128
 606 465.666666667 612.833333333 468.166666667 624.5 472.5 c 128
 636.166666667 476.833333333 642.333333333 479 643 479 c 2
 666 379 l 1
 579.333333333 345 493.666666667 328 409 328 c 0
 356.333333333 328 308.333333333 334.666666667 265 348 c 1
 271 279.333333333 274 183 274 59 c 2
 274 -0 l 1
 173 -20 l 1
 172.333333333 61.3333333333 171.666666667 119.166666667 171 153.5 c 128
 170.333333333 187.833333333 167.166666667 240.666666667 161.5 312 c 128
 155.833333333 383.333333333 146 449.666666667 132 511 c 128
 118 572.333333333 99 635 75 699 c 1
EndSplineSet
Validated: 1
Colour: ffda6b
EndChar

StartChar: _.num.5.fa
Encoding: 65617 -1 81
GlifName: _.num.5.fa
Width: 742
VWidth: 1331
GlyphClass: 2
Flags: HMW
LayerCount: 2
Fore
SplineSet
227 -7 m 0
 184.333333333 -7 148.333333333 8.16666666667 119 38.5 c 128
 89.6666666667 68.8333333333 75 110 75 162 c 0
 75 178.666666667 77.1666666667 198.666666667 81.5 222 c 128
 85.8333333333 245.333333333 94.1666666667 278.166666667 106.5 320.5 c 128
 118.833333333 362.833333333 141 413.166666667 173 471.5 c 128
 205 529.833333333 244.333333333 590 291 652 c 1
 368 593 l 1
 244 425 182 295.333333333 182 204 c 0
 182 177.333333333 187.666666667 157 199 143 c 128
 210.333333333 129 224.333333333 122 241 122 c 0
 263 122 283.166666667 132.833333333 301.5 154.5 c 128
 319.833333333 176.166666667 329 204 329 238 c 2
 329 251 l 1
 414 273 l 1
 414 268 l 2
 414 239.333333333 416.333333333 213.666666667 421 191 c 0
 425 172.333333333 435.666666667 157.333333333 453 146 c 128
 470.333333333 134.666666667 489 129 509 129 c 0
 549.666666667 129 570 147.666666667 570 185 c 0
 570 200.333333333 568.833333333 217.5 566.5 236.5 c 128
 564.166666667 255.5 556.166666667 284.666666667 542.5 324 c 128
 528.833333333 363.333333333 510.833333333 402 488.5 440 c 128
 466.166666667 478 431.833333333 521 385.5 569 c 128
 339.166666667 617 284.666666667 661.666666667 222 703 c 1
 283 800 l 1
 288.333333333 796.666666667 295.5 792 304.5 786 c 128
 313.5 780 331 766.666666667 357 746 c 128
 383 725.333333333 407.833333333 703.5 431.5 680.5 c 128
 455.166666667 657.5 481.666666667 627.666666667 511 591 c 128
 540.333333333 554.333333333 565.666666667 516.833333333 587 478.5 c 128
 608.333333333 440.166666667 626.666666667 395.333333333 642 344 c 128
 657.333333333 292.666666667 665.666666667 240.666666667 667 188 c 0
 667 184 667 184 667 177.5 c 128
 667 173.166666667 666.166666667 164.666666667 664.5 152 c 128
 662.833333333 139.333333333 660.666666667 127.333333333 658 116 c 128
 655.333333333 104.666666667 650.833333333 91.8333333333 644.5 77.5 c 128
 638.166666667 63.1666666667 630.666666667 50.6666666667 622 40 c 128
 613.333333333 29.3333333333 601.833333333 20.1666666667 587.5 12.5 c 128
 573.166666667 4.83333333333 557 0.666666666667 539 0 c 0
 534.333333333 0 527 -0.333333333333 517 -1 c 128
 507 -1.66666666667 499 -2 493 -2 c 0
 429 -2 386.666666667 25.3333333333 366 80 c 1
 351.333333333 51.3333333333 331.5 29.6666666667 306.5 15 c 128
 281.5 0.333333333333 255 -7 227 -7 c 0
EndSplineSet
Validated: 37
Colour: ffda6b
EndChar

StartChar: _.num.6.fa
Encoding: 65619 -1 83
GlifName: _.num.6.fa
Width: 801
VWidth: 1331
GlyphClass: 2
Flags: HMW
LayerCount: 2
Fore
SplineSet
75 42 m 1
 205 163.333333333 308.333333333 253 385 311 c 1
 342.333333333 335 306.5 372.333333333 277.5 423 c 128
 248.5 473.666666667 234 520 234 562 c 2
 234 571 l 1
 239.333333333 645.666666667 267.666666667 701.666666667 319 739 c 128
 370.333333333 776.333333333 436.333333333 795 517 795 c 0
 569.666666667 795 623.333333333 787.666666667 678 773 c 1
 663 681 l 1
 649 683.666666667 631 685 609 685 c 0
 550.333333333 685 493.166666667 675 437.5 655 c 128
 381.833333333 635 347.333333333 608.333333333 334 575 c 1
 372 479.666666667 421 414.333333333 481 379 c 1
 567.666666667 436.333333333 649.333333333 482 726 516 c 1
 721 375 l 1
 670.333333333 353.666666667 620.166666667 328.666666667 570.5 300 c 128
 520.833333333 271.333333333 479.666666667 245.833333333 447 223.5 c 128
 414.333333333 201.166666667 374.666666667 170.333333333 328 131 c 128
 281.333333333 91.6666666667 248.5 63.3333333333 229.5 46 c 128
 210.5 28.6666666667 177.333333333 -2.33333333333 130 -47 c 1
 75 42 l 1
EndSplineSet
Validated: 1
Colour: ffda6b
EndChar

StartChar: _.num.7
Encoding: 65621 -1 85
GlifName: _.num.7
Width: 750
VWidth: 1331
GlyphClass: 2
Flags: HMW
LayerCount: 2
Fore
SplineSet
75 699 m 1
 173 799 l 1
 257.666666667 627 325 454.666666667 375 282 c 1
 421.666666667 449.333333333 488.666666667 621.666666667 576 799 c 1
 675 699 l 1
 635.666666667 620.333333333 604.666666667 557.166666667 582 509.5 c 128
 559.333333333 461.833333333 534.666666667 405.333333333 508 340 c 128
 481.333333333 274.666666667 461.666666667 214.333333333 449 159 c 128
 436.333333333 103.666666667 429 50.6666666667 427 0 c 1
 324 -20 l 1
 324 48 310.666666667 125.666666667 284 213 c 128
 257.333333333 300.333333333 229.666666667 375.333333333 201 438 c 128
 172.333333333 500.666666667 130.333333333 587.666666667 75 699 c 1
EndSplineSet
Validated: 1
Colour: ffda6b
EndChar

StartChar: _.num.8
Encoding: 65622 -1 86
GlifName: _.num.8
Width: 751
VWidth: 1331
GlyphClass: 2
Flags: HMW
LayerCount: 2
Fore
SplineSet
75 80 m 1
 151 192 212.5 311.666666667 259.5 439 c 128
 306.5 566.333333333 331.333333333 679.666666667 334 779 c 1
 417 799 l 1
 416.333333333 699 439.666666667 583.166666667 487 451.5 c 128
 534.333333333 319.833333333 597.333333333 196 676 80 c 1
 577 -20 l 1
 487.666666667 131.333333333 420.333333333 306.666666667 375 506 c 1
 329.666666667 306.666666667 262.333333333 131.333333333 173 -20 c 1
 75 80 l 1
EndSplineSet
Validated: 33
Colour: ffda6b
EndChar

StartChar: _.num.9
Encoding: 65623 -1 87
GlifName: _.num.9
Width: 606
VWidth: 1331
GlyphClass: 2
Flags: HMW
LayerCount: 2
Fore
SplineSet
441 500 m 2
 441 487 l 2
 441.666666667 481.666666667 443.666666667 466.833333333 447 442.5 c 128
 450.333333333 418.166666667 452.333333333 401 453 391 c 0
 469 281 495 177.333333333 531 80 c 1
 432 -20 l 1
 390.666666667 100.666666667 362 233.333333333 346 378 c 1
 320 372.666666667 294 370 268 370 c 0
 203.333333333 370 155 387.5 123 422.5 c 128
 91 457.5 75 501.666666667 75 555 c 0
 75 616.333333333 93.1666666667 672.5 129.5 723.5 c 128
 165.833333333 774.5 210 800 262 800 c 0
 312 800 354.166666667 774 388.5 722 c 128
 422.833333333 670 440.333333333 596 441 500 c 2
174 568 m 0
 174 543.333333333 181.166666667 522.833333333 195.5 506.5 c 128
 209.833333333 490.166666667 231.666666667 482 261 482 c 0
 283 482 307.666666667 486.666666667 335 496 c 1
 335.666666667 499.333333333 336 504.333333333 336 511 c 0
 336 515.666666667 335.833333333 522.833333333 335.5 532.5 c 128
 335.166666667 542.166666667 334.666666667 549.333333333 334 554 c 0
 330 595.333333333 319.833333333 626.5 303.5 647.5 c 128
 287.166666667 668.5 268 679 246 679 c 0
 227.333333333 679 210.666666667 667.333333333 196 644 c 128
 181.333333333 620.666666667 174 595.333333333 174 568 c 0
EndSplineSet
Validated: 1
Colour: ffda6b
EndChar

StartChar: _.sing.backslash
Encoding: 65624 -1 88
GlifName: _.sing.backslash
Width: 442
VWidth: 1197
GlyphClass: 2
Flags: HMW
LayerCount: 2
Fore
SplineSet
50 720 m 1
 151 720 l 1
 392 -14 l 1
 290 -14 l 1
 50 720 l 1
EndSplineSet
Validated: 1
Colour: ffda6b
EndChar

StartChar: _.sing.slash
Encoding: 65625 -1 89
GlifName: _.sing.slash
Width: 442
VWidth: 1197
GlyphClass: 2
Flags: HMW
LayerCount: 2
Fore
SplineSet
50 -14 m 1
 290 720 l 1
 392 720 l 1
 151 -14 l 1
 50 -14 l 1
EndSplineSet
Validated: 1
Colour: ffda6b
EndChar

StartChar: _.sing.tajob
Encoding: 65626 -1 90
GlifName: _.sing.tajob
Width: 255
VWidth: 1197
GlyphClass: 2
Flags: HMW
LayerCount: 2
Fore
SplineSet
50 81 m 1
 128 159 l 1
 205 81 l 1
 128 5 l 1
 50 81 l 1
77 756 m 1
 177 756 l 1
 161 220 l 1
 94 220 l 1
 77 756 l 1
EndSplineSet
Validated: 1
Colour: ffda6b
EndChar

StartChar: _.sing.soal
Encoding: 65627 -1 91
GlifName: _.sing.soal
Width: 460
VWidth: 1304
GlyphClass: 2
Flags: HMW
LayerCount: 2
Fore
SplineSet
229 759 m 0
 294.333333333 759 340.833333333 739.666666667 368.5 701 c 128
 396.166666667 662.333333333 410 607 410 535 c 2
 410 503 l 1
 333 503 l 1
 333 535 l 2
 333 629.666666667 298.333333333 677 229 677 c 0
 189.666666667 677 159.666666667 657 139 617 c 0
 133 603 130 589 130 575 c 0
 130 548.333333333 142 519 166 487 c 0
 170.666666667 480.333333333 177.666666667 471.166666667 187 459.5 c 128
 196.333333333 447.833333333 204.833333333 436.833333333 212.5 426.5 c 128
 220.166666667 416.166666667 226.666666667 406 232 396 c 0
 256 350.666666667 268 303.666666667 268 255 c 2
 268 215 l 1
 202 215 l 1
 202 242 l 2
 202 300 177 356 127 410 c 0
 123 415.333333333 116.833333333 423.166666667 108.5 433.5 c 128
 100.166666667 443.833333333 94 451.666666667 90 457 c 0
 63.3333333333 495 50 532.666666667 50 570 c 2
 50 579 l 2
 50 626.333333333 66 667.333333333 98 702 c 0
 129.333333333 740 173 759 229 759 c 0
157 77 m 1
 235 155 l 1
 312 77 l 1
 235 -0 l 1
 157 77 l 1
EndSplineSet
Validated: 1
Colour: ffda6b
EndChar

StartChar: _.sing.beezafeh
Encoding: 65628 -1 92
GlifName: _.sing.beezafeh
Width: 494
VWidth: 1352
GlyphClass: 2
Flags: HMW
LayerCount: 2
Fore
SplineSet
50 263 m 1
 50 335 l 1
 211 335 l 1
 211 495 l 1
 283 495 l 1
 283 335 l 1
 444 335 l 1
 444 263 l 1
 283 263 l 1
 283 103 l 1
 211 103 l 1
 211 263 l 1
 50 263 l 1
EndSplineSet
Validated: 1
Colour: ffda6b
EndChar

StartChar: _.sing.menha
Encoding: 65629 -1 93
GlifName: _.sing.menha
Width: 487
VWidth: 0
GlyphClass: 2
Flags: HMW
LayerCount: 2
Fore
SplineSet
50 215 m 1
 50 287 l 1
 437 287 l 1
 437 215 l 1
 50 215 l 1
243 58 m 128
 229.666666667 58 218.333333333 62.6666666667 209 72 c 128
 199.666666667 81.3333333333 195 92.6666666667 195 106 c 128
 195 119.333333333 199.666666667 130.666666667 209 140 c 128
 218.333333333 149.333333333 229.666666667 154 243 154 c 128
 256.333333333 154 268 149.166666667 278 139.5 c 128
 288 129.833333333 293 118.666666667 293 106 c 0
 293 92.6666666667 288 81.3333333333 278 72 c 128
 268 62.6666666667 256.333333333 58 243 58 c 128
243 348 m 128
 229.666666667 348 218.333333333 352.666666667 209 362 c 128
 199.666666667 371.333333333 195 382.666666667 195 396 c 128
 195 409.333333333 199.666666667 420.666666667 209 430 c 128
 218.333333333 439.333333333 229.666666667 444 243 444 c 128
 256.333333333 444 268 439.166666667 278 429.5 c 128
 288 419.833333333 293 408.666666667 293 396 c 128
 293 383.333333333 288 372.166666667 278 362.5 c 128
 268 352.833333333 256.333333333 348 243 348 c 128
EndSplineSet
Validated: 1
Colour: ffda6b
EndChar

StartChar: _.sing.virgul
Encoding: 65631 -1 95
GlifName: _.sing.virgul
Width: 258
VWidth: 1197
GlyphClass: 2
Flags: HMW
LayerCount: 2
Fore
SplineSet
130 103 m 1
 127.333333333 105.666666667 120.333333333 112.166666667 109 122.5 c 128
 97.6666666667 132.833333333 89.8333333333 140.666666667 85.5 146 c 128
 81.1666666667 151.333333333 75.5 159 68.5 169 c 128
 61.5 179 56.6666666667 189.333333333 54 200 c 128
 51.3333333333 210.666666667 50 222.666666667 50 236 c 0
 50.6666666667 264 60.6666666667 294 80 326 c 0
 96 354.666666667 118.333333333 382.666666667 147 410 c 1
 195 362 l 1
 192.333333333 360 186 353 176 341 c 0
 149.333333333 314.333333333 136 290.333333333 136 269 c 0
 136 262.333333333 137.666666667 255.833333333 141 249.5 c 128
 144.333333333 243.166666667 147.833333333 238.166666667 151.5 234.5 c 128
 155.166666667 230.833333333 160.333333333 226 167 220 c 128
 173.666666667 214 178 210 180 208 c 0
 182.666666667 205.333333333 187.333333333 201 194 195 c 128
 200.666666667 189 205.333333333 184.666666667 208 182 c 1
 130 103 l 1
EndSplineSet
Validated: 1
Colour: ffda6b
EndChar

StartChar: _.sing.dot_virgul
Encoding: 65632 -1 96
GlifName: _.sing.dot_virgul
Width: 256
VWidth: 1304
GlyphClass: 2
Flags: HMW
LayerCount: 2
Fore
SplineSet
129 210 m 1
 126.333333333 212.666666667 119.5 219.166666667 108.5 229.5 c 128
 97.5 239.833333333 89.8333333333 247.5 85.5 252.5 c 128
 81.1666666667 257.5 75.5 265 68.5 275 c 128
 61.5 285 56.6666666667 295.5 54 306.5 c 128
 51.3333333333 317.5 50 329.666666667 50 343 c 0
 52 399.666666667 84.3333333333 457.666666667 147 517 c 1
 194 469 l 1
 166.666666667 441.666666667 149.333333333 419.333333333 142 402 c 0
 138 395.333333333 136 388 136 380 c 0
 134 366 139.333333333 352.666666667 152 340 c 0
 164.666666667 329.333333333 182.666666667 312.333333333 206 289 c 1
 129 210 l 1
51 66 m 1
 129 144 l 1
 206 66 l 1
 129 -11 l 1
 51 66 l 1
EndSplineSet
Validated: 33
Colour: ffda6b
EndChar

StartChar: _.sing.2noqte
Encoding: 65633 -1 97
GlifName: _.sing.2noqte
Width: 255
VWidth: 1352
GlyphClass: 2
Flags: HMW
LayerCount: 2
Fore
SplineSet
50 106 m 1
 128 183 l 1
 205 106 l 1
 128 29 l 1
 50 106 l 1
50 327 m 1
 128 406 l 1
 205 327 l 1
 128 250 l 1
 50 327 l 1
EndSplineSet
Validated: 1
Colour: ffda6b
EndChar

StartChar: _.sing.noqte
Encoding: 65634 -1 98
GlifName: _.sing.noqte
Width: 254
VWidth: 1352
GlyphClass: 2
Flags: HMW
LayerCount: 2
Fore
SplineSet
50 136 m 1
 128 214 l 1
 204 136 l 1
 128 59 l 1
 50 136 l 1
EndSplineSet
Validated: 1
Colour: ffda6b
EndChar

StartChar: _.sing.gheiomeh.right
Encoding: 65635 -1 99
GlifName: _.sing.gheiomeh.right
Width: 425
VWidth: 1352
GlyphClass: 2
Flags: HMW
LayerCount: 2
Fore
SplineSet
172 -48 m 1
 90.6666666667 48.6666666667 50 145 50 241 c 0
 50 291 60.6666666667 340.333333333 82 389 c 0
 104 439 134 485.666666667 172 529 c 1
 226 484 l 1
 163.333333333 412 132 331 132 241 c 0
 132 151.666666667 163.333333333 71 226 -1 c 1
 172 -48 l 1
326 -40 m 1
 289.333333333 4.66666666667 261.166666667 48.6666666667 241.5 92 c 128
 221.833333333 135.333333333 212 185 212 241 c 128
 212 297 222 346.666666667 242 390 c 128
 262 433.333333333 290 477 326 521 c 1
 375 480 l 1
 345.666666667 444 323.5 407.5 308.5 370.5 c 128
 293.5 333.5 286 290.333333333 286 241 c 0
 286 151.666666667 315.666666667 72 375 2 c 1
 326 -40 l 1
EndSplineSet
Validated: 1
Colour: ffda6b
EndChar

StartChar: _.sing.gheiomeh.left
Encoding: 65636 -1 100
GlifName: _.sing.gheiomeh.left
Width: 426
VWidth: 1352
GlyphClass: 2
Flags: HMW
LayerCount: 2
Fore
SplineSet
139 241 m 0
 139 290.333333333 131.5 333.5 116.5 370.5 c 128
 101.5 407.5 79.3333333333 444 50 480 c 1
 99 521 l 1
 135 478.333333333 163.333333333 433 184 385 c 0
 204 339 214 291 214 241 c 0
 214 185.666666667 204 136.166666667 184 92.5 c 128
 164 48.8333333333 135.666666667 4.66666666667 99 -40 c 1
 50 2 l 1
 109.333333333 72 139 151.666666667 139 241 c 0
199 -3 m 1
 262.333333333 72.3333333333 294 153.666666667 294 241 c 0
 294 281.666666667 286 322.666666667 270 364 c 0
 254 408 230.333333333 448 199 484 c 1
 253 529 l 1
 291 485.666666667 321 439 343 389 c 0
 365 341 376 291.666666667 376 241 c 0
 376 191 365 141.333333333 343 92 c 0
 321.666666667 45.3333333333 291.666666667 -1.33333333333 253 -48 c 1
 199 -3 l 1
EndSplineSet
Validated: 1
Colour: ffda6b
EndChar

StartChar: _.sing.parantez.right
Encoding: 65637 -1 101
GlifName: _.sing.parantez.right
Width: 309
VWidth: 1352
GlyphClass: 2
Flags: HMW
LayerCount: 2
Fore
SplineSet
259 665 m 1
 219.666666667 608.333333333 189 551.333333333 167 494 c 128
 145 436.666666667 134 371.666666667 134 299 c 0
 134 172.333333333 175.666666667 51 259 -65 c 1
 201 -106 l 1
 137.666666667 -19.3333333333 92.3333333333 77 65 183 c 0
 55 221 50 259.666666667 50 299 c 0
 50 364.333333333 67.3333333333 439.666666667 102 525 c 0
 130 590.333333333 163 650.333333333 201 705 c 1
 259 665 l 1
EndSplineSet
Validated: 1
Colour: ffda6b
EndChar

StartChar: _.sing.parantez.left
Encoding: 65638 -1 102
GlifName: _.sing.parantez.left
Width: 309
VWidth: 1352
GlyphClass: 2
Flags: HMW
LayerCount: 2
Fore
SplineSet
176 299 m 0
 176 371.666666667 164.833333333 436.5 142.5 493.5 c 128
 120.166666667 550.5 89.3333333333 607.666666667 50 665 c 1
 108 705 l 2
 108.666666667 704.333333333 115.666666667 693.666666667 129 673 c 128
 142.333333333 652.333333333 152.666666667 636 160 624 c 0
 200 552.666666667 228.333333333 483.333333333 245 416 c 0
 254.333333333 379.333333333 259 340.333333333 259 299 c 0
 259 229.666666667 242 154.666666667 208 74 c 0
 182.666666667 14.6666666667 149.333333333 -45.3333333333 108 -106 c 1
 50 -65 l 1
 110.666666667 19.6666666667 149.666666667 107.666666667 167 199 c 0
 173 231 176 264.333333333 176 299 c 0
EndSplineSet
Validated: 1
Colour: ffda6b
EndChar

StartChar: _.sing.koroshe.right
Encoding: 65641 -1 105
GlifName: _.sing.koroshe.right
Width: 276
VWidth: 1197
GlyphClass: 2
Flags: HMW
LayerCount: 2
Fore
SplineSet
50 -57 m 1
 50 795 l 1
 226 795 l 1
 226 725 l 1
 120 725 l 1
 120 13 l 1
 226 13 l 1
 226 -57 l 1
 50 -57 l 1
EndSplineSet
Validated: 1
Colour: ffda6b
EndChar

StartChar: _.sing.koroshe.left
Encoding: 65642 -1 106
GlifName: _.sing.koroshe.left
Width: 276
VWidth: 1197
GlyphClass: 2
Flags: HMW
LayerCount: 2
Fore
SplineSet
50 13 m 1
 156 13 l 1
 156 725 l 1
 50 725 l 1
 50 795 l 1
 226 795 l 1
 226 -57 l 1
 50 -57 l 1
 50 13 l 1
EndSplineSet
Validated: 1
Colour: ffda6b
EndChar

StartChar: _.sing.akolad.right
Encoding: 65643 -1 107
GlifName: _.sing.akolad.right
Width: 327
VWidth: 1197
GlyphClass: 2
Flags: HMW
LayerCount: 2
Fore
SplineSet
245 -125 m 2
 205.666666667 -125 177.333333333 -115.5 160 -96.5 c 128
 142.666666667 -77.5 133 -48.3333333333 131 -9 c 0
 131 -1.66666666667 130.833333333 10 130.5 26 c 128
 130.166666667 42 130 54.3333333333 130 63 c 2
 130 132 l 1
 126 221.333333333 99.3333333333 266 50 266 c 1
 50 336 l 1
 70.6666666667 336 87.1666666667 343.5 99.5 358.5 c 128
 111.833333333 373.5 119.666666667 389.666666667 123 407 c 128
 126.333333333 424.333333333 128.666666667 445.666666667 130 471 c 2
 130 540 l 2
 130 548.666666667 130.166666667 561 130.5 577 c 128
 130.833333333 593 131 604.666666667 131 612 c 0
 133 651.333333333 142.666666667 680.333333333 160 699 c 128
 177.333333333 717.666666667 205.666666667 727 245 727 c 2
 277 727 l 1
 277 657 l 1
 263 657 l 2
 239.666666667 657 223 651.333333333 213 640 c 128
 203 628.666666667 198 611 198 587 c 0
 196.666666667 565.666666667 196 546 196 528 c 0
 196 504 195.833333333 484.5 195.5 469.5 c 128
 195.166666667 454.5 193.666666667 436.333333333 191 415 c 128
 188.333333333 393.666666667 184.666666667 376.5 180 363.5 c 128
 175.333333333 350.5 168.333333333 338 159 326 c 128
 149.666666667 314 138.333333333 305.666666667 125 301 c 1
 141.666666667 295 155 284.666666667 165 270 c 128
 175 255.333333333 182.166666667 236.166666667 186.5 212.5 c 128
 190.833333333 188.833333333 193.5 167.666666667 194.5 149 c 128
 195.5 130.333333333 196 105.666666667 196 75 c 0
 196 57 196.666666667 37.3333333333 198 16 c 0
 198 -8 203 -25.6666666667 213 -37 c 128
 223 -48.3333333333 239.666666667 -54 263 -54 c 2
 277 -54 l 1
 277 -125 l 1
 245 -125 l 2
EndSplineSet
Validated: 1
Colour: ffda6b
EndChar

StartChar: _.sing.akolad.left
Encoding: 65644 -1 108
GlifName: _.sing.akolad.left
Width: 327
VWidth: 1197
GlyphClass: 2
Flags: HMW
LayerCount: 2
Fore
SplineSet
194 -9 m 0
 194 -86.3333333333 156.666666667 -125 82 -125 c 2
 50 -125 l 1
 50 -54 l 1
 62 -54 l 2
 86 -54 102.666666667 -48.6666666667 112 -38 c 128
 121.333333333 -27.3333333333 127 -9.33333333333 129 16 c 0
 129 20.6666666667 129.166666667 29.6666666667 129.5 43 c 128
 129.833333333 56.3333333333 130 67 130 75 c 0
 130 100.333333333 130.166666667 120 130.5 134 c 128
 130.833333333 148 132.333333333 165.833333333 135 187.5 c 128
 137.666666667 209.166666667 141.333333333 226.333333333 146 239 c 128
 150.666666667 251.666666667 157.666666667 264 167 276 c 128
 176.333333333 288 187.666666667 296.333333333 201 301 c 1
 187.666666667 305.666666667 176.333333333 314 167 326 c 128
 157.666666667 338 150.666666667 350.333333333 146 363 c 128
 141.333333333 375.666666667 137.666666667 392.833333333 135 414.5 c 128
 132.333333333 436.166666667 130.833333333 454.166666667 130.5 468.5 c 128
 130.166666667 482.833333333 130 502.666666667 130 528 c 0
 130 536 129.833333333 546.666666667 129.5 560 c 128
 129.166666667 573.333333333 129 582.333333333 129 587 c 0
 127 612.333333333 121.333333333 630.333333333 112 641 c 128
 102.666666667 651.666666667 86 657 62 657 c 2
 50 657 l 1
 50 727 l 1
 82 727 l 2
 156.666666667 727 194 688.666666667 194 612 c 0
 194.666666667 596.666666667 195 572.666666667 195 540 c 0
 195 464.060553917 200.000192901 412.92976688 210.000578704 386.607638889 c 0
 222.818587785 352.869212963 245.151728217 336 277 336 c 1
 277 266 l 1
 240.333333333 266 216.333333333 243 205 197 c 0
 199 173 196 150.666666667 196 130 c 0
 195.333333333 114.666666667 195 92.3333333333 195 63 c 0
 195 30.3333333333 194.666666667 6.33333333333 194 -9 c 0
EndSplineSet
Validated: 33
Colour: ffda6b
EndChar

StartChar: _.mark.maad
Encoding: 65645 -1 109
GlifName: _.mark.maad
Width: 0
VWidth: 1352
GlyphClass: 2
Flags: HMW
LayerCount: 2
Fore
SplineSet
0 26 m 1
 32 92 l 2
 45.3333333333 122.666666667 64.3333333333 138 89 138 c 0
 95 138 101 137 107 135 c 0
 141 125 179 120 221 120 c 0
 243.666666667 120 264 121.333333333 282 124 c 0
 292 126 305.666666667 130 323 136 c 128
 340.333333333 142 352.333333333 146 359 148 c 1
 366 74 l 1
 324 59.3333333333 298 51.3333333333 288 50 c 0
 261.333333333 46.6666666667 237.333333333 45 216 45 c 0
 167.333333333 45 124 51.6666666667 86 65 c 1
 82 57 76.1666666667 45.1666666667 68.5 29.5 c 128
 60.8333333333 13.8333333333 56 4 54 0 c 1
 0 26 l 1
EndSplineSet
Validated: 1
Colour: ffda6b
EndChar

StartChar: _.mark.fatheh
Encoding: 65646 -1 110
GlifName: _.mark.fatheh
Width: 0
VWidth: 2310
GlyphClass: 2
Flags: HMW
LayerCount: 2
Fore
SplineSet
0 45 m 1
 256 165 l 1
 278 114 l 1
 23 -5 l 1
 0 45 l 1
EndSplineSet
Validated: 1
Colour: ffda6b
EndChar

StartChar: _.mark.kasreh
Encoding: 65647 -1 111
GlifName: _.mark.kasreh
Width: 0
VWidth: 2384
GlyphClass: 2
Flags: HMW
LayerCount: 2
Fore
SplineSet
0 -125 m 1
 256 -6 l 1
 278 -56 l 1
 23 -175 l 1
 0 -125 l 1
EndSplineSet
Validated: 1
Colour: ffda6b
EndChar

StartChar: _.mark.zameh
Encoding: 65648 -1 112
GlifName: _.mark.zameh
Width: 0
VWidth: 2277
GlyphClass: 2
Flags: HMW
LayerCount: 2
Fore
SplineSet
203 280 m 1
 247 275.333333333 272.333333333 246.666666667 279 194 c 1
 279 139.333333333 250.333333333 99.3333333333 193 74 c 2
 23 -5 l 1
 0 44 l 1
 177 127 l 2
 192.333333333 134.333333333 204.166666667 142.333333333 212.5 151 c 128
 220.833333333 159.666666667 225 172 225 188 c 0
 225 196 222 203.5 216 210.5 c 128
 210 217.5 203 221 195 221 c 0
 185 221 176.333333333 217.833333333 169 211.5 c 128
 161.666666667 205.166666667 158 197.333333333 158 188 c 0
 158 183.333333333 158.5 179 159.5 175 c 128
 160.5 171 161.333333333 167.833333333 162 165.5 c 128
 162.666666667 163.166666667 164.333333333 160.166666667 167 156.5 c 128
 169.666666667 152.833333333 171.333333333 150.333333333 172 149 c 128
 172.666666667 147.666666667 174.833333333 145 178.5 141 c 128
 182.166666667 137 184.333333333 134.666666667 185 134 c 2
 208 111 l 1
 167 82 l 1
 165 84.6666666667 159 91.6666666667 149 103 c 128
 139 114.333333333 132.5 122.5 129.5 127.5 c 128
 126.5 132.5 122.833333333 140.5 118.5 151.5 c 128
 114.166666667 162.5 112 174 112 186 c 0
 112 213.333333333 120.5 235.833333333 137.5 253.5 c 128
 154.5 271.166666667 176.333333333 280 203 280 c 1
EndSplineSet
Validated: 5
Colour: ffda6b
EndChar

StartChar: _.mark.tanvin_fatheh
Encoding: 65649 -1 113
GlifName: _.mark.tanvin_fatheh
Width: 0
VWidth: 2280
GlyphClass: 2
Flags: HMW
LayerCount: 2
Fore
SplineSet
0 49 m 1
 256 168 l 1
 278 118 l 1
 23 -0 l 1
 0 49 l 1
0 170 m 1
 256 289 l 1
 278 240 l 1
 23 120 l 1
 0 170 l 1
EndSplineSet
Validated: 1
Colour: ffda6b
EndChar

StartChar: _.mark.tanvin_kasreh
Encoding: 65650 -1 114
GlifName: _.mark.tanvin_kasreh
Width: 0
VWidth: 2413
GlyphClass: 2
Flags: HMW
LayerCount: 2
Fore
SplineSet
0 -120 m 1
 256 -1 l 1
 279 -51 l 1
 23 -170 l 1
 0 -120 l 1
0 -240 m 1
 256 -122 l 1
 279 -171 l 1
 23 -291 l 1
 0 -240 l 1
EndSplineSet
Validated: 1
Colour: ffda6b
EndChar

StartChar: _.mark.tanvin_zameh
Encoding: 65651 -1 115
GlifName: _.mark.tanvin_zameh
Width: 0
VWidth: 2273
GlyphClass: 2
Flags: HMW
LayerCount: 2
Fore
SplineSet
0 151 m 1
 25 111 l 2
 27 112.333333333 30.1666666667 114.166666667 34.5 116.5 c 128
 38.8333333333 118.833333333 42 121 44 123 c 0
 50.6666666667 125.666666667 55.6666666667 127 59 127 c 0
 68.3333333333 127 73 118.333333333 73 101 c 0
 72.3333333333 93.6666666667 69.6666666667 82 65 66 c 1
 106 90 l 1
 108 100.666666667 109 110.333333333 109 119 c 0
 109 137 104.666666667 151.333333333 96 162 c 128
 87.3333333333 172.666666667 75 178 59 178 c 0
 40.3333333333 176 20.6666666667 167 0 151 c 1
131 193 m 0
 131 220.333333333 139.5 243 156.5 261 c 128
 173.5 279 195.333333333 288 222 288 c 1
 244.666666667 285.333333333 262.833333333 276.333333333 276.5 261 c 128
 290.166666667 245.666666667 297 226 297 202 c 2
 297 196 l 2
 297 143.333333333 268.666666667 105 212 81 c 2
 42 2 l 1
 18 52 l 1
 196 134 l 2
 228 148.666666667 244 168.666666667 244 194 c 0
 244 202.666666667 240.833333333 210.666666667 234.5 218 c 128
 228.166666667 225.333333333 221 229 213 229 c 0
 203 229 194.333333333 225.833333333 187 219.5 c 128
 179.666666667 213.166666667 176 205.333333333 176 196 c 0
 176 192.666666667 176.166666667 189.5 176.5 186.5 c 128
 176.833333333 183.5 177.333333333 180.833333333 178 178.5 c 128
 178.666666667 176.166666667 179.666666667 173.5 181 170.5 c 128
 182.333333333 167.5 183.5 165.333333333 184.5 164 c 128
 186 162 186 162 189 158 c 128
 191 155.333333333 192.333333333 153.5 193 152.5 c 128
 193.666666667 151.5 195.333333333 149.5 198 146.5 c 128
 200.666666667 143.5 202.333333333 141.666666667 203 141 c 0
 204.333333333 139.666666667 206.666666667 137.5 210 134.5 c 128
 213.333333333 131.5 216.333333333 128.5 219 125.5 c 128
 221.666666667 122.5 224.333333333 119.666666667 227 117 c 1
 186 90 l 1
 183.333333333 93.3333333333 177.5 100.166666667 168.5 110.5 c 128
 159.5 120.833333333 153 128.833333333 149 134.5 c 128
 145 140.166666667 141 148.333333333 137 159 c 128
 133 169.666666667 131 181 131 193 c 0
EndSplineSet
Validated: 5
Colour: ffda6b
EndChar

StartChar: _.mark.tashdid
Encoding: 65652 -1 116
GlifName: _.mark.tashdid
Width: 0
VWidth: 1833
GlyphClass: 2
Flags: HMW
LayerCount: 2
Fore
SplineSet
0 119 m 0
 0 131.666666667 0.333333333333 141.666666667 1 149 c 0
 1 154.333333333 1.66666666667 161.666666667 3 171 c 128
 4.33333333333 180.333333333 5 186 5 188 c 2
 51 184 l 1
 45.6666666667 157.333333333 43 136.333333333 43 121 c 0
 43 99 46.3333333333 82 53 70 c 128
 59.6666666667 58 68 52 78 52 c 0
 93.3333333333 52 108.833333333 64.3333333333 124.5 89 c 128
 140.166666667 113.666666667 151.333333333 147 158 189 c 1
 198 181 l 1
 175 81 l 1
 200.333333333 60.3333333333 220 50 234 50 c 0
 254.666666667 50 265 72 265 116 c 0
 265 123.333333333 264.833333333 131.166666667 264.5 139.5 c 128
 264.166666667 147.833333333 263.5 156.333333333 262.5 165 c 128
 261.5 173.666666667 261 180 261 184 c 1
 307 188 l 1
 308.333333333 177.333333333 309 161 309 139 c 0
 309 98.3333333333 303.5 64.8333333333 292.5 38.5 c 128
 281.5 12.1666666667 264 -1 240 -1 c 0
 216.666666667 -1 188 12.6666666667 154 40 c 1
 131.333333333 14 105 1 75 1 c 0
 53.6666666667 1 35.8333333333 10.6666666667 21.5 30 c 128
 7.16666666667 49.3333333333 0 79 0 119 c 0
EndSplineSet
Validated: 1
Colour: ffda6b
EndChar

StartChar: _.mark.hamze
Encoding: 65653 -1 117
GlifName: _.mark.hamze
Width: 0
VWidth: 1841
GlyphClass: 2
Flags: HMW
LayerCount: 2
Fore
SplineSet
138 291 m 0
 118.666666667 291 102.666666667 286 90 276 c 128
 77.3333333333 266 71 251.666666667 71 233 c 0
 71 213 78.3333333333 196.833333333 93 184.5 c 128
 107.666666667 172.166666667 122.666666667 164.666666667 138 162 c 1
 256 218 l 1
 279 167 l 1
 23 49 l 1
 0 98 l 1
 78 134 l 1
 40 152 21 183 21 227 c 0
 21 258.333333333 31.5 285.833333333 52.5 309.5 c 128
 73.5 333.166666667 101.666666667 345 137 345 c 0
 160.333333333 345 185.666666667 338.666666667 213 326 c 1
 203 280 l 1
 175.666666667 287.333333333 154 291 138 291 c 0
EndSplineSet
Validated: 1
Colour: ffda6b
EndChar

StartChar: _.mark.sakon
Encoding: 65654 -1 118
GlifName: _.mark.sakon
Width: 0
VWidth: 2099
GlyphClass: 2
Flags: HMW
LayerCount: 2
Fore
SplineSet
164 145 m 128
 164 121 156.333333333 100.833333333 141 84.5 c 128
 125.666666667 68.1666666667 106 60 82 60 c 0
 45.3333333333 60 20.3333333333 77.3333333333 7 112 c 0
 2.33333333333 121.333333333 0 132.333333333 0 145 c 0
 0 180.333333333 16.6666666667 206.333333333 50 223 c 0
 60 227 70.6666666667 229 82 229 c 0
 106 229 125.666666667 221 141 205 c 128
 156.333333333 189 164 169 164 145 c 128
80 181 m 0
 70 181 61.3333333333 177.333333333 54 170 c 128
 46.6666666667 162.666666667 43 154 43 144 c 0
 43 133.333333333 46.5 124.5 53.5 117.5 c 128
 60.5 110.5 69.3333333333 107 80 107 c 128
 90.6666666667 107 99.6666666667 110.5 107 117.5 c 128
 114.333333333 124.5 118 133.333333333 118 144 c 0
 118 154 114.333333333 162.666666667 107 170 c 128
 99.6666666667 177.333333333 90.6666666667 181 80 181 c 0
EndSplineSet
Validated: 1
Colour: ffda6b
EndChar

StartChar: _.mark.alef
Encoding: 65655 -1 119
GlifName: _.mark.alef
Width: 0
VWidth: 2091
GlyphClass: 2
Flags: HMW
LayerCount: 2
Fore
SplineSet
0 245 m 1
 52 263 l 1
 66.6666666667 222.333333333 76.5 185.166666667 81.5 151.5 c 128
 86.5 117.833333333 89 76 89 26 c 1
 42 26 l 1
 42 94 28 167 0 245 c 1
EndSplineSet
Validated: 1
Colour: ffda6b
EndChar

StartChar: _.sing.momaiez
Encoding: 65656 -1 120
GlifName: _.sing.momaiez
Width: 402
VWidth: 1352
GlyphClass: 2
Flags: HMW
LayerCount: 2
Fore
SplineSet
50 -189 m 1
 265 410 l 1
 352 400 l 1
 141 -198 l 1
 134 -200 127 -201 120 -201 c 0
 104 -201 80.6666666667 -197 50 -189 c 1
EndSplineSet
Validated: 1
Colour: ffda6b
EndChar

StartChar: _.sing.hezare
Encoding: 65657 -1 121
GlifName: _.sing.hezare
Width: 222
VWidth: 1197
GlyphClass: 2
Flags: HMW
LayerCount: 2
Fore
SplineSet
50 900 m 1
 172 900 l 1
 130 700 l 1
 91 700 l 1
 50 900 l 1
EndSplineSet
Validated: 1
Colour: ffda6b
EndChar

StartChar: _.sing.darsad
Encoding: 65658 -1 122
GlifName: _.sing.darsad
Width: 620
VWidth: 1197
GlyphClass: 2
Flags: HMW
LayerCount: 2
Fore
SplineSet
50 88 m 1
 471 736 l 1
 570 709 l 1
 147 63 l 1
 50 88 l 1
94 661 m 1
 110.666666667 695 131 729 155 763 c 1
 229.666666667 721.666666667 267 693 267 677 c 0
 267 661.666666667 250 629.333333333 216 580 c 1
 146 628.666666667 105.333333333 655.666666667 94 661 c 1
371 132 m 1
 388.333333333 164 409.333333333 198 434 234 c 1
 508 191.333333333 545 159.666666667 545 139 c 0
 545 131.666666667 527.666666667 102.666666667 493 52 c 1
 419.666666667 101.333333333 379 128 371 132 c 1
EndSplineSet
Validated: 1
Colour: ffda6b
EndChar

StartChar: _.sing.mosavi
Encoding: 65659 -1 123
GlifName: _.sing.mosavi
Width: 488
VWidth: 1197
GlyphClass: 2
Flags: HMW
LayerCount: 2
Fore
SplineSet
50 124 m 1
 50 194 l 1
 438 194 l 1
 438 124 l 1
 50 124 l 1
50 300 m 1
 50 370 l 1
 438 370 l 1
 438 300 l 1
 50 300 l 1
EndSplineSet
Validated: 1
Colour: ffda6b
EndChar

StartChar: _.beh_k.init
Encoding: 65661 -1 125
GlifName: _.beh_k.init
Width: 327
VWidth: 1197
GlyphClass: 2
UnlinkRmOvrlpSave: 1
Flags: HMW
LayerCount: 2
Fore
SplineSet
-50 49 m 0
 -50 62.3333333333 -45 74.1666666667 -35 84.5 c 128
 -25 94.8333333333 -13.6666666667 100 -1 100 c 2
 29 100 l 2
 100.333333333 100 151.666666667 113 183 139 c 1
 183 146 l 2
 183 203.333333333 167 273.333333333 135 356 c 1
 211 421 l 1
 245.666666667 327 263 249 263 187 c 0
 263 98.3333333333 226 41.3333333333 152 16 c 1
 152 17 l 1
 118.666666667 5.66666666667 76.3333333333 0 25 0 c 2
 -1 -0 l 2
 -13 0 -24.1666666667 5 -34.5 15 c 128
 -44.8333333333 25 -50 36.3333333333 -50 49 c 0
EndSplineSet
Colour: ffda6b
EndChar

StartChar: _.beh_k.medi
Encoding: 65662 -1 126
GlifName: _.beh_k.medi
Width: 440
VWidth: 1304
GlyphClass: 2
UnlinkRmOvrlpSave: 1
Flags: HMW
LayerCount: 2
Fore
SplineSet
-50 50 m 0
 -49.3333333333 63.3333333333 -44 75 -34 85 c 128
 -24 95 -12.6666666667 100 0 100 c 2
 50 100 l 2
 93.3333333333 100 131.333333333 105.333333333 164 116 c 0
 182 122 193.333333333 129.833333333 198 139.5 c 128
 202.666666667 149.166666667 205 166 205 190 c 2
 205 224 l 1
 205 320 l 1
 285 331 l 1
 285 204 l 1
 281 143 l 1
 299.666666667 127 320.833333333 115.833333333 344.5 109.5 c 128
 368.166666667 103.166666667 400 100 440 100 c 1
 440 -0 l 1
 346.666666667 0 281.333333333 22 244 66 c 1
 208 22 143.333333333 0 50 0 c 2
 0 -0 l 2
 -12.6666666667 0 -24.1666666667 5.16666666667 -34.5 15.5 c 128
 -44.8333333333 25.8333333333 -50 37.3333333333 -50 50 c 0
EndSplineSet
Colour: ffda6b
EndChar

StartChar: _.sing.3noqte
Encoding: 65663 -1 127
GlifName: _.sing.3noqte
Width: 767
VWidth: 1304
GlyphClass: 2
Flags: HMW
LayerCount: 2
Fore
SplineSet
50 136 m 1
 128 214 l 1
 205 136 l 1
 128 59 l 1
 50 136 l 1
300 136 m 1
 377 214 l 1
 454 136 l 1
 377 59 l 1
 300 136 l 1
562 136 m 1
 640 214 l 1
 717 136 l 1
 640 59 l 1
 562 136 l 1
EndSplineSet
Validated: 1
Colour: ffda6b
EndChar

StartChar: s.khat_tire
Encoding: 8208 8208 138
GlifName: s.khat_tire
Width: 504
VWidth: 0
GlyphClass: 2
Flags: HMW
LayerCount: 2
Fore
SplineSet
55 229 m 1
 55 307 l 1
 451 307 l 1
 451 229 l 1
 55 229 l 1
EndSplineSet
Validated: 1
Colour: d7d7d7
EndChar

StartChar: s.zwj
Encoding: 8205 8205 174
GlifName: s.zwj
Width: 0
VWidth: 1331
GlyphClass: 2
Flags: HMW
LayerCount: 2
Fore
SplineSet
25 -327 m 1
 -25 -327 l 1
 -25 579 l 1
 -111 491 l 1
 -141 521 l 1
 -30 631 l 1
 -141 740 l 1
 -111 772 l 1
 0 660 l 1
 111 772 l 1
 141 740 l 1
 30 631 l 1
 141 521 l 1
 111 491 l 1
 25 579 l 1
 25 -327 l 1
EndSplineSet
Validated: 1
Colour: d7d7d7
EndChar

StartChar: s.tagsim
Encoding: 247 247 182
GlifName: s.tagsim
Width: 564
VWidth: 1278
GlyphClass: 2
Flags: HMW
LayerCount: 2
Fore
SplineSet
59 352 m 1
 59 429 l 1
 506 429 l 1
 506 352 l 1
 59 352 l 1
234 204 m 1
 234 299 l 1
 330 299 l 1
 330 204 l 1
 234 204 l 1
234 482 m 1
 234 577 l 1
 330 577 l 1
 330 482 l 1
 234 482 l 1
EndSplineSet
Validated: 1
Colour: d7d7d7
EndChar

StartChar: s.zwnj
Encoding: 8204 8204 215
GlifName: s.zwnj
Width: 0
VWidth: 1331
GlyphClass: 2
Flags: HMW
LayerCount: 2
Fore
SplineSet
-25 -308 m 1
 -25 710 l 1
 25 710 l 1
 25 -308 l 1
 -25 -308 l 1
EndSplineSet
Validated: 1
Colour: d7d7d7
EndChar

StartChar: s.dotted_circle
Encoding: 9676 9676 220
GlifName: s.dotted_circle
Width: 576
VWidth: 1890
GlyphClass: 2
Flags: HMW
LayerCount: 2
Fore
SplineSet
60 181 m 128
 60 195.666666667 67.3333333333 203 82 203 c 128
 96.6666666667 203 104 196 104 182 c 2
 104 180 l 2
 104 166 96.6666666667 159 82 159 c 128
 67.3333333333 159 60 166.333333333 60 181 c 128
76 103 m 128
 76 118.333333333 83.3333333333 126 98 126 c 128
 112.666666667 126 120 118.333333333 120 103 c 128
 120 87.6666666667 112.666666667 80 98 80 c 128
 83.3333333333 80 76 87.6666666667 76 103 c 128
76 259 m 128
 76 274.333333333 83.3333333333 282 98 282 c 128
 112.666666667 282 120 274.333333333 120 259 c 128
 120 243.666666667 113 236 99 236 c 0
 83.6666666667 236 76 243.666666667 76 259 c 128
120 34 m 128
 120 48.6666666667 127.333333333 56.3333333333 142 57 c 0
 156.666666667 56.3333333333 164.333333333 48.6666666667 165 34 c 0
 164.333333333 19.3333333333 156.666666667 12 142 12 c 128
 127.333333333 12 120 19.3333333333 120 34 c 128
120 326 m 128
 120 340.666666667 127.333333333 348.333333333 142 349 c 0
 156.666666667 348.333333333 164.333333333 340.666666667 165 326 c 0
 164.333333333 311.333333333 156.666666667 304 142 304 c 128
 127.333333333 304 120 311.333333333 120 326 c 128
187 -8 m 128
 187 6.66666666667 194.666666667 14 210 14 c 128
 225.333333333 14 233 6.66666666667 233 -8 c 128
 233 -22.6666666667 225.333333333 -30 210 -30 c 128
 194.666666667 -30 187 -22.6666666667 187 -8 c 128
187 372 m 128
 187 386.666666667 194.666666667 394 210 394 c 128
 225.333333333 394 233 386.666666667 233 372 c 128
 233 357.333333333 225.333333333 350 210 350 c 128
 194.666666667 350 187 357.333333333 187 372 c 128
310 -26 m 128
 310 -40.6666666667 302.666666667 -48 288 -48 c 128
 273.333333333 -48 265.666666667 -40.6666666667 265 -26 c 0
 265.666666667 -11.3333333333 273.333333333 -3.66666666667 288 -3 c 0
 302.666666667 -3.66666666667 310 -11.3333333333 310 -26 c 128
288 410 m 128
 302.666666667 410 310 402.666666667 310 388 c 128
 310 373.333333333 302.666666667 365.666666667 288 365 c 0
 273.333333333 365.666666667 265.666666667 373.333333333 265 388 c 0
 265.666666667 402.666666667 273.333333333 410 288 410 c 128
344 -8 m 0
 344 6.66666666667 351.666666667 14 367 14 c 128
 382.333333333 14 390 6.66666666667 390 -8 c 0
 390 -22 382.333333333 -29.6666666667 367 -31 c 0
 351.666666667 -29.6666666667 344 -22 344 -8 c 0
344 372 m 0
 344 386.666666667 351.666666667 394 367 394 c 128
 382.333333333 394 390 386.666666667 390 372 c 0
 390 358 382.333333333 350.333333333 367 349 c 0
 351.666666667 350.333333333 344 358 344 372 c 0
412 34 m 128
 412 48.6666666667 419.333333333 56.3333333333 434 57 c 0
 448.666666667 56.3333333333 456 48.6666666667 456 34 c 128
 456 19.3333333333 448.666666667 12 434 12 c 128
 419.333333333 12 412 19.3333333333 412 34 c 128
412 326 m 128
 412 340.666666667 419.333333333 348.333333333 434 349 c 0
 448.666666667 348.333333333 456 340.666666667 456 326 c 128
 456 311.333333333 448.666666667 304 434 304 c 128
 419.333333333 304 412 311.333333333 412 326 c 128
456 103 m 128
 456 118.333333333 463.333333333 126 478 126 c 0
 492 126 499.666666667 118.333333333 501 103 c 0
 499.666666667 87.6666666667 492 80 478 80 c 0
 463.333333333 80 456 87.6666666667 456 103 c 128
456 259 m 128
 456 274.333333333 463.333333333 282 478 282 c 0
 492 282 499.666666667 274.333333333 501 259 c 0
 499.666666667 243.666666667 492 236 478 236 c 0
 463.333333333 236 456 243.666666667 456 259 c 128
472 181 m 128
 472 195.666666667 479.333333333 203 494 203 c 128
 508.666666667 203 516.333333333 196 517 182 c 2
 517 180 l 2
 516.333333333 166 508.666666667 159 494 159 c 128
 479.333333333 159 472 166.333333333 472 181 c 128
EndSplineSet
Validated: 1
Colour: d7d7d7
EndChar

StartChar: s.figure_dash
Encoding: 8210 8210 224
GlifName: s.figure_dash
Width: 600
VWidth: 0
GlyphClass: 2
Flags: HMW
LayerCount: 2
Fore
SplineSet
55 229 m 1
 55 307 l 1
 547 307 l 1
 547 229 l 1
 55 229 l 1
EndSplineSet
Validated: 1
Colour: d7d7d7
EndChar

StartChar: s.em_dash
Encoding: 8212 8212 263
GlifName: s.em_dash
Width: 1200
VWidth: 1175
GlyphClass: 2
Flags: HMW
LayerCount: 2
Fore
SplineSet
55 229 m 1
 55 307 l 1
 1147 307 l 1
 1147 229 l 1
 55 229 l 1
EndSplineSet
Validated: 1
Colour: d7d7d7
EndChar

StartChar: s.bullet
Encoding: 8226 8226 278
GlifName: s.bullet
Width: 602
VWidth: 1331
GlyphClass: 2
Flags: HMW
LayerCount: 2
Fore
SplineSet
532 432 m 0
 532 369.333333333 509.333333333 315.333333333 464 270 c 128
 418.666666667 224.666666667 364.666666667 202 302 202 c 0
 245.333333333 202 193.666666667 223.5 147 266.5 c 128
 100.333333333 309.5 77 357.333333333 77 410 c 0
 77 483.333333333 98.5 541.666666667 141.5 585 c 128
 184.5 628.333333333 235.666666667 650 295 650 c 0
 368.333333333 650 426.166666667 630.333333333 468.5 591 c 128
 510.833333333 551.666666667 532 498.666666667 532 432 c 0
EndSplineSet
Validated: 1
Colour: d7d7d7
EndChar

StartChar: s.en_dash
Encoding: 8211 8211 310
GlifName: s.en_dash
Width: 600
VWidth: 1175
GlyphClass: 2
Flags: HMW
LayerCount: 2
Fore
SplineSet
55 229 m 1
 55 307 l 1
 547 307 l 1
 547 229 l 1
 55 229 l 1
EndSplineSet
Validated: 1
Colour: d7d7d7
EndChar

StartChar: s.horizontal_bar
Encoding: 8213 8213 316
GlifName: s.horizontal_bar
Width: 2400
VWidth: 1175
GlyphClass: 2
Flags: HMW
LayerCount: 2
Fore
SplineSet
55 229 m 1
 55 307 l 1
 2347 307 l 1
 2347 229 l 1
 55 229 l 1
EndSplineSet
Validated: 1
Colour: d7d7d7
EndChar

StartChar: s.lrm
Encoding: 8206 8206 317
GlifName: s.lrm
Width: 0
VWidth: 1331
GlyphClass: 2
Flags: HMW
LayerCount: 2
Fore
SplineSet
-25 -308 m 1
 -25 676 l 1
 196 676 l 1
 106 759 l 1
 138 790 l 1
 280 651 l 1
 138 510 l 1
 106 544 l 1
 196 628 l 1
 22 628 l 1
 22 -308 l 1
 -25 -308 l 1
EndSplineSet
Validated: 1
Colour: d7d7d7
EndChar

StartChar: s.rlm
Encoding: 8207 8207 346
GlifName: s.rlm
Width: 0
VWidth: 1331
GlyphClass: 2
Flags: HMW
LayerCount: 2
Fore
SplineSet
22 676 m 1
 22 -308 l 1
 -25 -308 l 1
 -25 628 l 1
 -196 628 l 1
 -108 544 l 1
 -138 510 l 1
 -280 651 l 1
 -138 790 l 1
 -108 759 l 1
 -196 676 l 1
 22 676 l 1
EndSplineSet
Validated: 1
Colour: d7d7d7
EndChar

StartChar: _.mark.he_yeh
Encoding: 65664 -1 400
GlifName: _.mark.he_yeh
Width: 209
VWidth: 1304
GlyphClass: 1
UnlinkRmOvrlpSave: 1
Flags: HMW
LayerCount: 2
Fore
SplineSet
192 89 m 2
 192 90 l 2
 192 95.3333333333 183.666666667 100 167 104 c 0
 153 107.333333333 144.333333333 109 141 109 c 0
 122.333333333 113.666666667 113 124.333333333 113 141 c 0
 113 175.666666667 134.666666667 206.666666667 178 234 c 0
 191.333333333 241.333333333 202 245 210 245 c 1
 210 200 l 1
 186 200 165 187.333333333 147 162 c 1
 145 156 l 2
 145 152 156.666666667 146 180 138 c 0
 204.666666667 130 218.333333333 124 221 120 c 0
 224.333333333 115.333333333 226 106 226 92 c 0
 226 76.6666666667 219.333333333 62.3333333333 206 49 c 0
 169.333333333 12.3333333333 100.666666667 -6 0 -6 c 1
 17 42 l 1
 96.3333333333 42 150 53 178 75 c 0
 187.333333333 82.3333333333 192 87 192 89 c 2
EndSplineSet
EndChar

StartChar: uni0000
Encoding: 0 0 401
GlifName: uni0000
Width: 497
VWidth: 0
GlyphClass: 2
Flags: HMW
LayerCount: 2
Fore
SplineSet
59 -251 m 1
 59 709 l 1
 438 709 l 1
 438 -251 l 1
 59 -251 l 1
105 -181 m 1
 387 -181 l 1
 387 648 l 1
 105 648 l 1
 105 -181 l 1
EndSplineSet
Validated: 1
EndChar

StartChar: _.ghaf.medi
Encoding: 65665 -1 402
GlifName: _.ghaf.medi
Width: 518
VWidth: 0
GlyphClass: 2
Flags: HMW
LayerCount: 2
Fore
SplineSet
60 100 m 2
 91.3333333333 100 119.166666667 102.166666667 143.5 106.5 c 128
 167.833333333 110.833333333 189 118.833333333 207 130.5 c 128
 225 142.166666667 234 157.333333333 234 176 c 0
 234 210.666666667 215.666666667 257.5 179 316.5 c 128
 142.333333333 375.5 82.3333333333 436.666666667 -1 500 c 1
 36 620 l 1
 470 800 l 1
 463 692 l 1
 99 548 l 1
 158.333333333 496.666666667 204.333333333 444.333333333 237 391 c 1
 253 371 268.333333333 345.833333333 283 315.5 c 128
 297.666666667 285.166666667 310.333333333 258.666666667 321 236 c 128
 331.666666667 213.333333333 345 191 361 169 c 128
 377 147 398 130 424 118 c 128
 450 106 481.333333333 100 518 100 c 1
 518 -0 l 1
 454 0 404.833333333 10.1666666667 370.5 30.5 c 128
 336.166666667 50.8333333333 307.333333333 81.3333333333 284 122 c 1
 282.666666667 119.333333333 281 115.666666667 279 111 c 128
 277 106.333333333 275.333333333 102.666666667 274 100 c 0
 239.333333333 33.3333333333 168.333333333 0 61 0 c 2
 -1 -0 l 2
 -13 0 -24.1666666667 5 -34.5 15 c 128
 -44.8333333333 25 -50 36.3333333333 -50 49 c 0
 -50 62.3333333333 -45 74.1666666667 -35 84.5 c 128
 -25 94.8333333333 -13.6666666667 100 -1 100 c 2
 60 100 l 2
89 682 m 1
 105 740 l 1
 414 868 l 1
 402 814 l 1
 89 682 l 1
EndSplineSet
Validated: 1
Colour: ffda6b
EndChar

StartChar: _.ghaf.init
Encoding: 65666 -1 403
GlifName: _.ghaf.init
Width: 534
VWidth: 0
GlyphClass: 2
Flags: HMW
LayerCount: 2
Fore
SplineSet
60 100 m 2
 91.3333333333 100 119.166666667 102.166666667 143.5 106.5 c 128
 167.833333333 110.833333333 189 118.833333333 207 130.5 c 128
 225 142.166666667 234 157.333333333 234 176 c 0
 234 210.666666667 215.666666667 257.5 179 316.5 c 128
 142.333333333 375.5 82.3333333333 436.666666667 -1 500 c 1
 36 620 l 1
 470 800 l 1
 463 692 l 1
 99 548 l 1
 165.666666667 492.666666667 215.333333333 434.333333333 248 373 c 128
 280.666666667 311.666666667 297 253.666666667 297 199 c 0
 297 161.666666667 289.333333333 128.666666667 274 100 c 0
 239.333333333 33.3333333333 168.333333333 0 61 0 c 2
 -1 -0 l 2
 -13 0 -24.1666666667 5 -34.5 15 c 128
 -44.8333333333 25 -50 36.3333333333 -50 49 c 0
 -50 62.3333333333 -45 74.1666666667 -35 84.5 c 128
 -25 94.8333333333 -13.6666666667 100 -1 100 c 2
 60 100 l 2
89 682 m 1
 105 740 l 1
 414 868 l 1
 402 814 l 1
 89 682 l 1
EndSplineSet
Validated: 1
Colour: ffda6b
EndChar

StartChar: l.allah.ref1
Encoding: 65667 -1 404
Width: 1300
VWidth: 0
Flags: HM
LayerCount: 2
Fore
SplineSet
460 100 m 0
 524 100 557.333333333 132 560 196 c 1
 530 591 l 1
 612 668 l 1
 631 200 l 1
 631 196 l 2
 633 132 666.333333333 100 731 100 c 1
 731 0 l 1
 669 0 624 19.3333333333 596 58 c 1
 567.333333333 19.3333333333 522 0 460 0 c 0
 448 0 436.666666667 5.33333333333 426 16 c 128
 415.333333333 26.6666666667 410 38 410 50 c 0
 411.333333333 62 416.666666667 73.3333333333 426 84 c 0
 436 94.6666666667 447.333333333 100 460 100 c 0
EndSplineSet
Validated: 1
Comment: "l.allah had both contours and references, so the contours were moved into this glyph, and a reference to it was added in the original."
Colour: ff8080
EndChar

StartChar: _.la.isol.fa
Encoding: 65668 -1 405
Width: 562
VWidth: 0
Flags: HMW
LayerCount: 2
Fore
SplineSet
64 599 m 0
 64 613.666666667 80.6666666667 640 114 678 c 1
 121.333333333 680 126 678 128 672 c 2
 290 236 l 2
 290.666666667 234 291 230.666666667 291 226 c 0
 291 213.333333333 286.166666667 199.333333333 276.5 184 c 128
 266.833333333 168.666666667 257.333333333 159.666666667 248 157 c 1
 75 559 l 2
 67.6666666667 577 64 590.333333333 64 599 c 0
114 50 m 128
 114 62.6666666667 118.833333333 74 128.5 84 c 128
 138.166666667 94 149.333333333 99.3333333333 162 100 c 2
 167 100 l 2
 223 100 277.666666667 115.166666667 331 145.5 c 128
 384.333333333 175.833333333 418.666666667 200.666666667 434 220 c 1
 392 699 l 2
 392 702.333333333 391.833333333 706.333333333 391.5 711 c 128
 391.166666667 715.666666667 391 719 391 721 c 0
 391 736.333333333 395.166666667 748.5 403.5 757.5 c 128
 411.833333333 766.5 432 781 464 801 c 1
 472.666666667 801 477 797.333333333 477 790 c 2
 498 276 l 2
 498 261 498 261 498 249.5 c 128
 498 241.833333333 497.5 234.5 496.5 227.5 c 128
 495.5 220.5 494.833333333 214.833333333 494.5 210.5 c 128
 494.166666667 206.166666667 493 201.166666667 491 195.5 c 128
 489 189.833333333 487.833333333 186 487.5 184 c 128
 487.166666667 182 485.333333333 178.166666667 482 172.5 c 128
 478.666666667 166.833333333 476.833333333 163.666666667 476.5 163 c 128
 476.166666667 162.333333333 473.666666667 158.5 469 151.5 c 128
 464.333333333 144.5 461.666666667 140.333333333 461 139 c 0
 433 97 393 63.3333333333 341 38 c 128
 289 12.6666666667 230 0 164 0 c 0
 151.333333333 0.666666666667 139.833333333 6 129.5 16 c 128
 119.166666667 26 114 37.3333333333 114 50 c 128
EndSplineSet
Validated: 1
Colour: ffda6b
EndChar

StartChar: _.la.fina.fa
Encoding: 65669 -1 406
Width: 674
VWidth: 0
Flags: HMW
LayerCount: 2
Fore
SplineSet
64 599 m 0
 64 613.666666667 80.6666666667 640 114 678 c 1
 121.333333333 680 126 678 128 672 c 2
 290 236 l 2
 290.666666667 234 291 230.666666667 291 226 c 0
 291 213.333333333 286.166666667 199.333333333 276.5 184 c 128
 266.833333333 168.666666667 257.333333333 159.666666667 248 157 c 1
 75 559 l 2
 67.6666666667 577 64 590.333333333 64 599 c 0
114 50 m 128
 114 62.6666666667 118.833333333 74 128.5 84 c 128
 138.166666667 94 149.333333333 99.3333333333 162 100 c 2
 167 100 l 2
 223 100 277.666666667 115.166666667 331 145.5 c 128
 384.333333333 175.833333333 418.666666667 200.666666667 434 220 c 1
 392 699 l 2
 392 702.333333333 391.833333333 706.333333333 391.5 711 c 128
 391.166666667 715.666666667 391 719 391 721 c 0
 391 736.333333333 395.166666667 748.5 403.5 757.5 c 128
 411.833333333 766.5 432 781 464 801 c 1
 472.666666667 801 477 797.333333333 477 790 c 2
 497 277 l 2
 499 250.333333333 502.5 227.5 507.5 208.5 c 128
 512.5 189.5 521.166666667 171.166666667 533.5 153.5 c 128
 545.833333333 135.833333333 563.666666667 122.5 587 113.5 c 128
 610.333333333 104.5 639.333333333 100 674 100 c 1
 674 -0 l 1
 556 0 484 44.6666666667 458 134 c 1
 430 93.3333333333 390.166666667 60.8333333333 338.5 36.5 c 128
 286.833333333 12.1666666667 228.666666667 0 164 0 c 0
 151.333333333 0.666666666667 139.833333333 6 129.5 16 c 128
 119.166666667 26 114 37.3333333333 114 50 c 128
EndSplineSet
Validated: 1
Colour: ffda6b
EndChar

StartChar: _.sing.alef_maad
Encoding: 65672 -1 409
Width: 505
VWidth: 1352
Flags: HMW
LayerCount: 2
Fore
SplineSet
50 31 m 1
 67.3333333333 75 88.3333333333 105.333333333 113 122 c 128
 137.666666667 138.666666667 166.333333333 147 199 147 c 0
 213 147 234.166666667 145.166666667 262.5 141.5 c 128
 290.833333333 137.833333333 311.666666667 136 325 136 c 0
 381 136 422 162.666666667 448 216 c 1
 455 166 l 1
 443.666666667 119.333333333 425.666666667 87.3333333333 401 70 c 128
 376.333333333 52.6666666667 345.666666667 44 309 44 c 0
 293.666666667 44 270.333333333 45.8333333333 239 49.5 c 128
 207.666666667 53.1666666667 185 55 171 55 c 0
 121.666666667 55 90.3333333333 36.6666666667 77 0 c 1
 50 31 l 1
EndSplineSet
Validated: 1
Colour: ffda6b
EndChar

StartChar: _.sing.star
Encoding: 65673 -1 410
Width: 503
VWidth: 1197
Flags: HMW
LayerCount: 2
Fore
SplineSet
50 543 m 1
 72 609 l 1
 123 593 l 2
 135.666666667 589 153.666666667 582.166666667 177 572.5 c 128
 200.333333333 562.833333333 215 557 221 555 c 1
 220.333333333 561 219.666666667 570 219 582 c 128
 218.333333333 594 217.666666667 603 217 609 c 0
 217 615 216.833333333 623.666666667 216.5 635 c 128
 216.166666667 646.333333333 216 654.666666667 216 660 c 2
 216 714 l 1
 286 714 l 1
 286 660 l 2
 286 622.666666667 284 587.666666667 280 555 c 1
 290 558.333333333 306.333333333 564.666666667 329 574 c 128
 351.666666667 583.333333333 368.333333333 589.666666667 379 593 c 2
 430 609 l 1
 453 543 l 1
 401 525 l 2
 389.666666667 521.666666667 372.5 517.166666667 349.5 511.5 c 128
 326.5 505.833333333 309.666666667 501.333333333 299 498 c 1
 305 491.333333333 327 464.333333333 365 417 c 1
 397 373 l 1
 341 332 l 1
 309 375 l 2
 289 402.333333333 270 431.666666667 252 463 c 1
 216 408.333333333 196.666666667 379 194 375 c 2
 162 332 l 1
 105 373 l 1
 136 417 l 2
 144.666666667 426.333333333 167 453.333333333 203 498 c 1
 192.333333333 501.333333333 175.5 505.833333333 152.5 511.5 c 128
 129.5 517.166666667 112.666666667 521.666666667 102 525 c 2
 50 543 l 1
EndSplineSet
Validated: 1
Colour: ffda6b
EndChar

